<?xml version="1.0" encoding="UTF-8"?><svg id="a" xmlns="http://www.w3.org/2000/svg" viewBox="0 0 800 800"><defs><style>.b{fill:#fff;}.c{fill:none;}</style></defs><g><path class="b" d="M363.97998,179.40997c-1.14996,17.59003-14.76996,31.81-32.28998,33.73004-20.03003,2.08997-37.96002-12.44-40.04999-32.47003-.21002-1.98999-.26001-4-.14001-6.01001,1.31-20.01001,18.59998-35.16998,38.60999-33.85999,20.02002,1.29999,35.17999,18.59003,33.87,38.60999Z"/><path class="b" d="M509.07001,318.31c2.16998,19.94-12.22003,37.87-32.16003,40.04999-19.94,2.17999-37.87-12.21997-40.04999-32.15997-.27997-2.62006-.27997-5.27002,0-7.89001,1.85999-16.92999,15.23004-30.29004,32.16003-32.16003,19.94-2.16998,37.87,12.22003,40.04999,32.16003Z"/><path class="b" d="M620.03998,0H180.66998c-16.54999,0-29.95996,13.40997-29.95996,29.96002V469.32996c0,16.55005,13.40997,29.96002,29.95996,29.96002h439.37c16.55005,0,29.96002-13.40997,29.96002-29.96002V29.96002c0-16.55005-13.40997-29.96002-29.96002-29.96002Zm-15.42999,222.70001l-60.10999,60.12c13.12,23.76996,13.58002,52.50995,1.21997,76.69-20.54999,40.16998-69.76996,56.08997-109.94995,35.53998-40.17999-20.53998-56.09003-69.77002-35.55005-109.94l-35.31995-35.32001c-23.85004,12.19-52.16003,11.90002-75.77002-.76001l-93.03998,93.04004v-64.17999l60.58997-60.59003c-14.47998-25.51001-14.16998-56.82001,.79999-82.03998,23.04004-38.79999,73.17004-51.58002,111.98004-28.54004,38.79999,23.04004,51.57996,73.17004,28.53998,111.97003l33.31,33.31c24.89001-14.79004,55.76001-15.27002,81.10999-1.28003l92.19-92.20001v64.18005Z"/></g><g><path class="b" d="M127.66895,755.89384l-12.78027-29.7002H53.14893l-12.78027,29.7002H16.96875l57.41992-126.90039h18.8999l57.42041,126.90039h-23.04004Zm-66.95996-47.7002h46.43994l-23.22021-54-23.21973,54Z"/><path class="b" d="M236.92676,674.71415c5.1582,6.00195,7.74023,15.06055,7.74023,27.17969v54h-22.5v-52.74023c0-6.83984-1.29102-11.81836-3.87012-14.93945-2.58203-3.11914-6.63184-4.68066-12.1499-4.68066-6.47998,0-11.67188,2.04199-15.57031,6.12012-3.90088,4.08105-5.84961,9.54004-5.84961,16.37988v49.86035h-22.5v-88.01953h21.95996v13.13965c2.99805-4.91895,7.02002-8.69922,12.06006-11.33984,5.03955-2.63867,10.73779-3.95996,17.09961-3.95996,10.55811,0,18.41943,3.00098,23.58008,9Z"/><path class="b" d="M332.86523,674.71415c5.99902,6.00195,9,15.24023,9,27.71973v53.45996h-21.41992v-13.5c-2.04199,4.67969-5.25098,8.3418-9.62988,10.98047-4.38232,2.6377-9.4502,3.95996-15.21045,3.95996-5.88086,0-11.22168-1.20117-16.02002-3.60059-4.80078-2.39844-8.58057-5.69824-11.33984-9.89941-2.76172-4.19922-4.14014-8.87988-4.14014-14.04004,0-6.48047,1.64844-11.5791,4.9502-15.30078,3.29932-3.71777,8.66797-6.41797,16.10986-8.09961,7.43945-1.67871,17.69922-2.51953,30.78027-2.51953h4.5v-4.14062c0-5.99902-1.29102-10.31934-3.87012-12.95996-2.58203-2.6377-6.87109-3.95996-12.87012-3.95996-4.67969,0-9.5708,.81055-14.66992,2.42969-5.10205,1.62012-10.11084,3.87012-15.02979,6.75l-6.30029-15.47949c4.91895-3.11914,10.85938-5.69824,17.82031-7.74023,6.95801-2.03906,13.55908-3.05957,19.7998-3.05957,12.35791,0,21.53809,3.00098,27.54004,9Zm-18.08984,60.38965c3.77979-4.01855,5.66992-9.20801,5.66992-15.57031v-3.7793h-3.24023c-8.04102,0-14.28174,.35938-18.71973,1.08008-4.44092,.71973-7.62207,1.97949-9.54004,3.7793-1.9209,1.7998-2.87988,4.26074-2.87988,7.37988,0,3.8418,1.31885,6.99219,3.95996,9.4502,2.6377,2.46094,5.99902,3.69043,10.07959,3.69043,5.99951,0,10.89014-2.00879,14.67041-6.03027Z"/><path class="b" d="M364.72412,755.89384v-126.90039h22.5v126.90039h-22.5Z"/><path class="b" d="M472.18359,668.05399h22.14062l-52.91992,120.24023h-22.67969l16.01953-35.82031-36.7207-84.41992h23.75977l24.83984,62.09961,25.56055-62.09961Z"/><path class="b" d="M560.73828,739.87431l-1.08008,16.73926c-3.60059,.36035-6.90234,.54004-9.90039,.54004-12.36133,0-21.48145-2.84863-27.36035-8.5498-5.88086-5.69824-8.81934-14.18945-8.81934-25.46973v-38.33984h-16.91992v-16.91992h16.91992v-26.28027h22.5v26.28027h23.21973v16.91992h-23.21973v37.97949c0,11.76172,5.45898,17.63965,16.37988,17.63965,2.6377,0,5.39941-.17969,8.28027-.53906Z"/><path class="b" d="M572.61621,627.01396h24.83984v22.13965h-24.83984v-22.13965Zm1.25977,128.87988v-88.01953h22.5v88.01953h-22.5Z"/><path class="b" d="M635.70508,751.75419c-6.78027-3.71875-11.96973-9-15.56934-15.84082-3.60059-6.83984-5.40039-14.81836-5.40039-23.93945,0-9.11816,1.89062-17.19043,5.66992-24.20996,3.78027-7.02051,9.14941-12.44824,16.11035-16.29004,6.95801-3.83887,14.99902-5.75977,24.12012-5.75977,6.23828,0,12.33008,.98926,18.26953,2.96973,5.94043,1.97949,10.70996,4.65137,14.31055,8.00977l-6.48047,15.83984c-3.7207-2.99805-7.64941-5.27832-11.79004-6.83984-4.13965-1.55762-8.25195-2.33984-12.33008-2.33984-7.80176,0-13.85938,2.42969-18.17969,7.29004s-6.48047,11.85156-6.48047,20.96973c0,9,2.16016,15.93066,6.48047,20.79004,4.32031,4.86035,10.37793,7.29004,18.17969,7.29004,4.07812,0,8.19043-.7793,12.33008-2.33984,4.14062-1.55762,8.06934-3.83887,11.79004-6.83984l6.48047,15.66016c-3.8418,3.48145-8.76172,6.20996-14.76074,8.18945-6.00098,1.98047-12.23926,2.9707-18.71973,2.9707-9.24219,0-17.25195-1.85938-24.03027-5.58008Z"/><path class="b" d="M718.32422,754.45341c-6.54199-1.91797-12.09082-4.67969-16.64941-8.2793l6.2998-15.66016c9.35938,6.83984,20.09766,10.25977,32.21973,10.25977,5.1582,0,9.08984-.83789,11.79004-2.51953,2.7002-1.67969,4.0498-4.07812,4.0498-7.2002,0-2.63867-.93066-4.67969-2.79004-6.12012-1.86133-1.44043-5.19141-2.75879-9.99023-3.95996l-14.39941-3.24023c-8.16211-1.7998-14.21973-4.73926-18.17969-8.82031-3.95996-4.07812-5.94043-9.35938-5.94043-15.83984,0-5.39941,1.53027-10.16992,4.58984-14.30957,3.06055-4.13965,7.31836-7.34961,12.78027-9.62988,5.45898-2.27832,11.79004-3.41992,18.99023-3.41992,6.2373,0,12.26758,.96191,18.08984,2.87988,5.81934,1.9209,10.94922,4.62109,15.38965,8.09961l-6.2998,15.2998c-9.12109-6.59766-18.24219-9.89941-27.36035-9.89941-4.92188,0-8.76074,.89941-11.51953,2.7002-2.76172,1.7998-4.14062,4.31934-4.14062,7.55957,0,2.40234,.86914,4.38184,2.61035,5.94043,1.73828,1.56055,4.52832,2.76172,8.37012,3.59961l14.94043,3.41992c8.75781,1.9209,15.17871,4.9502,19.25977,9.08984,4.07812,4.14062,6.12012,9.57129,6.12012,16.29004,0,8.16211-3.30176,14.6416-9.90039,19.44043-6.60059,4.80078-15.54199,7.2002-26.82031,7.2002-7.80176,0-14.9707-.96191-21.50977-2.88086Z"/></g><rect class="c" width="800" height="800"/></svg>