<?xml version="1.0" encoding="UTF-8"?><svg id="a" xmlns="http://www.w3.org/2000/svg" viewBox="0 0 800 800"><defs><style>.b{fill:#fff;}.c{fill:none;}</style></defs><rect class="c" width="800" height="800"/><g><path class="b" d="M85.36475,753.55399c-8.52148-2.63867-15.72168-6.35938-21.59961-11.16016l7.73975-16.91992c6.12012,4.67969,12.56885,8.09961,19.3501,10.25977,6.77783,2.16016,14.12988,3.24023,22.0498,3.24023,8.7583,0,15.5083-1.53027,20.25-4.58984,4.73926-3.06055,7.11035-7.34961,7.11035-12.87012,0-4.79785-2.19141-8.45996-6.57031-10.98047-4.38184-2.51953-11.67188-4.91895-21.87012-7.19922-10.56055-2.27832-19.1416-4.91992-25.73975-7.9209-6.60107-2.99805-11.58203-6.83984-14.93994-11.51953-3.36084-4.67969-5.04004-10.62012-5.04004-17.82031,0-7.43848,2.03906-14.09863,6.12012-19.97949,4.07812-5.87793,9.83789-10.46875,17.27979-13.77051,7.43896-3.29883,16.02002-4.94922,25.74023-4.94922,8.87891,0,17.33887,1.34961,25.37988,4.0498,8.03809,2.7002,14.63916,6.38965,19.7998,11.06934l-7.73975,16.91992c-11.28125-9-23.76025-13.5-37.43994-13.5-8.16211,0-14.61133,1.65137-19.3501,4.9502-4.74219,3.30176-7.11035,7.89258-7.11035,13.77051,0,4.92188,2.09814,8.70117,6.30029,11.33984,4.19922,2.64062,11.33984,5.10156,21.41992,7.37988,10.6792,2.40234,19.3501,5.07129,26.01025,8.00977,6.65967,2.94238,11.75879,6.69141,15.2998,11.25,3.53809,4.5625,5.31006,10.32227,5.31006,17.28027,0,7.55957-2.01123,14.19141-6.03027,19.88965-4.02148,5.70117-9.84082,10.08008-17.45996,13.14062-7.62158,3.05957-16.59082,4.58984-26.90967,4.58984-9.72021,0-18.84131-1.32227-27.36035-3.95996Z"/><path class="b" d="M259.78223,715.93388h-59.93994c.72021,8.16211,3.17822,14.21973,7.37988,18.17969,4.19922,3.95996,10.19824,5.94043,18,5.94043,9.72021,0,18.59912-3.11914,26.64014-9.36035l6.47998,15.48047c-4.08105,3.36035-9.21094,6.06055-15.39014,8.09961-6.18164,2.03906-12.3916,3.06055-18.62988,3.06055-14.3999,0-25.771-4.07812-34.10986-12.24023-8.3418-8.15918-12.51025-19.31934-12.51025-33.48047,0-9,1.80029-16.97852,5.40039-23.93945,3.59961-6.95801,8.66797-12.3584,15.20996-16.2002,6.53906-3.83887,13.94971-5.75977,22.22998-5.75977,12.11865,0,21.68994,3.90039,28.70996,11.69922,7.02002,7.80273,10.52979,18.54004,10.52979,32.2207v6.2998Zm-53.18994-28.62012c-3.66162,3.8418-5.91162,9.36035-6.75,16.56055h40.68018c-.24219-7.31836-2.04199-12.87012-5.40039-16.65039-3.36084-3.78027-8.04053-5.66992-14.03955-5.66992-6.00195,0-10.83105,1.9209-14.49023,5.75977Z"/><path class="b" d="M330.1626,739.87431l-1.08008,16.73926c-3.6001,.36035-6.90186,.54004-9.8999,.54004-12.36084,0-21.48193-2.84863-27.35986-8.5498-5.88086-5.69824-8.82031-14.18945-8.82031-25.46973v-38.33984h-16.91992v-16.91992h16.91992v-26.28027h22.5v26.28027h23.22021v16.91992h-23.22021v37.97949c0,11.76172,5.45947,17.63965,16.38037,17.63965,2.6377,0,5.3999-.17969,8.27979-.53906Z"/><path class="b" d="M395.32275,739.87431l-1.08008,16.73926c-3.6001,.36035-6.90186,.54004-9.8999,.54004-12.36084,0-21.48193-2.84863-27.35986-8.5498-5.88086-5.69824-8.82031-14.18945-8.82031-25.46973v-38.33984h-16.91992v-16.91992h16.91992v-26.28027h22.5v26.28027h23.22021v16.91992h-23.22021v37.97949c0,11.76172,5.45947,17.63965,16.38037,17.63965,2.6377,0,5.3999-.17969,8.27979-.53906Z"/><path class="b" d="M407.20117,627.01396h24.83984v22.13965h-24.83984v-22.13965Zm1.25977,128.87988v-88.01953h22.5v88.01953h-22.5Z"/><path class="b" d="M528.88086,674.71415c5.1582,6.00195,7.73926,15.06055,7.73926,27.17969v54h-22.5v-52.74023c0-6.83984-1.29102-11.81836-3.87012-14.93945-2.58105-3.11914-6.63184-4.68066-12.14941-4.68066-6.48047,0-11.67188,2.04199-15.57031,6.12012-3.90039,4.08105-5.84961,9.54004-5.84961,16.37988v49.86035h-22.5v-88.01953h21.95996v13.13965c2.99805-4.91895,7.01953-8.69922,12.05957-11.33984,5.04004-2.63867,10.73828-3.95996,17.10059-3.95996,10.55762,0,18.41895,3.00098,23.58008,9Z"/><path class="b" d="M645.15918,667.87431v79.91992c0,13.79785-3.81055,24.2373-11.42969,31.31934-7.62207,7.0791-18.87207,10.62012-33.75,10.62012-7.68066,0-15.06152-.99023-22.14062-2.96973-7.08105-1.98047-13.26074-4.77051-18.54004-8.37012l6.30078-15.83984c10.91797,6.59766,22.19922,9.89941,33.83984,9.89941,15.59766,0,23.39941-7.68066,23.39941-23.04004v-11.51953c-2.64062,4.92188-6.47949,8.73047-11.51953,11.42969-5.04004,2.7002-10.7998,4.05078-17.28027,4.05078-7.68066,0-14.49023-1.82812-20.42969-5.49023-5.94043-3.65918-10.5918-8.78906-13.9502-15.39062-3.36035-6.59766-5.04004-14.21973-5.04004-22.85938,0-8.64062,1.64844-16.29004,4.9502-22.9502,3.29883-6.66016,7.94824-11.81836,13.9502-15.48047,5.99902-3.6582,12.83887-5.48926,20.51953-5.48926,6.48047,0,12.24023,1.34961,17.28027,4.0498s8.87891,6.51074,11.51953,11.42969v-13.31934h22.32031Zm-28.34961,61.01953c4.01855-4.67969,6.0293-11.09766,6.0293-19.25977,0-8.28027-2.01074-14.75977-6.0293-19.44043-4.02246-4.67969-9.62988-7.01953-16.83008-7.01953-7.08203,0-12.66211,2.33984-16.74023,7.01953-4.08105,4.68066-6.12012,11.16016-6.12012,19.44043,0,8.04102,2.03906,14.43066,6.12012,19.16992,4.07812,4.74219,9.6582,7.10938,16.74023,7.10938,7.2002,0,12.80762-2.33984,16.83008-7.01953Z"/><path class="b" d="M679.26855,754.45341c-6.54199-1.91797-12.09082-4.67969-16.64941-8.2793l6.2998-15.66016c9.35938,6.83984,20.09766,10.25977,32.21973,10.25977,5.1582,0,9.08984-.83789,11.79004-2.51953,2.7002-1.67969,4.0498-4.07812,4.0498-7.2002,0-2.63867-.93066-4.67969-2.79004-6.12012-1.86133-1.44043-5.19141-2.75879-9.99023-3.95996l-14.39941-3.24023c-8.16211-1.7998-14.21973-4.73926-18.17969-8.82031-3.95996-4.07812-5.94043-9.35938-5.94043-15.83984,0-5.39941,1.53027-10.16992,4.58984-14.30957,3.06055-4.13965,7.31836-7.34961,12.78027-9.62988,5.45898-2.27832,11.79004-3.41992,18.99023-3.41992,6.2373,0,12.26758,.96191,18.08984,2.87988,5.81934,1.9209,10.94922,4.62109,15.38965,8.09961l-6.2998,15.2998c-9.12109-6.59766-18.24219-9.89941-27.36035-9.89941-4.92188,0-8.76074,.89941-11.51953,2.7002-2.76172,1.7998-4.14062,4.31934-4.14062,7.55957,0,2.40234,.86914,4.38184,2.61035,5.94043,1.73828,1.56055,4.52832,2.76172,8.37012,3.59961l14.94043,3.41992c8.75781,1.9209,15.17871,4.9502,19.25977,9.08984,4.07812,4.14062,6.12012,9.57129,6.12012,16.29004,0,8.16211-3.30176,14.6416-9.90039,19.44043-6.60059,4.80078-15.54199,7.2002-26.82031,7.2002-7.80176,0-14.9707-.96191-21.50977-2.88086Z"/></g><path class="b" d="M644.87,187.5h-46.03998c-3.72003-11.65002-8.46002-22.94-14.16003-33.75l32.70001-32.70001c2-2.01001,2-5.26001,0-7.26001l-81.15997-81.15997c-2-2-5.25-2-7.26001,0l-32.70001,32.70001c-10.81-5.70001-22.09998-10.44-33.75-14.16003V5.13c0-2.83002-2.29999-5.13-5.13-5.13h-114.73999c-2.83002,0-5.13,2.29999-5.13,5.13V51.25c-11.65997,3.65997-22.95001,8.37-33.75,14.08002l-32.70001-32.70001c-2.01001-2-5.26001-2-7.26001,0l-81.07996,81.15997c-2,2-2,5.25,0,7.26001l32.62,32.62c-5.70001,10.84003-10.44,22.15997-14.16003,33.83002h-46.03998c-2.83002,0-5.13,2.29999-5.13,5.13v114.73999c0,2.83002,2.29999,5.13,5.13,5.13h46.12c3.65002,11.65997,8.37,22.95001,14.08002,33.75l-32.70001,32.70001c-2,2.00995-2,5.25995,0,7.25995l81.15997,81.08002c2,2,5.25,2,7.25,0l32.63-32.62c10.82001,5.67999,22.15002,10.37,33.83002,14v46.20001c0,2.83002,2.29999,5.13,5.13,5.13h114.73999c2.83002,0,5.13-2.29999,5.13-5.13v-46.12c11.66998-3.69,22.98999-8.40002,33.83002-14.08002l32.62,32.62c2.01001,2,5.26001,2,7.26001,0l81.15997-81.08002c2-2,2-5.25,0-7.25995l-32.70001-32.70001c5.71002-10.79999,10.42004-22.09003,14.08002-33.75h46.12c2.83002,0,5.13-2.29999,5.13-5.13v-114.73999c0-2.83002-2.29999-5.13-5.13-5.13Zm-168.46002,62.5c0,42.20996-34.21997,76.42999-76.42999,76.42999s-76.42999-34.22003-76.42999-76.42999,34.22003-76.42999,76.42999-76.42999c42.19,.04999,76.38,34.23999,76.42999,76.42999Z"/></svg>