<?xml version="1.0" encoding="UTF-8"?><svg id="a" xmlns="http://www.w3.org/2000/svg" viewBox="0 0 800 800"><defs><style>.b{fill:#fff;}.c{fill:none;}.d{fill:#7f7f7f;}</style></defs><rect class="c" width="800" height="800"/><g><path class="d" d="M85.36475,753.55399c-8.52148-2.63867-15.72168-6.35938-21.59961-11.16016l7.73975-16.91992c6.12012,4.67969,12.56885,8.09961,19.3501,10.25977,6.77783,2.16016,14.12988,3.24023,22.0498,3.24023,8.7583,0,15.5083-1.53027,20.25-4.58984,4.73926-3.06055,7.11035-7.34961,7.11035-12.87012,0-4.79785-2.19141-8.45996-6.57031-10.98047-4.38184-2.51953-11.67188-4.91895-21.87012-7.19922-10.56055-2.27832-19.1416-4.91992-25.73975-7.9209-6.60107-2.99805-11.58203-6.83984-14.93994-11.51953-3.36084-4.67969-5.04004-10.62012-5.04004-17.82031,0-7.43848,2.03906-14.09863,6.12012-19.97949,4.07812-5.87793,9.83789-10.46875,17.27979-13.77051,7.43896-3.29883,16.02002-4.94922,25.74023-4.94922,8.87891,0,17.33887,1.34961,25.37988,4.0498,8.03809,2.7002,14.63916,6.38965,19.7998,11.06934l-7.73975,16.91992c-11.28125-9-23.76025-13.5-37.43994-13.5-8.16211,0-14.61133,1.65137-19.3501,4.9502-4.74219,3.30176-7.11035,7.89258-7.11035,13.77051,0,4.92188,2.09814,8.70117,6.30029,11.33984,4.19922,2.64062,11.33984,5.10156,21.41992,7.37988,10.6792,2.40234,19.3501,5.07129,26.01025,8.00977,6.65967,2.94238,11.75879,6.69141,15.2998,11.25,3.53809,4.5625,5.31006,10.32227,5.31006,17.28027,0,7.55957-2.01123,14.19141-6.03027,19.88965-4.02148,5.70117-9.84082,10.08008-17.45996,13.14062-7.62158,3.05957-16.59082,4.58984-26.90967,4.58984-9.72021,0-18.84131-1.32227-27.36035-3.95996Z"/><path class="d" d="M259.78223,715.93388h-59.93994c.72021,8.16211,3.17822,14.21973,7.37988,18.17969,4.19922,3.95996,10.19824,5.94043,18,5.94043,9.72021,0,18.59912-3.11914,26.64014-9.36035l6.47998,15.48047c-4.08105,3.36035-9.21094,6.06055-15.39014,8.09961-6.18164,2.03906-12.3916,3.06055-18.62988,3.06055-14.3999,0-25.771-4.07812-34.10986-12.24023-8.3418-8.15918-12.51025-19.31934-12.51025-33.48047,0-9,1.80029-16.97852,5.40039-23.93945,3.59961-6.95801,8.66797-12.3584,15.20996-16.2002,6.53906-3.83887,13.94971-5.75977,22.22998-5.75977,12.11865,0,21.68994,3.90039,28.70996,11.69922,7.02002,7.80273,10.52979,18.54004,10.52979,32.2207v6.2998Zm-53.18994-28.62012c-3.66162,3.8418-5.91162,9.36035-6.75,16.56055h40.68018c-.24219-7.31836-2.04199-12.87012-5.40039-16.65039-3.36084-3.78027-8.04053-5.66992-14.03955-5.66992-6.00195,0-10.83105,1.9209-14.49023,5.75977Z"/><path class="d" d="M330.1626,739.87431l-1.08008,16.73926c-3.6001,.36035-6.90186,.54004-9.8999,.54004-12.36084,0-21.48193-2.84863-27.35986-8.5498-5.88086-5.69824-8.82031-14.18945-8.82031-25.46973v-38.33984h-16.91992v-16.91992h16.91992v-26.28027h22.5v26.28027h23.22021v16.91992h-23.22021v37.97949c0,11.76172,5.45947,17.63965,16.38037,17.63965,2.6377,0,5.3999-.17969,8.27979-.53906Z"/><path class="d" d="M395.32275,739.87431l-1.08008,16.73926c-3.6001,.36035-6.90186,.54004-9.8999,.54004-12.36084,0-21.48193-2.84863-27.35986-8.5498-5.88086-5.69824-8.82031-14.18945-8.82031-25.46973v-38.33984h-16.91992v-16.91992h16.91992v-26.28027h22.5v26.28027h23.22021v16.91992h-23.22021v37.97949c0,11.76172,5.45947,17.63965,16.38037,17.63965,2.6377,0,5.3999-.17969,8.27979-.53906Z"/><path class="d" d="M407.20117,627.01396h24.83984v22.13965h-24.83984v-22.13965Zm1.25977,128.87988v-88.01953h22.5v88.01953h-22.5Z"/><path class="d" d="M528.88086,674.71415c5.1582,6.00195,7.73926,15.06055,7.73926,27.17969v54h-22.5v-52.74023c0-6.83984-1.29102-11.81836-3.87012-14.93945-2.58105-3.11914-6.63184-4.68066-12.14941-4.68066-6.48047,0-11.67188,2.04199-15.57031,6.12012-3.90039,4.08105-5.84961,9.54004-5.84961,16.37988v49.86035h-22.5v-88.01953h21.95996v13.13965c2.99805-4.91895,7.01953-8.69922,12.05957-11.33984,5.04004-2.63867,10.73828-3.95996,17.10059-3.95996,10.55762,0,18.41895,3.00098,23.58008,9Z"/><path class="d" d="M645.15918,667.87431v79.91992c0,13.79785-3.81055,24.2373-11.42969,31.31934-7.62207,7.0791-18.87207,10.62012-33.75,10.62012-7.68066,0-15.06152-.99023-22.14062-2.96973-7.08105-1.98047-13.26074-4.77051-18.54004-8.37012l6.30078-15.83984c10.91797,6.59766,22.19922,9.89941,33.83984,9.89941,15.59766,0,23.39941-7.68066,23.39941-23.04004v-11.51953c-2.64062,4.92188-6.47949,8.73047-11.51953,11.42969-5.04004,2.7002-10.7998,4.05078-17.28027,4.05078-7.68066,0-14.49023-1.82812-20.42969-5.49023-5.94043-3.65918-10.5918-8.78906-13.9502-15.39062-3.36035-6.59766-5.04004-14.21973-5.04004-22.85938,0-8.64062,1.64844-16.29004,4.9502-22.9502,3.29883-6.66016,7.94824-11.81836,13.9502-15.48047,5.99902-3.6582,12.83887-5.48926,20.51953-5.48926,6.48047,0,12.24023,1.34961,17.28027,4.0498s8.87891,6.51074,11.51953,11.42969v-13.31934h22.32031Zm-28.34961,61.01953c4.01855-4.67969,6.0293-11.09766,6.0293-19.25977,0-8.28027-2.01074-14.75977-6.0293-19.44043-4.02246-4.67969-9.62988-7.01953-16.83008-7.01953-7.08203,0-12.66211,2.33984-16.74023,7.01953-4.08105,4.68066-6.12012,11.16016-6.12012,19.44043,0,8.04102,2.03906,14.43066,6.12012,19.16992,4.07812,4.74219,9.6582,7.10938,16.74023,7.10938,7.2002,0,12.80762-2.33984,16.83008-7.01953Z"/><path class="d" d="M679.26855,754.45341c-6.54199-1.91797-12.09082-4.67969-16.64941-8.2793l6.2998-15.66016c9.35938,6.83984,20.09766,10.25977,32.21973,10.25977,5.1582,0,9.08984-.83789,11.79004-2.51953,2.7002-1.67969,4.0498-4.07812,4.0498-7.2002,0-2.63867-.93066-4.67969-2.79004-6.12012-1.86133-1.44043-5.19141-2.75879-9.99023-3.95996l-14.39941-3.24023c-8.16211-1.7998-14.21973-4.73926-18.17969-8.82031-3.95996-4.07812-5.94043-9.35938-5.94043-15.83984,0-5.39941,1.53027-10.16992,4.58984-14.30957,3.06055-4.13965,7.31836-7.34961,12.78027-9.62988,5.45898-2.27832,11.79004-3.41992,18.99023-3.41992,6.2373,0,12.26758,.96191,18.08984,2.87988,5.81934,1.9209,10.94922,4.62109,15.38965,8.09961l-6.2998,15.2998c-9.12109-6.59766-18.24219-9.89941-27.36035-9.89941-4.92188,0-8.76074,.89941-11.51953,2.7002-2.76172,1.7998-4.14062,4.31934-4.14062,7.55957,0,2.40234,.86914,4.38184,2.61035,5.94043,1.73828,1.56055,4.52832,2.76172,8.37012,3.59961l14.94043,3.41992c8.75781,1.9209,15.17871,4.9502,19.25977,9.08984,4.07812,4.14062,6.12012,9.57129,6.12012,16.29004,0,8.16211-3.30176,14.6416-9.90039,19.44043-6.60059,4.80078-15.54199,7.2002-26.82031,7.2002-7.80176,0-14.9707-.96191-21.50977-2.88086Z"/></g><g><path class="b" d="M650,307.36618v-114.73235c0-2.83533-2.29846-5.13382-5.13382-5.13383h-46.03299c-3.72025-11.64503-8.46106-22.939-14.16727-33.7504l32.70386-32.702c2.00369-2.00465,2.00278-5.25476,.00009-7.26042l-81.15698-81.157c-2.00488-2.00488-5.25543-2.00487-7.26031,.00002l-.00009,.00009-32.702,32.70386c-10.81143-5.70623-22.10541-10.44708-33.75049-14.16737V5.13383C462.5,2.2985,460.20151,0,457.36618,0h-114.73236c-2.83533,0-5.13382,2.29849-5.13382,5.13382h0V51.25021c-11.65614,3.65543-22.95337,8.3697-33.75041,14.08386l-32.70131-32.70223c-2.00485-2.00491-5.25541-2.00496-7.26031-.00011l-.00179,.00179-81.07617,81.15368c-2.00327,2.00519-2.00248,5.25444,.00178,7.25864l32.62127,32.62035c-5.70653,10.84016-10.44727,22.16183-14.16728,33.83382h-46.03195c-2.83533,0-5.13382,2.29849-5.13382,5.13382v114.73236c0,2.83533,2.29849,5.13382,5.13382,5.13382h46.11537c3.65543,11.65613,8.3697,22.95337,14.08386,33.7504l-32.70134,32.70135c-2.00489,2.00488-2.00493,5.2554-.00005,7.26028l.00177,.00171,81.15279,81.07623c2.00516,2.00327,5.25439,2.0025,7.25861-.00171l32.62135-32.62131c10.82802,5.6875,22.15302,10.37378,33.83382,14.00043v46.19879c0,2.83533,2.29849,5.13382,5.13382,5.13382h114.73236c2.83533,0,5.13382-2.29849,5.13382-5.13382v-46.11639c11.66965-3.69058,22.99112-8.40311,33.83279-14.08282l32.62137,32.62137c2.00421,2.00421,5.25342,2.00497,7.25858,.00174l81.15372-81.07623c2.00583-2.00394,2.00735-5.25449,.00342-7.26031l-.00174-.00177-32.70224-32.70132c5.71414-10.79703,10.42844-22.09427,14.08386-33.7504h46.11639c2.83533,.00003,5.13382-2.29846,5.13385-5.13379v-.00006Zm-84.66693-36.53284c-.83096,7.02539-2.1398,13.98596-3.91745,20.83334-1.82788,7.09384-4.13834,14.0545-6.91528,20.83334-.33368,.83313-.66733,1.6666-1.00101,2.5004-2.86469,6.72971-6.20639,13.24619-9.9996,19.49973-3.51657,6.15717-7.50031,12.03549-11.91611,17.58322l29.66614,29.66714,.83313,.83313-29.50034,29.41589-.83313-.83212-14.74915-14.75015-14.83359-14.83359c-5.58881,4.36017-11.46335,8.34113-17.58423,11.91611-6.25507,3.76651-12.77161,7.08069-19.49966,9.91718-.83313,.33264-1.74966,.74973-2.58279,1-6.76764,2.82971-13.73007,5.16898-20.83334,6.99973-6.84918,1.76959-13.8092,3.07834-20.83334,3.91745v42.99927h-41.66664v-42.99933c-7.02417-.8389-13.98421-2.14767-20.83334-3.91745-7.10336-1.83041-14.0658-4.16968-20.83333-6.99966-.86053-.26123-1.69707-.59579-2.50041-1-6.75519-2.83594-13.29951-6.15005-19.58313-9.91718-6.1207-3.57477-11.99493-7.55573-17.58321-11.91611l-30.41687,30.41586-29.41691-29.41589,.74972-.74969,14.83357-14.83359,14.83358-14.91699c-4.41615-5.54749-8.39989-11.42584-11.9161-17.58322-3.79942-6.23679-7.11487-12.75583-9.91719-19.49973-.41606-.83414-.74972-1.66727-1.08338-2.5004-2.77806-6.77863-5.08923-13.73932-6.91731-20.83334-1.77632-6.84763-3.08482-13.80814-3.91643-20.83334h-42.99926v-41.66667h42.99926c.83161-7.02521,2.14011-13.98572,3.91643-20.83333,1.82809-7.09404,4.13925-14.05473,6.91731-20.83334,.31109-.88141,.67282-1.74411,1.08338-2.58382,2.83608-6.72827,6.15029-13.24484,9.91719-19.49971,3.54575-6.13892,7.52804-12.01512,11.9161-17.58321l-14.83358-14.83357-14.83357-14.8336-.74972-.7487,29.41691-29.50032,.83313,.83313,14.75015,14.74914,14.83359,14.8336c5.56927-4.3614,11.44556-8.31587,17.58321-11.83268,6.2532-3.7938,12.76974-7.13553,19.49973-9.9996,.83415-.33365,1.74966-.66731,2.58382-1.001,6.78308-2.76569,13.74295-5.07625,20.83333-6.9163,6.84904-1.76994,13.80913-3.07835,20.83334-3.91642V41.66667h41.66667v43.00027c7.0242,.83826,13.98425,2.14667,20.83334,3.91643,7.09027,1.84036,14.05011,4.15092,20.83331,6.91631,.83313,.33366,1.74966,.66732,2.58279,1.001,6.72989,2.86429,13.2464,6.206,19.49973,9.9996,6.13782,3.51704,12.01443,7.47149,17.58423,11.83266l30.41586-30.41586,29.50034,29.50032-15.58331,15.58228-14.91602,14.83357c4.38773,5.56833,8.37,11.4445,11.91611,17.58321,3.7666,6.28375,7.08038,12.82805,9.91617,19.58313,.41708,.83414,.75073,1.66727,1.08441,2.5004,2.77695,6.77882,5.0874,13.73949,6.91528,20.83334,1.77762,6.84737,3.08649,13.80795,3.91745,20.83333h43.00027v41.66669h-43.00024Z"/><path class="b" d="M399.97852,371.43015c-67.06416-.00012-121.43031-54.36649-121.43018-121.43066,.00014-67.06416,54.3665-121.43031,121.43066-121.43018,67.06418,.00014,121.4303,54.36649,121.43018,121.43065-.07581,67.03279-54.39786,121.35463-121.43066,121.43019Zm0-197.86084c-42.21135,.00014-76.43031,34.21931-76.43018,76.43066,.00014,42.21136,34.21931,76.4303,76.43066,76.43018,42.21118-.00012,76.43005-34.21902,76.43018-76.43019-.04764-42.19174-34.23892-76.38303-76.43066-76.43065Z"/></g></svg>