<?xml version="1.0" encoding="UTF-8"?><svg id="a" xmlns="http://www.w3.org/2000/svg" viewBox="0 0 800 800"><defs><style>.b{fill:#fff;}.c{fill:none;}.d{fill:#7f7f7f;}</style></defs><g><path class="d" d="M210.6416,755.89384v-107.82031h-41.3999v-19.08008h106.02002v19.08008h-41.40039v107.82031h-23.21973Z"/><path class="d" d="M333.04248,684.43388l-13.14014,1.25977c-14.88086,1.56152-22.31982,9.12109-22.31982,22.68066v47.51953h-22.5v-88.01953h21.41992v15.47949c4.55908-10.55762,13.97803-16.31836,28.25977-17.28027l6.84033-.54004,1.43994,18.90039Z"/><path class="d" d="M409.00195,674.71415c5.99902,6.00195,9,15.24023,9,27.71973v53.45996h-21.41992v-13.5c-2.04199,4.67969-5.25098,8.3418-9.62988,10.98047-4.38232,2.6377-9.4502,3.95996-15.21045,3.95996-5.88086,0-11.22168-1.20117-16.02002-3.60059-4.80078-2.39844-8.58057-5.69824-11.33984-9.89941-2.76172-4.19922-4.14014-8.87988-4.14014-14.04004,0-6.48047,1.64844-11.5791,4.9502-15.30078,3.29932-3.71777,8.66797-6.41797,16.10986-8.09961,7.43945-1.67871,17.69922-2.51953,30.78027-2.51953h4.5v-4.14062c0-5.99902-1.29102-10.31934-3.87012-12.95996-2.58203-2.6377-6.87109-3.95996-12.87012-3.95996-4.67969,0-9.5708,.81055-14.66992,2.42969-5.10205,1.62012-10.11084,3.87012-15.02979,6.75l-6.30029-15.47949c4.91895-3.11914,10.85938-5.69824,17.82031-7.74023,6.95801-2.03906,13.55908-3.05957,19.7998-3.05957,12.35791,0,21.53809,3.00098,27.54004,9Zm-18.08984,60.38965c3.77979-4.01855,5.66992-9.20801,5.66992-15.57031v-3.7793h-3.24023c-8.04102,0-14.28174,.35938-18.71973,1.08008-4.44092,.71973-7.62207,1.97949-9.54004,3.7793-1.9209,1.7998-2.87988,4.26074-2.87988,7.37988,0,3.8418,1.31885,6.99219,3.95996,9.4502,2.6377,2.46094,5.99902,3.69043,10.07959,3.69043,5.99951,0,10.89014-2.00879,14.67041-6.03027Z"/><path class="d" d="M525.82129,628.99345v126.90039h-22.32031v-14.21973c-2.64062,4.92188-6.45215,8.76074-11.42969,11.51953-4.98145,2.75879-10.65137,4.14062-17.00977,4.14062-7.56055,0-14.31055-1.91895-20.25-5.76074-5.94043-3.83887-10.56152-9.26953-13.86035-16.29004-3.30176-7.01953-4.9502-15.08887-4.9502-24.20996,0-9.11816,1.64844-17.09961,4.9502-23.93945,3.29883-6.83984,7.88867-12.11914,13.76953-15.83984,5.87891-3.71875,12.65918-5.58008,20.34082-5.58008,6.3584,0,11.99805,1.32129,16.91992,3.95996,4.91895,2.64062,8.69922,6.36133,11.33984,11.16016v-51.84082h22.5Zm-28.16992,103.5c3.89746-4.91895,5.84961-11.93848,5.84961-21.05957,0-9.11816-1.95215-16.11035-5.84961-20.96973-3.90137-4.86035-9.3916-7.29004-16.4707-7.29004-7.19922,0-12.7793,2.40137-16.73926,7.2002-3.95996,4.80078-5.94043,11.69922-5.94043,20.69922,0,9.12109,1.98047,16.2002,5.94043,21.24023s9.47754,7.56055,16.55957,7.56055c7.2002,0,12.74902-2.45898,16.65039-7.38086Z"/><path class="d" d="M626.26074,715.93388h-59.93945c.71973,8.16211,3.17773,14.21973,7.37988,18.17969,4.19824,3.95996,10.19824,5.94043,18,5.94043,9.71973,0,18.59863-3.11914,26.63965-9.36035l6.48047,15.48047c-4.08105,3.36035-9.21094,6.06055-15.39062,8.09961-6.18164,2.03906-12.3916,3.06055-18.62988,3.06055-14.40039,0-25.77051-4.07812-34.11035-12.24023-8.3418-8.15918-12.50977-19.31934-12.50977-33.48047,0-9,1.7998-16.97852,5.40039-23.93945,3.59961-6.95801,8.66797-12.3584,15.20996-16.2002,6.53906-3.83887,13.9502-5.75977,22.22949-5.75977,12.11914,0,21.69043,3.90039,28.70996,11.69922,7.02051,7.80273,10.53027,18.54004,10.53027,32.2207v6.2998Zm-53.18945-28.62012c-3.66211,3.8418-5.91211,9.36035-6.75,16.56055h40.67969c-.24219-7.31836-2.04199-12.87012-5.40039-16.65039-3.36035-3.78027-8.04102-5.66992-14.04004-5.66992-6.00195,0-10.83105,1.9209-14.48926,5.75977Z"/></g><rect class="c" width="800" height="800"/><g><path class="b" d="M620.03998,0H180.66998c-16.54999,0-29.95996,13.40997-29.95996,29.96002V469.32996c0,16.55005,13.40997,29.96002,29.95996,29.96002h439.37c16.55005,0,29.96002-13.40997,29.96002-29.96002V29.96002c0-16.55005-13.40997-29.96002-29.96002-29.96002Zm-15.42999,453.90997H196.09003V45.39001h408.51996V453.90997Z"/><polygon class="b" points="535.84003 227.31 535.84003 272.69 422.69 272.69 422.69 385.83997 377.31 385.83997 377.31 272.69 264.15997 272.69 264.15997 227.31 377.31 227.31 377.31 113.45001 422.69 113.45001 422.69 227.31 535.84003 227.31"/></g></svg>