<svg xmlns:xlink="http://www.w3.org/1999/xlink" xmlns="http://www.w3.org/2000/svg" name="h-us-l" class="css-1w03298" width="6400"  height="1024" ><defs><symbol id="icon-h-us-l" viewBox="0 0 6400 1024"><path d="M231.125 511.36L115.5 626.901 0 511.36l115.499-115.499L231.125 511.36zM511.36 230.912l197.973 198.016 115.499-115.499L511.36 0 197.973 313.43l115.499 115.498 197.973-198.016z m395.99 164.95L791.85 511.36l115.5 115.541 115.413-115.541-115.414-115.499zM511.402 791.807L313.429 593.92 197.931 709.333l313.429 313.43 313.472-313.43L709.333 593.92 511.36 791.85z m0-164.907L626.9 511.36 511.36 395.861 395.861 511.36 511.36 626.901z m1218.986 11.094v-1.622c0-75.349-39.978-113.024-104.96-137.813 39.979-22.443 73.771-57.728 73.771-120.96v-1.621c0-88.107-70.57-145.067-185.173-145.067H1253.76v560.939h266.795c126.592 0 209.92-51.243 209.92-153.899h-0.086z m-153.813-239.787c0 41.643-34.432 59.307-89.003 59.307h-113.621v-118.4h121.813c52.054 0 80.939 20.778 80.939 57.642l-0.128 1.408z m31.19 224.384c0 41.643-32.769 60.843-87.34 60.843h-146.474V560.213h142.592c63.36 0 91.307 23.296 91.307 60.971l-0.086 1.408z m381.866 169.259V230.912h-123.776v560.939h123.776z m663.381 0V230.912h-122.197v345.43l-262.912-345.43H2154.24v560.939h121.813V435.2l271.574 356.608h105.386z m683.52 0l-240.81-564.907h-113.75L2741.59 791.851h125.782l51.541-125.824h237.099l51.37 125.824h129.152z m-224.426-234.795h-149.334l74.496-181.845 74.838 181.845z m812.629 234.795V230.912h-122.197v345.43l-262.87-345.43h-113.792v560.939h121.771V435.2l271.701 356.608h105.387z m636.97-90.539l-78.506-79.36c-44.075 40.021-83.328 65.707-147.37 65.707-96.129 0-162.689-79.958-162.689-176.299v-1.579c0-96.128 68.139-174.677 162.688-174.677 56.022 0 99.883 23.979 143.36 63.275l78.336-90.539c-52.053-51.243-115.413-86.528-221.098-86.528-172.288 0-292.48 130.56-292.48 289.75v1.62c0 161.067 122.581 288.427 287.658 288.427 107.904 0.342 172.075-38.144 229.718-99.797h0.384z m526.465 90.539V681.94H4783.36V563.925h264.448V454.016H4783.36v-113.28h300.416v-109.91h-423.04v560.897l427.435 0.128zM5235.37 791.936v-84.224h73.814v84.224h-73.813z m649.26-239.701c0 163.541-93.825 248.49-234.113 248.49s-233.685-84.906-233.685-243.712V230.7h63.317v322.346c0 121.003 64.043 189.142 171.563 189.142 103.424 0 169.173-62.464 169.173-185.174V230.7h63.36l0.384 321.536z m332.458-71.424c125.099 27.264 182.87 73.002 182.87 159.829 0 97.024-79.958 159.872-191.66 159.872-89.002 0-161.962-29.952-229.802-89.899l39.765-46.762c58.539 52.906 114.603 79.36 192.427 79.36 75.35-0.256 125.312-39.424 125.312-96.342 0-52.992-28.075-82.645-145.963-107.52-129.109-28.074-188.458-69.973-188.458-162.773 0-89.941 77.824-153.856 184.448-153.856a292.565 292.565 0 0 1 197.248 68.95l-37.291 48.853c-52.139-42.496-104.192-60.971-161.963-60.971-72.917 0-119.893 39.979-119.893 91.435 0.597 53.76 29.483 83.029 152.96 109.824z" fill="#F0B90B"></path></symbol></defs><use xlink:href="#icon-h-us-l" fill="#F0B90B"></use></svg>