<?xml version="1.0" standalone="no"?>
<!DOCTYPE svg PUBLIC "-//W3C//DTD SVG 20010904//EN"
 "http://www.w3.org/TR/2001/REC-SVG-20010904/DTD/svg10.dtd">
<svg version="1.0" xmlns="http://www.w3.org/2000/svg"
 width="1024.000000pt" height="268.000000pt" viewBox="0 0 1024.000000 268.000000"
 preserveAspectRatio="xMidYMid meet">

<g transform="translate(0.000000,268.000000) scale(0.100000,-0.100000)"
fill="#000000" stroke="none">
<path d="M1325 1993 c-311 -66 -568 -320 -656 -648 -19 -70 -23 -114 -26 -351
-5 -240 -3 -276 12 -307 42 -90 157 -95 212 -10 16 23 19 60 23 263 5 253 8
268 60 295 66 34 140 9 171 -58 16 -37 19 -68 19 -264 l0 -221 25 -31 c52 -61
143 -60 189 2 20 26 21 45 26 267 5 222 6 241 26 267 58 78 164 69 209 -17 12
-23 15 -74 15 -245 0 -159 4 -224 14 -248 32 -79 137 -95 197 -31 24 25 24 28
29 267 4 216 7 245 24 270 53 78 170 74 213 -6 15 -27 19 -68 23 -268 5 -219
7 -239 25 -259 61 -68 161 -56 199 25 13 27 16 73 16 258 0 124 -5 261 -11
304 -50 367 -331 675 -681 747 -96 20 -259 19 -353 -1z"/>
<path d="M4341 1989 c-56 -18 -75 -31 -141 -97 -42 -43 -86 -90 -98 -107 l-21
-30 -1 113 0 112 -105 0 -105 0 0 -670 0 -670 110 0 110 0 0 394 c0 224 4 416
10 447 22 115 94 215 188 261 35 17 70 23 140 26 l92 4 0 113 0 113 -31 6
c-49 10 -79 6 -148 -15z"/>
<path d="M5006 1994 c-216 -48 -335 -170 -353 -361 l-6 -63 101 0 102 0 6 28
c21 102 55 152 127 189 44 23 68 28 158 31 117 5 189 -10 250 -50 95 -64 108
-249 21 -301 -19 -10 -100 -25 -229 -42 -267 -34 -296 -40 -379 -79 -94 -44
-147 -94 -185 -172 -41 -82 -51 -207 -25 -300 78 -272 413 -366 712 -199 36
21 89 59 117 86 28 27 52 49 54 49 2 0 3 -10 3 -23 0 -13 12 -48 28 -78 36
-71 87 -99 182 -99 36 0 82 5 103 11 l37 10 0 79 0 80 -61 0 c-92 0 -89 -16
-89 497 0 249 -4 443 -10 463 -29 106 -123 186 -265 228 -106 31 -298 39 -399
16z m444 -962 c-25 -95 -109 -173 -235 -222 -47 -19 -81 -24 -155 -24 -86 -1
-99 1 -142 27 -74 43 -102 87 -106 168 -5 90 21 149 87 190 57 36 89 46 221
64 153 22 260 44 300 64 l35 16 3 -123 c1 -67 -2 -140 -8 -160z"/>
<path d="M7612 1999 c-28 -5 -77 -18 -108 -29 -174 -61 -324 -241 -381 -455
-25 -97 -25 -370 0 -465 74 -278 296 -460 562 -460 261 0 443 107 549 325 19
39 38 87 41 108 l7 37 -106 0 -106 0 -11 -27 c-41 -109 -101 -176 -197 -221
-50 -24 -70 -27 -157 -27 -87 0 -107 3 -156 26 -31 15 -72 43 -92 62 -63 64
-112 192 -119 312 l-3 50 484 3 484 2 -6 123 c-14 309 -102 475 -307 575 -130
64 -245 83 -378 61z m213 -200 c129 -35 225 -166 242 -330 l6 -59 -368 0 -368
0 7 55 c17 151 114 282 244 330 45 17 182 19 237 4z"/>
<path d="M9040 1999 c-86 -14 -190 -71 -265 -144 l-65 -64 0 94 0 95 -105 0
-105 0 0 -670 0 -670 110 0 110 0 0 393 c0 215 5 423 10 460 18 126 96 233
208 285 49 23 70 27 152 27 79 -1 102 -4 137 -23 50 -26 84 -69 109 -137 17
-46 19 -92 22 -527 l3 -478 109 0 110 0 0 483 c-1 539 -5 593 -61 697 -79 149
-256 215 -479 179z"/>
<path d="M2650 1310 l0 -670 110 0 110 0 0 253 0 252 89 89 89 89 29 -45 c15
-24 109 -178 208 -341 l180 -296 143 -1 142 0 -53 83 c-261 404 -477 747 -477
755 0 6 114 121 252 256 l253 246 -140 0 -140 0 -287 -287 -288 -288 0 288 0
287 -110 0 -110 0 0 -670z"/>
<path d="M5980 1310 l0 -670 105 0 105 0 0 248 0 247 94 94 93 93 55 -88 c30
-49 124 -203 209 -341 l154 -253 138 0 c75 0 137 2 137 5 0 3 -120 193 -266
422 -243 379 -265 418 -249 429 10 7 124 119 255 248 l238 236 -139 0 -138 0
-291 -286 -290 -287 0 287 0 286 -105 0 -105 0 0 -670z"/>
</g>
</svg>
