<svg id="Layer_1" data-name="Layer 1" xmlns="http://www.w3.org/2000/svg" viewBox="0 0 800 239.97506"><path d="M234.63664,80.01841H5.332A5.333,5.333,0,0,0,0,85.35144V314.65615a5.333,5.333,0,0,0,5.332,5.33195H234.63664a5.333,5.333,0,0,0,5.333-5.33195V85.35144a5.333,5.333,0,0,0-5.333-5.333ZM159.97942,234.66585a5.333,5.333,0,0,1-5.332,5.33307H85.32222a5.33114,5.33114,0,0,1-5.332-5.33307V165.34062a5.33109,5.33109,0,0,1,5.332-5.332h69.32524a5.33292,5.33292,0,0,1,5.332,5.332Z" transform="translate(0 -80.01841)"/><path d="M714.70992,160.01723H645.3857a5.33249,5.33249,0,0,0-5.333,5.332v69.32523a5.33342,5.33342,0,0,0,5.333,5.33307h69.32422a5.33342,5.33342,0,0,0,5.333-5.33307V165.34919A5.33249,5.33249,0,0,0,714.70992,160.01723Z" transform="translate(0 -80.01841)"/><path d="M634.68752,80.02485H565.36337a5.33273,5.33273,0,0,0-5.33307,5.333V154.682a5.33342,5.33342,0,0,0,5.33307,5.333h69.32415a5.3327,5.3327,0,0,0,5.333-5.333V85.35788A5.332,5.332,0,0,0,634.68752,80.02485Z" transform="translate(0 -80.01841)"/><path d="M794.668,80.02485H725.34278a5.33273,5.33273,0,0,0-5.33307,5.333V154.682a5.33342,5.33342,0,0,0,5.33307,5.333H794.668A5.33252,5.33252,0,0,0,800,154.682V85.35788A5.33182,5.33182,0,0,0,794.668,80.02485Z" transform="translate(0 -80.01841)"/><path d="M634.68752,240.00317H565.36337a5.33253,5.33253,0,0,0-5.33307,5.332V314.6604a5.33343,5.33343,0,0,0,5.33307,5.33307h69.32415a5.33271,5.33271,0,0,0,5.333-5.33307V245.33513A5.33181,5.33181,0,0,0,634.68752,240.00317Z" transform="translate(0 -80.01841)"/><path d="M794.668,240.00317H725.34278a5.33253,5.33253,0,0,0-5.33307,5.332V314.6604a5.33343,5.33343,0,0,0,5.33307,5.33307H794.668A5.33252,5.33252,0,0,0,800,314.6604V245.33513A5.33162,5.33162,0,0,0,794.668,240.00317Z" transform="translate(0 -80.01841)"/><path d="M514.602,80.02485H445.27783a5.33273,5.33273,0,0,0-5.33307,5.333V154.682a5.33342,5.33342,0,0,0,5.33307,5.333H514.602a5.33341,5.33341,0,0,0,5.333-5.333V85.35788A5.33272,5.33272,0,0,0,514.602,80.02485Z" transform="translate(0 -80.01841)"/><path d="M514.602,240.00317H445.27783a5.33253,5.33253,0,0,0-5.33307,5.332V314.6604a5.33343,5.33343,0,0,0,5.33307,5.33307H514.602a5.33342,5.33342,0,0,0,5.333-5.33307V245.33513A5.33252,5.33252,0,0,0,514.602,240.00317Z" transform="translate(0 -80.01841)"/><path d="M439.94476,165.28063a5.33293,5.33293,0,0,0-5.33307-5.332H359.9545V85.35144a5.33293,5.33293,0,0,0-5.333-5.333H285.29731a5.33292,5.33292,0,0,0-5.333,5.333V314.53616a5.33293,5.33293,0,0,0,5.333,5.332h69.32415a5.333,5.333,0,0,0,5.333-5.332V239.9389h74.65719a5.333,5.333,0,0,0,5.33307-5.333Z" transform="translate(0 -80.01841)"/></svg>