<svg width="12" height="12" viewBox="0 0 12 12" fill="none" xmlns="http://www.w3.org/2000/svg">
<path d="M3.5 5H4.5C4.63261 5 4.75979 4.94732 4.85355 4.85355C4.94732 4.75979 5 4.63261 5 4.5C5 4.36739 4.94732 4.24021 4.85355 4.14645C4.75979 4.05268 4.63261 4 4.5 4H3.5C3.36739 4 3.24021 4.05268 3.14645 4.14645C3.05268 4.24021 3 4.36739 3 4.5C3 4.63261 3.05268 4.75979 3.14645 4.85355C3.24021 4.94732 3.36739 5 3.5 5ZM10.5 2H6.5V1.5C6.5 1.36739 6.44732 1.24021 6.35355 1.14645C6.25979 1.05268 6.13261 1 6 1C5.86739 1 5.74021 1.05268 5.64645 1.14645C5.55268 1.24021 5.5 1.36739 5.5 1.5V2H1.5C1.36739 2 1.24021 2.05268 1.14645 2.14645C1.05268 2.24021 1 2.36739 1 2.5V7.5C1 7.89782 1.15804 8.27936 1.43934 8.56066C1.72064 8.84196 2.10218 9 2.5 9H4.795L3.645 10.145C3.59814 10.1915 3.56094 10.2468 3.53555 10.3077C3.51017 10.3686 3.4971 10.434 3.4971 10.5C3.4971 10.566 3.51017 10.6314 3.53555 10.6923C3.56094 10.7532 3.59814 10.8085 3.645 10.855C3.69148 10.9019 3.74678 10.9391 3.80771 10.9644C3.86864 10.9898 3.93399 11.0029 4 11.0029C4.06601 11.0029 4.13136 10.9898 4.19229 10.9644C4.25322 10.9391 4.30852 10.9019 4.355 10.855L5.5 9.705V10.5C5.5 10.6326 5.55268 10.7598 5.64645 10.8536C5.74021 10.9473 5.86739 11 6 11C6.13261 11 6.25979 10.9473 6.35355 10.8536C6.44732 10.7598 6.5 10.6326 6.5 10.5V9.705L7.645 10.855C7.69148 10.9019 7.74678 10.9391 7.80771 10.9644C7.86864 10.9898 7.93399 11.0029 8 11.0029C8.06601 11.0029 8.13136 10.9898 8.19229 10.9644C8.25322 10.9391 8.30852 10.9019 8.355 10.855C8.40186 10.8085 8.43906 10.7532 8.46445 10.6923C8.48983 10.6314 8.5029 10.566 8.5029 10.5C8.5029 10.434 8.48983 10.3686 8.46445 10.3077C8.43906 10.2468 8.40186 10.1915 8.355 10.145L7.205 9H9.5C9.89782 9 10.2794 8.84196 10.5607 8.56066C10.842 8.27936 11 7.89782 11 7.5V2.5C11 2.36739 10.9473 2.24021 10.8536 2.14645C10.7598 2.05268 10.6326 2 10.5 2ZM10 7.5C10 7.63261 9.94732 7.75979 9.85355 7.85355C9.75979 7.94732 9.63261 8 9.5 8H2.5C2.36739 8 2.24021 7.94732 2.14645 7.85355C2.05268 7.75979 2 7.63261 2 7.5V3H10V7.5ZM3.5 7H6.5C6.63261 7 6.75979 6.94732 6.85355 6.85355C6.94732 6.75979 7 6.63261 7 6.5C7 6.36739 6.94732 6.24021 6.85355 6.14645C6.75979 6.05268 6.63261 6 6.5 6H3.5C3.36739 6 3.24021 6.05268 3.14645 6.14645C3.05268 6.24021 3 6.36739 3 6.5C3 6.63261 3.05268 6.75979 3.14645 6.85355C3.24021 6.94732 3.36739 7 3.5 7Z" fill="white"/>
</svg>
