<svg width="12" height="12" viewBox="0 0 12 12" fill="none" xmlns="http://www.w3.org/2000/svg">
<path d="M10.355 8.355L9.145 7.145C9.09852 7.09814 9.04322 7.06094 8.98229 7.03555C8.92136 7.01017 8.85601 6.9971 8.79 6.9971C8.72399 6.9971 8.65864 7.01017 8.59771 7.03555C8.53678 7.06094 8.48148 7.09814 8.435 7.145L6.645 8.935C6.59866 8.98172 6.562 9.03713 6.53711 9.09805C6.51223 9.15897 6.49962 9.2242 6.5 9.29V10.5C6.5 10.6326 6.55268 10.7598 6.64645 10.8536C6.74021 10.9473 6.86739 11 7 11H8.21C8.2758 11.0004 8.34103 10.9878 8.40195 10.9629C8.46287 10.938 8.51828 10.9013 8.565 10.855L10.355 9.065C10.4019 9.01852 10.4391 8.96322 10.4644 8.90229C10.4898 8.84136 10.5029 8.77601 10.5029 8.71C10.5029 8.64399 10.4898 8.57864 10.4644 8.51771C10.4391 8.45678 10.4019 8.40148 10.355 8.355ZM8 10H7.5V9.5L8.79 8.21L9.29 8.71L8 10ZM5 10H3C2.86739 10 2.74021 9.94732 2.64645 9.85355C2.55268 9.75979 2.5 9.63261 2.5 9.5V2.5C2.5 2.36739 2.55268 2.24021 2.64645 2.14645C2.74021 2.05268 2.86739 2 3 2H5.5V3.5C5.5 3.89782 5.65804 4.27936 5.93934 4.56066C6.22064 4.84196 6.60218 5 7 5H8.5V5.5C8.5 5.63261 8.55268 5.75979 8.64645 5.85355C8.74021 5.94732 8.86739 6 9 6C9.13261 6 9.25979 5.94732 9.35355 5.85355C9.44732 5.75979 9.5 5.63261 9.5 5.5V4.5C9.5 4.5 9.5 4.5 9.5 4.47C9.49479 4.42407 9.48474 4.37882 9.47 4.335V4.29C9.44596 4.23859 9.41389 4.19133 9.375 4.15L6.375 1.15C6.33367 1.11111 6.28641 1.07904 6.235 1.055C6.22008 1.05288 6.20493 1.05288 6.19 1.055L6.03 1H3C2.60218 1 2.22064 1.15804 1.93934 1.43934C1.65804 1.72064 1.5 2.10218 1.5 2.5V9.5C1.5 9.89782 1.65804 10.2794 1.93934 10.5607C2.22064 10.842 2.60218 11 3 11H5C5.13261 11 5.25979 10.9473 5.35355 10.8536C5.44732 10.7598 5.5 10.6326 5.5 10.5C5.5 10.3674 5.44732 10.2402 5.35355 10.1464C5.25979 10.0527 5.13261 10 5 10ZM6.5 2.705L7.795 4H7C6.86739 4 6.74021 3.94732 6.64645 3.85355C6.55268 3.75979 6.5 3.63261 6.5 3.5V2.705ZM4 7H7C7.13261 7 7.25979 6.94732 7.35355 6.85355C7.44732 6.75979 7.5 6.63261 7.5 6.5C7.5 6.36739 7.44732 6.24021 7.35355 6.14645C7.25979 6.05268 7.13261 6 7 6H4C3.86739 6 3.74021 6.05268 3.64645 6.14645C3.55268 6.24021 3.5 6.36739 3.5 6.5C3.5 6.63261 3.55268 6.75979 3.64645 6.85355C3.74021 6.94732 3.86739 7 4 7ZM4 5H4.5C4.63261 5 4.75979 4.94732 4.85355 4.85355C4.94732 4.75979 5 4.63261 5 4.5C5 4.36739 4.94732 4.24021 4.85355 4.14645C4.75979 4.05268 4.63261 4 4.5 4H4C3.86739 4 3.74021 4.05268 3.64645 4.14645C3.55268 4.24021 3.5 4.36739 3.5 4.5C3.5 4.63261 3.55268 4.75979 3.64645 4.85355C3.74021 4.94732 3.86739 5 4 5ZM5 8H4C3.86739 8 3.74021 8.05268 3.64645 8.14645C3.55268 8.24021 3.5 8.36739 3.5 8.5C3.5 8.63261 3.55268 8.75979 3.64645 8.85355C3.74021 8.94732 3.86739 9 4 9H5C5.13261 9 5.25979 8.94732 5.35355 8.85355C5.44732 8.75979 5.5 8.63261 5.5 8.5C5.5 8.36739 5.44732 8.24021 5.35355 8.14645C5.25979 8.05268 5.13261 8 5 8Z" fill="white"/>
</svg>
