<svg width="12" height="12" viewBox="0 0 12 12" fill="none" xmlns="http://www.w3.org/2000/svg">
<path d="M10.746 8.106H8.028C7.86887 8.106 7.71626 8.16921 7.60374 8.28174C7.49122 8.39426 7.428 8.54687 7.428 8.706C7.428 8.86513 7.49122 9.01774 7.60374 9.13026C7.71626 9.24279 7.86887 9.306 8.028 9.306H9.468C8.80617 9.99764 7.95264 10.4756 7.0171 10.6784C6.08155 10.8813 5.10673 10.7998 4.21787 10.4443C3.32901 10.0889 2.56672 9.47586 2.02895 8.6839C1.49119 7.89195 1.20251 6.95728 1.2 6C1.2 5.84087 1.13679 5.68826 1.02426 5.57574C0.911743 5.46321 0.75913 5.4 0.6 5.4C0.440871 5.4 0.288258 5.46321 0.175736 5.57574C0.0632145 5.68826 4.29153e-07 5.84087 4.29153e-07 6C0.00317242 7.17168 0.349333 8.31679 0.995762 9.29402C1.64219 10.2712 2.5606 11.0378 3.63765 11.4991C4.71469 11.9605 5.90324 12.0963 7.05661 11.89C8.20998 11.6836 9.2777 11.1441 10.128 10.338V11.4C10.128 11.5591 10.1912 11.7117 10.3037 11.8243C10.4163 11.9368 10.5689 12 10.728 12C10.8871 12 11.0397 11.9368 11.1523 11.8243C11.2648 11.7117 11.328 11.5591 11.328 11.4V8.7C11.3265 8.54498 11.2651 8.39655 11.1566 8.28582C11.0481 8.17509 10.901 8.11064 10.746 8.106ZM6 0C4.46183 0.00438732 2.98409 0.599348 1.872 1.662V0.6C1.872 0.44087 1.80879 0.288258 1.69626 0.175736C1.58374 0.0632141 1.43113 0 1.272 0C1.11287 0 0.960258 0.0632141 0.847736 0.175736C0.735215 0.288258 0.672 0.44087 0.672 0.6V3.3C0.672 3.45913 0.735215 3.61174 0.847736 3.72426C0.960258 3.83679 1.11287 3.9 1.272 3.9H3.972C4.13113 3.9 4.28374 3.83679 4.39626 3.72426C4.50879 3.61174 4.572 3.45913 4.572 3.3C4.572 3.14087 4.50879 2.98826 4.39626 2.87574C4.28374 2.76321 4.13113 2.7 3.972 2.7H2.532C3.19348 2.00872 4.04645 1.5309 4.98144 1.32786C5.91642 1.12483 6.89075 1.20585 7.77937 1.56052C8.66798 1.91519 9.43032 2.52733 9.96854 3.31836C10.5068 4.1094 10.7963 5.04323 10.8 6C10.8 6.15913 10.8632 6.31174 10.9757 6.42426C11.0883 6.53679 11.2409 6.6 11.4 6.6C11.5591 6.6 11.7117 6.53679 11.8243 6.42426C11.9368 6.31174 12 6.15913 12 6C12 5.21207 11.8448 4.43185 11.5433 3.7039C11.2417 2.97595 10.7998 2.31451 10.2426 1.75736C9.68549 1.20021 9.02406 0.758251 8.2961 0.456723C7.56815 0.155195 6.78793 0 6 0Z" fill="white"/>
<g clip-path="url(#clip0_151_23)">
<path d="M6.32426 5.62213H5.32426C5.19166 5.62213 5.06448 5.56945 4.97071 5.47568C4.87694 5.38192 4.82426 5.25474 4.82426 5.12213C4.82426 4.98952 4.87694 4.86235 4.97071 4.76858C5.06448 4.67481 5.19166 4.62213 5.32426 4.62213H6.57426C6.64057 4.62213 6.70416 4.64847 6.75104 4.69535C6.79793 4.74224 6.82426 4.80583 6.82426 4.87213C6.82426 4.93844 6.8506 5.00202 6.89749 5.04891C6.94437 5.09579 7.00796 5.12213 7.07426 5.12213C7.14057 5.12213 7.20416 5.09579 7.25104 5.04891C7.29793 5.00202 7.32426 4.93844 7.32426 4.87213C7.32426 4.67322 7.24525 4.48245 7.10459 4.3418C6.96394 4.20115 6.77318 4.12213 6.57426 4.12213H6.07426V3.62213C6.07426 3.55583 6.04793 3.49224 6.00104 3.44535C5.95416 3.39847 5.89057 3.37213 5.82426 3.37213C5.75796 3.37213 5.69437 3.39847 5.64749 3.44535C5.6006 3.49224 5.57426 3.55583 5.57426 3.62213V4.12213H5.32426C5.05905 4.12213 4.80469 4.22749 4.61716 4.41502C4.42962 4.60256 4.32426 4.85691 4.32426 5.12213C4.32426 5.38735 4.42962 5.6417 4.61716 5.82924C4.80469 6.01677 5.05905 6.12213 5.32426 6.12213H6.32426C6.45687 6.12213 6.58405 6.17481 6.67782 6.26858C6.77159 6.36235 6.82426 6.48952 6.82426 6.62213C6.82426 6.75474 6.77159 6.88192 6.67782 6.97569C6.58405 7.06945 6.45687 7.12213 6.32426 7.12213H5.07426C5.00796 7.12213 4.94437 7.09579 4.89749 7.04891C4.8506 7.00202 4.82426 6.93844 4.82426 6.87213C4.82426 6.80583 4.79793 6.74224 4.75104 6.69536C4.70416 6.64847 4.64057 6.62213 4.57426 6.62213C4.50796 6.62213 4.44437 6.64847 4.39749 6.69536C4.3506 6.74224 4.32426 6.80583 4.32426 6.87213C4.32426 7.07104 4.40328 7.26181 4.54393 7.40246C4.68459 7.54311 4.87535 7.62213 5.07426 7.62213H5.57426V8.12213C5.57426 8.18844 5.6006 8.25202 5.64749 8.29891C5.69437 8.34579 5.75796 8.37213 5.82426 8.37213C5.89057 8.37213 5.95416 8.34579 6.00104 8.29891C6.04793 8.25202 6.07426 8.18844 6.07426 8.12213V7.62213H6.32426C6.58948 7.62213 6.84383 7.51677 7.03137 7.32924C7.21891 7.1417 7.32426 6.88735 7.32426 6.62213C7.32426 6.35692 7.21891 6.10256 7.03137 5.91502C6.84383 5.72749 6.58948 5.62213 6.32426 5.62213Z" fill="white"/>
</g>
<defs>
<clipPath id="clip0_151_23">
<rect width="6" height="6" fill="white" transform="translate(2.82426 2.87213)"/>
</clipPath>
</defs>
</svg>
