<svg width="12" height="12" viewBox="0 0 12 12" fill="none" xmlns="http://www.w3.org/2000/svg">
<path d="M10.585 1.03C10.2266 0.968266 9.86368 0.93649 9.5 0.935C8.25918 0.933982 7.04424 1.28979 6 1.96C4.95307 1.29859 3.73833 0.951515 2.5 0.96C2.13632 0.96149 1.7734 0.993266 1.415 1.055C1.2976 1.07524 1.19129 1.13673 1.11521 1.2284C1.03912 1.32006 0.998269 1.43588 1 1.555V7.555C0.99893 7.62847 1.01406 7.70127 1.04433 7.76822C1.07459 7.83517 1.11923 7.89464 1.17509 7.94237C1.23094 7.99011 1.29663 8.02495 1.36748 8.04442C1.43833 8.06389 1.5126 8.0675 1.585 8.055C2.30151 7.93094 3.0356 7.95153 3.74403 8.11554C4.45247 8.27955 5.12091 8.58368 5.71 9.01L5.77 9.045H5.825C5.88045 9.06811 5.93993 9.08 6 9.08C6.06007 9.08 6.11955 9.06811 6.175 9.045H6.23L6.29 9.01C6.87498 8.57415 7.54151 8.26017 8.25007 8.08668C8.95864 7.91319 9.69483 7.88371 10.415 8C10.4874 8.0125 10.5617 8.00889 10.6325 7.98942C10.7034 7.96995 10.7691 7.93511 10.8249 7.88737C10.8808 7.83964 10.9254 7.78017 10.9557 7.71322C10.9859 7.64627 11.0011 7.57347 11 7.5V1.5C10.9948 1.38608 10.9508 1.27736 10.8753 1.19187C10.7998 1.10638 10.6974 1.04927 10.585 1.03ZM5.5 7.675C4.57494 7.18834 3.54526 6.93436 2.5 6.935C2.335 6.935 2.17 6.935 2 6.935V1.935C2.16653 1.9254 2.33347 1.9254 2.5 1.935C3.56669 1.93382 4.61011 2.24685 5.5 2.835V7.675ZM10 6.955C9.83 6.955 9.665 6.955 9.5 6.955C8.45474 6.95436 7.42506 7.20834 6.5 7.695V2.835C7.38989 2.24685 8.43331 1.93382 9.5 1.935C9.66653 1.9254 9.83347 1.9254 10 1.935V6.955ZM10.585 9.03C10.2266 8.96827 9.86368 8.93649 9.5 8.935C8.25918 8.93398 7.04424 9.28979 6 9.96C4.95576 9.28979 3.74082 8.93398 2.5 8.935C2.13632 8.93649 1.7734 8.96827 1.415 9.03C1.34991 9.04033 1.28751 9.06342 1.23138 9.09795C1.17525 9.13248 1.1265 9.17777 1.08793 9.2312C1.04937 9.28464 1.02174 9.34517 1.00665 9.40932C0.991561 9.47347 0.989301 9.53997 1 9.605C1.02541 9.73484 1.10125 9.84932 1.2109 9.92336C1.32055 9.9974 1.45507 10.025 1.585 10C2.30151 9.87594 3.0356 9.89653 3.74403 10.0605C4.45247 10.2246 5.12091 10.5287 5.71 10.955C5.79468 11.0153 5.89605 11.0477 6 11.0477C6.10395 11.0477 6.20532 11.0153 6.29 10.955C6.87909 10.5287 7.54754 10.2246 8.25597 10.0605C8.9644 9.89653 9.69849 9.87594 10.415 10C10.5449 10.025 10.6795 9.9974 10.7891 9.92336C10.8988 9.84932 10.9746 9.73484 11 9.605C11.0107 9.53997 11.0084 9.47347 10.9933 9.40932C10.9783 9.34517 10.9506 9.28464 10.9121 9.2312C10.8735 9.17777 10.8247 9.13248 10.7686 9.09795C10.7125 9.06342 10.6501 9.04033 10.585 9.03Z" fill="white"/>
</svg>
