<svg width="12" height="12" viewBox="0 0 12 12" fill="none" xmlns="http://www.w3.org/2000/svg">
<path d="M9 6.59V5C8.99928 4.29156 8.74788 3.60623 8.29031 3.06539C7.83274 2.52454 7.19853 2.16307 6.5 2.045V1.5C6.5 1.36739 6.44732 1.24021 6.35355 1.14645C6.25979 1.05268 6.13261 1 6 1C5.86739 1 5.74021 1.05268 5.64645 1.14645C5.55268 1.24021 5.5 1.36739 5.5 1.5V2.045C4.80147 2.16307 4.16726 2.52454 3.70969 3.06539C3.25212 3.60623 3.00072 4.29156 3 5V6.59C2.70823 6.69316 2.4555 6.88404 2.27647 7.13647C2.09744 7.3889 2.00087 7.69053 2 8V9C2 9.13261 2.05268 9.25979 2.14645 9.35355C2.24021 9.44732 2.36739 9.5 2.5 9.5H4.07C4.18514 9.92369 4.4365 10.2977 4.7853 10.5644C5.1341 10.831 5.56095 10.9755 6 10.9755C6.43905 10.9755 6.8659 10.831 7.2147 10.5644C7.5635 10.2977 7.81486 9.92369 7.93 9.5H9.5C9.63261 9.5 9.75979 9.44732 9.85355 9.35355C9.94732 9.25979 10 9.13261 10 9V8C9.99913 7.69053 9.90256 7.3889 9.72353 7.13647C9.5445 6.88404 9.29177 6.69316 9 6.59ZM4 5C4 4.46957 4.21071 3.96086 4.58579 3.58579C4.96086 3.21071 5.46957 3 6 3C6.53043 3 7.03914 3.21071 7.41421 3.58579C7.78929 3.96086 8 4.46957 8 5V6.5H4V5ZM6 10C5.82549 9.99895 5.65429 9.95224 5.50342 9.86453C5.35254 9.77681 5.22726 9.65114 5.14 9.5H6.86C6.77274 9.65114 6.64746 9.77681 6.49658 9.86453C6.34571 9.95224 6.17451 9.99895 6 10ZM9 8.5H3V8C3 7.86739 3.05268 7.74021 3.14645 7.64645C3.24021 7.55268 3.36739 7.5 3.5 7.5H8.5C8.63261 7.5 8.75979 7.55268 8.85355 7.64645C8.94732 7.74021 9 7.86739 9 8V8.5Z" fill="white"/>
</svg>
