<svg width="10" height="12" viewBox="0 0 10 12" fill="none" xmlns="http://www.w3.org/2000/svg">
<path d="M9.76875 0.989323C9.69614 0.932918 9.61129 0.892857 9.52043 0.872084C9.42958 0.851311 9.33504 0.850355 9.24375 0.869285C8.5759 1.00369 7.88646 1.00541 7.21789 0.874317C6.54933 0.743228 5.91578 0.482113 5.35625 0.107047C5.25163 0.0373485 5.12733 0 5 0C4.87267 0 4.74837 0.0373485 4.64375 0.107047C4.08422 0.482113 3.45067 0.743228 2.78211 0.874317C2.11354 1.00541 1.42411 1.00369 0.756253 0.869285C0.664965 0.850355 0.570419 0.851311 0.479566 0.872084C0.388713 0.892857 0.303863 0.932918 0.231253 0.989323C0.158741 1.04581 0.100329 1.11718 0.0603113 1.1982C0.0202934 1.27921 -0.000313869 1.3678 3.61343e-06 1.45747V5.92887C-0.000552034 6.78939 0.212987 7.63758 0.622837 8.40282C1.03269 9.16806 1.62699 9.82819 2.35625 10.3282L4.6375 11.8887C4.74335 11.9611 4.87006 12 5 12C5.12994 12 5.25665 11.9611 5.3625 11.8887L7.64375 10.3282C8.37301 9.82819 8.96731 9.16806 9.37716 8.40282C9.78701 7.63758 10.0006 6.78939 10 5.92887V1.45747C10.0003 1.3678 9.97971 1.27921 9.93969 1.1982C9.89967 1.11718 9.84126 1.04581 9.76875 0.989323ZM8.75 5.92887C8.75048 6.59793 8.58455 7.25743 8.26603 7.85248C7.94751 8.44753 7.4856 8.96093 6.91875 9.34994L5 10.6644L3.08125 9.34994C2.5144 8.96093 2.05249 8.44753 1.73397 7.85248C1.41545 7.25743 1.24952 6.59793 1.25 5.92887V2.14769C2.56027 2.25538 3.87253 1.96344 5 1.31342C6.12747 1.96344 7.43973 2.25538 8.75 2.14769V5.92887ZM5.9625 4.55444L4.28125 6.17495L3.725 5.63478C3.60731 5.52176 3.44769 5.45827 3.28125 5.45827C3.11481 5.45827 2.95519 5.52176 2.8375 5.63478C2.71981 5.74779 2.65369 5.90108 2.65369 6.06091C2.65369 6.22074 2.71981 6.37403 2.8375 6.48704L3.8375 7.44734C3.8956 7.5036 3.96473 7.54825 4.04089 7.57872C4.11705 7.60919 4.19874 7.62488 4.28125 7.62488C4.36376 7.62488 4.44545 7.60919 4.52161 7.57872C4.59777 7.54825 4.6669 7.5036 4.725 7.44734L6.875 5.4007C6.99269 5.28769 7.05881 5.1344 7.05881 4.97457C7.05881 4.81474 6.99269 4.66145 6.875 4.54844C6.75731 4.43542 6.59769 4.37193 6.43125 4.37193C6.26481 4.37193 6.10519 4.43542 5.9875 4.54844L5.9625 4.55444Z" fill="white"/>
</svg>
