<svg width="12" height="12" viewBox="0 0 12 12" fill="none" xmlns="http://www.w3.org/2000/svg">
<path d="M6.5 8H3.5C3.3674 8 3.24022 8.05268 3.14645 8.14645C3.05268 8.24022 3 8.3674 3 8.5C3 8.63261 3.05268 8.75979 3.14645 8.85356C3.24022 8.94733 3.3674 9 3.5 9H6.5C6.63261 9 6.75979 8.94733 6.85356 8.85356C6.94733 8.75979 7 8.63261 7 8.5C7 8.3674 6.94733 8.24022 6.85356 8.14645C6.75979 8.05268 6.63261 8 6.5 8ZM4.5 5H5.5C5.63261 5 5.75979 4.94732 5.85356 4.85356C5.94733 4.75979 6 4.63261 6 4.5C6 4.3674 5.94733 4.24022 5.85356 4.14645C5.75979 4.05268 5.63261 4 5.5 4H4.5C4.3674 4 4.24022 4.05268 4.14645 4.14645C4.05268 4.24022 4 4.3674 4 4.5C4 4.63261 4.05268 4.75979 4.14645 4.85356C4.24022 4.94732 4.3674 5 4.5 5ZM10.5 6H9V1.5C9.00035 1.4119 8.97742 1.32527 8.93351 1.24888C8.88961 1.17249 8.82631 1.10906 8.75 1.065C8.67399 1.02112 8.58777 0.998016 8.5 0.998016C8.41224 0.998016 8.32601 1.02112 8.25 1.065L6.75 1.925L5.25 1.065C5.17399 1.02112 5.08777 0.998016 5 0.998016C4.91224 0.998016 4.82601 1.02112 4.75 1.065L3.25 1.925L1.75 1.065C1.67399 1.02112 1.58777 0.998016 1.5 0.998016C1.41224 0.998016 1.32601 1.02112 1.25 1.065C1.1737 1.10906 1.11039 1.17249 1.06649 1.24888C1.02259 1.32527 0.999654 1.4119 1 1.5V9.5C1 9.89783 1.15804 10.2794 1.43934 10.5607C1.72065 10.842 2.10218 11 2.5 11H9.5C9.89783 11 10.2794 10.842 10.5607 10.5607C10.842 10.2794 11 9.89783 11 9.5V6.5C11 6.3674 10.9473 6.24022 10.8536 6.14645C10.7598 6.05268 10.6326 6 10.5 6ZM2.5 10C2.3674 10 2.24022 9.94733 2.14645 9.85356C2.05268 9.75979 2 9.63261 2 9.5V2.365L3 2.935C3.07717 2.97531 3.16294 2.99636 3.25 2.99636C3.33706 2.99636 3.42284 2.97531 3.5 2.935L5 2.075L6.5 2.935C6.57717 2.97531 6.66294 2.99636 6.75 2.99636C6.83706 2.99636 6.92283 2.97531 7 2.935L8 2.365V9.5C8.00136 9.67058 8.03179 9.83967 8.09 10H2.5ZM10 9.5C10 9.63261 9.94733 9.75979 9.85356 9.85356C9.75979 9.94733 9.63261 10 9.5 10C9.3674 10 9.24022 9.94733 9.14645 9.85356C9.05268 9.75979 9 9.63261 9 9.5V7H10V9.5ZM6.5 6H3.5C3.3674 6 3.24022 6.05268 3.14645 6.14645C3.05268 6.24022 3 6.3674 3 6.5C3 6.63261 3.05268 6.75979 3.14645 6.85356C3.24022 6.94733 3.3674 7 3.5 7H6.5C6.63261 7 6.75979 6.94733 6.85356 6.85356C6.94733 6.75979 7 6.63261 7 6.5C7 6.3674 6.94733 6.24022 6.85356 6.14645C6.75979 6.05268 6.63261 6 6.5 6Z" fill="white"/>
</svg>
