<?xml version="1.0" standalone="no"?>
<!DOCTYPE svg PUBLIC "-//W3C//DTD SVG 20010904//EN"
 "http://www.w3.org/TR/2001/REC-SVG-20010904/DTD/svg10.dtd">
<svg version="1.0" xmlns="http://www.w3.org/2000/svg"
 width="2000.000000pt" height="333.000000pt" viewBox="0 0 2000.000000 333.000000"
 preserveAspectRatio="xMidYMid meet">

<g transform="translate(0.000000,333.000000) scale(0.100000,-0.100000)"
fill="#fff" stroke="none">
<path d="M167 3314 c-67 -21 -131 -86 -151 -155 -23 -77 -23 -691 0 -768 19
-66 70 -122 134 -150 50 -21 56 -22 628 -19 569 3 578 3 617 25 47 25 85 64
111 113 18 32 19 63 19 410 l0 376 -26 49 c-32 62 -93 110 -159 124 -34 7
-235 11 -588 10 -445 0 -545 -3 -585 -15z"/>
<path d="M1971 3315 c-52 -16 -116 -75 -142 -130 -18 -38 -19 -81 -19 -828 0
-780 0 -788 21 -832 24 -51 73 -98 126 -120 54 -23 1166 -22 1221 1 52 21 100
70 128 129 l24 50 0 761 c0 862 2 832 -75 909 -75 76 -71 75 -694 74 -433 0
-555 -3 -590 -14z"/>
<path d="M8505 2917 c-3 -7 -4 -118 -3 -247 l3 -235 275 0 275 0 0 245 0 245
-273 3 c-215 2 -274 0 -277 -11z"/>
<path d="M5182 2868 c-458 -58 -796 -328 -936 -748 -47 -140 -66 -255 -73
-430 -19 -528 193 -948 587 -1158 94 -51 224 -96 337 -119 124 -25 433 -25
556 0 206 41 391 123 520 231 l28 23 -85 189 c-47 104 -90 188 -94 187 -4 -1
-33 -18 -63 -38 -92 -63 -228 -126 -328 -153 -124 -33 -338 -37 -440 -8 -311
86 -470 354 -470 791 0 375 119 627 351 746 132 67 368 83 549 36 115 -30 220
-77 321 -143 40 -27 77 -49 81 -49 5 0 46 83 92 185 l84 185 -22 23 c-33 36
-146 108 -220 141 -88 39 -204 76 -308 96 -99 20 -360 27 -467 13z"/>
<path d="M11520 1635 l0 -1215 270 0 270 0 0 455 0 455 318 0 c174 1 344 3
377 6 316 30 555 183 655 420 79 189 79 479 0 668 -74 176 -227 310 -431 375
-136 44 -210 49 -851 50 l-608 1 0 -1215z m1233 774 c91 -29 158 -88 188 -167
26 -66 31 -210 11 -278 -28 -94 -103 -167 -206 -201 -42 -14 -106 -17 -368
-21 l-318 -3 0 348 0 348 312 -2 c290 -2 318 -4 381 -24z"/>
<path d="M19480 1635 l0 -1215 260 0 260 0 0 1215 0 1215 -260 0 -260 0 0
-1215z"/>
<path d="M7101 2135 c-416 -78 -664 -367 -688 -800 -10 -187 19 -343 91 -490
83 -167 188 -271 361 -355 157 -77 282 -101 485 -95 261 8 476 97 627 259 145
155 223 369 223 612 0 441 -220 746 -615 854 -103 29 -371 37 -484 15z m361
-408 c74 -33 119 -76 157 -146 42 -80 61 -172 61 -306 0 -242 -67 -386 -210
-454 -48 -22 -68 -26 -155 -26 -125 0 -185 19 -254 81 -90 81 -131 205 -131
399 0 277 94 435 284 475 71 16 189 5 248 -23z"/>
<path d="M10304 2130 c-131 -34 -249 -108 -324 -203 l-40 -50 0 117 0 116
-255 0 -255 0 0 -845 0 -845 265 0 264 0 3 538 c3 526 3 538 25 584 64 139
205 215 365 197 76 -8 127 -36 164 -91 51 -75 54 -112 54 -695 l0 -533 260 0
261 0 -4 612 c-3 595 -4 615 -25 697 -60 227 -193 363 -397 406 -99 21 -273
18 -361 -5z"/>
<path d="M14250 2134 c-188 -35 -520 -160 -520 -196 0 -17 118 -320 129 -331
5 -5 31 3 59 17 79 40 193 83 284 108 108 28 332 32 388 6 81 -38 116 -100
126 -226 l7 -82 -99 -1 c-54 -1 -102 -1 -106 0 -3 0 -71 -4 -150 -10 -482 -34
-670 -143 -708 -408 -39 -274 134 -519 421 -597 80 -22 263 -25 334 -5 113 32
207 96 264 183 l41 60 0 -116 0 -116 246 0 245 0 -4 603 c-3 532 -5 610 -21
667 -61 230 -201 370 -431 431 -109 29 -380 36 -505 13z m467 -1038 c-9 -104
-40 -180 -99 -242 -66 -70 -130 -97 -228 -98 -65 -1 -81 3 -123 27 -64 38 -97
90 -104 164 -4 47 -1 67 15 100 45 88 152 119 416 122 l129 1 -6 -74z"/>
<path d="M16490 2134 c-111 -23 -225 -87 -307 -170 l-73 -74 0 110 0 110 -255
0 -255 0 0 -845 0 -845 260 0 259 0 3 528 c3 466 5 532 20 570 58 145 174 223
333 224 121 0 196 -48 237 -151 23 -55 23 -63 26 -613 l3 -558 260 0 259 0 0
538 c0 537 -6 672 -36 785 -54 208 -196 351 -391 392 -85 18 -257 18 -343 -1z"/>
<path d="M18250 2143 c-393 -66 -660 -381 -687 -809 -16 -260 59 -502 207
-667 242 -269 711 -351 1129 -198 83 30 207 97 228 123 8 10 -5 53 -51 168
-34 85 -65 163 -69 172 -5 15 -12 13 -59 -17 -157 -104 -381 -152 -563 -120
-159 28 -251 113 -299 274 -9 30 -16 65 -16 78 l0 23 552 0 551 0 -6 144 c-13
291 -80 476 -229 628 -141 145 -312 209 -546 207 -64 -1 -128 -4 -142 -6z
m305 -380 c93 -49 148 -143 169 -290 l6 -43 -331 0 -332 0 7 41 c10 64 43 150
75 194 31 44 106 100 155 115 55 17 206 7 251 -17z"/>
<path d="M8510 1265 l0 -845 265 0 265 0 0 845 0 845 -265 0 -265 0 0 -845z"/>
<path d="M145 1917 c-64 -30 -110 -83 -130 -149 -23 -78 -23 -1518 1 -1597 19
-66 70 -122 134 -150 50 -21 56 -22 628 -19 569 3 578 3 617 25 47 25 85 64
111 113 18 33 19 73 19 830 0 757 -1 797 -19 830 -26 49 -64 88 -111 113 -39
22 -47 22 -620 25 l-580 2 -50 -23z"/>
<path d="M1971 1095 c-52 -16 -116 -75 -142 -130 -17 -37 -19 -70 -19 -410 0
-351 1 -372 21 -415 27 -60 54 -88 114 -116 l50 -24 570 0 570 0 50 24 c60 28
97 66 124 126 19 42 20 67 21 390 1 401 -3 423 -75 495 -75 76 -71 75 -694 74
-433 0 -555 -3 -590 -14z"/>
</g>
</svg>
