<svg xmlns="http://www.w3.org/2000/svg" viewBox="0 0 800 800"><defs><style>.cls-1{fill:#7f7f7f;}.cls-2{fill:none;}.cls-3{fill:#fff;}.cls-4{fill:#1652f1;}</style></defs><g id="White"><path class="cls-1" d="M127.669,755.89384l-12.78028-29.7002H53.14893l-12.78028,29.7002H16.96875L74.38867,628.99345h18.8999L150.709,755.89384Zm-66.96-47.7002h46.43995l-23.22022-54Z"/><path class="cls-1" d="M236.92676,674.71415q7.7373,9.00293,7.74023,27.17969v54h-22.5V703.1536q0-10.25976-3.87011-14.93945-3.87306-4.67871-12.14991-4.68066-9.72,0-15.57031,6.12011-5.85132,6.12159-5.84961,16.37989v49.86035h-22.5V667.87431h21.96V681.014a30.43824,30.43824,0,0,1,12.06006-11.33985,36.3019,36.3019,0,0,1,17.09961-3.96Q229.18385,665.71415,236.92676,674.71415Z"/><path class="cls-1" d="M332.86523,674.71415q8.99855,9.00293,9,27.71973v53.46H320.44531v-13.5a23.4977,23.4977,0,0,1-9.62988,10.98047,28.91345,28.91345,0,0,1-15.21045,3.96,35.31791,35.31791,0,0,1-16.02-3.60059,28.4656,28.4656,0,0,1-11.33984-9.89941,24.99953,24.99953,0,0,1-4.14014-14.04q0-9.7207,4.9502-15.30078,4.949-5.57667,16.10986-8.09961,11.15918-2.51806,30.78027-2.51953h4.5v-4.14063q0-8.99853-3.87011-12.96-3.87306-3.95654-12.87012-3.96a48.43938,48.43938,0,0,0-14.66992,2.42969,74.12407,74.12407,0,0,0-15.02979,6.75L267.70508,676.514a77.15325,77.15325,0,0,1,37.62012-10.79981Q323.86207,665.71415,332.86523,674.71415ZM314.77539,735.1038q5.66968-6.02784,5.66992-15.57031v-3.7793h-3.24023a124.0443,124.0443,0,0,0-18.71973,1.08008q-6.66138,1.07958-9.54,3.77929a9.62325,9.62325,0,0,0-2.87988,7.37989,12.33361,12.33361,0,0,0,3.96,9.45019,14.19249,14.19249,0,0,0,10.07959,3.69043A19.223,19.223,0,0,0,314.77539,735.1038Z"/><path class="cls-1" d="M364.72412,755.89384V628.99345h22.5V755.89384Z"/><path class="cls-1" d="M472.18359,668.054h22.14063L441.4043,788.29423H418.72461l16.01953-35.82031L398.02344,668.054H421.7832l24.83985,62.09961Z"/><path class="cls-1" d="M560.73828,739.87431l-1.08008,16.73925q-5.40087.54054-9.90039.54-18.542,0-27.36035-8.5498-8.82129-8.54736-8.81934-25.46973V684.79423H496.6582V667.87431h16.91992V641.594h22.5v26.28028h23.21973v16.91992H536.07812v37.97949q0,17.64258,16.37989,17.63965A66.975,66.975,0,0,0,560.73828,739.87431Z"/><path class="cls-1" d="M572.61621,627.014h24.83984V649.1536H572.61621ZM573.876,755.89384V667.87431h22.5v88.01953Z"/><path class="cls-1" d="M635.70508,751.75419a37.73244,37.73244,0,0,1-15.56934-15.84082q-5.40087-10.25976-5.40039-23.93945a50.28015,50.28015,0,0,1,5.66992-24.21,39.75384,39.75384,0,0,1,16.11035-16.29q10.437-5.75831,24.12012-5.75977a57.396,57.396,0,0,1,18.26953,2.96973,38.50642,38.50642,0,0,1,14.31055,8.00976l-6.48047,15.83985a42.8697,42.8697,0,0,0-11.79-6.83985,34.83718,34.83718,0,0,0-12.33008-2.33984q-11.70263,0-18.17968,7.29-6.48048,7.29053-6.48047,20.96972,0,13.5,6.48047,20.79,6.48046,7.29054,18.17968,7.29a34.77209,34.77209,0,0,0,12.33008-2.33984,42.698,42.698,0,0,0,11.79-6.83984l6.48047,15.66015a40.58619,40.58619,0,0,1-14.76074,8.18945,59.33586,59.33586,0,0,1-18.71973,2.97071Q645.87207,757.33427,635.70508,751.75419Z"/><path class="cls-1" d="M718.32422,754.45341a48.61128,48.61128,0,0,1-16.64942-8.2793l6.29981-15.66015a53.18556,53.18556,0,0,0,32.21973,10.25976q7.7373,0,11.79-2.51953a8.00621,8.00621,0,0,0,4.0498-7.2002,7.292,7.292,0,0,0-2.79-6.12011q-2.792-2.16064-9.99023-3.96l-14.39942-3.24024q-12.24317-2.6997-18.17969-8.82031-5.93994-6.1172-5.94042-15.83984a23.43863,23.43863,0,0,1,4.58984-14.30957,29.641,29.641,0,0,1,12.78027-9.62989,49.00823,49.00823,0,0,1,18.99024-3.41992,57.44862,57.44862,0,0,1,18.08984,2.87988,50.2507,50.2507,0,0,1,15.38965,8.09961l-6.29981,15.29981q-13.68163-9.89649-27.36035-9.89942-7.3828,0-11.51953,2.7002a8.53576,8.53576,0,0,0-4.14062,7.55957,7.62043,7.62043,0,0,0,2.61035,5.94043q2.60742,2.34082,8.37012,3.59961l14.94042,3.41992q13.13673,2.88135,19.25977,9.08984,6.11719,6.21094,6.12012,16.29a22.80949,22.80949,0,0,1-9.90039,19.44043q-9.90089,7.20117-26.82032,7.2002A76.15492,76.15492,0,0,1,718.32422,754.45341Z"/><rect class="cls-2" width="800" height="800"/><path class="cls-3" d="M150.709,29.96017V469.33083A29.96013,29.96013,0,0,0,180.6691,499.291H620.03986A29.96014,29.96014,0,0,0,650,469.33086V29.96017A29.96016,29.96016,0,0,0,620.03989,0H180.66913A29.96015,29.96015,0,0,0,150.709,29.96015Zm45.38556,15.42538H604.61446V158.5249L512.4154,250.724a81.58005,81.58005,0,0,0-81.10486,1.27819l-33.3127-33.3127a81.70744,81.70744,0,1,0-141.31934-1.388l-60.584,60.584ZM469.02261,286.1539a36.31678,36.31678,0,1,1-32.15972,32.15938A36.31684,36.31684,0,0,1,469.02261,286.1539ZM291.50448,174.66434a36.45543,36.45543,0,1,1,.13058,6.00916A36.31685,36.31685,0,0,1,291.50448,174.66434ZM604.61443,453.90547H196.09454V342.07425l93.03788-93.04787a81.64769,81.64769,0,0,0,75.77241.75892l35.31984,35.31985a81.70537,81.70537,0,1,0,144.27511-2.28676l60.11465-60.11463Z"/></g><g id="Blue"><path class="cls-4" d="M127.669,755.89384l-12.78028-29.7002H53.14893l-12.78028,29.7002H16.96875L74.38867,628.99345h18.8999L150.709,755.89384Zm-66.96-47.7002h46.43995l-23.22022-54Z"/><path class="cls-4" d="M236.92676,674.71415q7.7373,9.00293,7.74023,27.17969v54h-22.5V703.1536q0-10.25976-3.87011-14.93945-3.87306-4.67871-12.14991-4.68066-9.72,0-15.57031,6.12011-5.85132,6.12159-5.84961,16.37989v49.86035h-22.5V667.87431h21.96V681.014a30.43824,30.43824,0,0,1,12.06006-11.33985,36.3019,36.3019,0,0,1,17.09961-3.96Q229.18385,665.71415,236.92676,674.71415Z"/><path class="cls-4" d="M332.86523,674.71415q8.99855,9.00293,9,27.71973v53.46H320.44531v-13.5a23.4977,23.4977,0,0,1-9.62988,10.98047,28.91345,28.91345,0,0,1-15.21045,3.96,35.31791,35.31791,0,0,1-16.02-3.60059,28.4656,28.4656,0,0,1-11.33984-9.89941,24.99953,24.99953,0,0,1-4.14014-14.04q0-9.7207,4.9502-15.30078,4.949-5.57667,16.10986-8.09961,11.15918-2.51806,30.78027-2.51953h4.5v-4.14063q0-8.99853-3.87011-12.96-3.87306-3.95654-12.87012-3.96a48.43938,48.43938,0,0,0-14.66992,2.42969,74.12407,74.12407,0,0,0-15.02979,6.75L267.70508,676.514a77.15325,77.15325,0,0,1,37.62012-10.79981Q323.86207,665.71415,332.86523,674.71415ZM314.77539,735.1038q5.66968-6.02784,5.66992-15.57031v-3.7793h-3.24023a124.0443,124.0443,0,0,0-18.71973,1.08008q-6.66138,1.07958-9.54,3.77929a9.62325,9.62325,0,0,0-2.87988,7.37989,12.33361,12.33361,0,0,0,3.96,9.45019,14.19249,14.19249,0,0,0,10.07959,3.69043A19.223,19.223,0,0,0,314.77539,735.1038Z"/><path class="cls-4" d="M364.72412,755.89384V628.99345h22.5V755.89384Z"/><path class="cls-4" d="M472.18359,668.054h22.14063L441.4043,788.29423H418.72461l16.01953-35.82031L398.02344,668.054H421.7832l24.83985,62.09961Z"/><path class="cls-4" d="M560.73828,739.87431l-1.08008,16.73925q-5.40087.54054-9.90039.54-18.542,0-27.36035-8.5498-8.82129-8.54736-8.81934-25.46973V684.79423H496.6582V667.87431h16.91992V641.594h22.5v26.28028h23.21973v16.91992H536.07812v37.97949q0,17.64258,16.37989,17.63965A66.975,66.975,0,0,0,560.73828,739.87431Z"/><path class="cls-4" d="M572.61621,627.014h24.83984V649.1536H572.61621ZM573.876,755.89384V667.87431h22.5v88.01953Z"/><path class="cls-4" d="M635.70508,751.75419a37.73244,37.73244,0,0,1-15.56934-15.84082q-5.40087-10.25976-5.40039-23.93945a50.28015,50.28015,0,0,1,5.66992-24.21,39.75384,39.75384,0,0,1,16.11035-16.29q10.437-5.75831,24.12012-5.75977a57.396,57.396,0,0,1,18.26953,2.96973,38.50642,38.50642,0,0,1,14.31055,8.00976l-6.48047,15.83985a42.8697,42.8697,0,0,0-11.79-6.83985,34.83718,34.83718,0,0,0-12.33008-2.33984q-11.70263,0-18.17968,7.29-6.48048,7.29053-6.48047,20.96972,0,13.5,6.48047,20.79,6.48046,7.29054,18.17968,7.29a34.77209,34.77209,0,0,0,12.33008-2.33984,42.698,42.698,0,0,0,11.79-6.83984l6.48047,15.66015a40.58619,40.58619,0,0,1-14.76074,8.18945,59.33586,59.33586,0,0,1-18.71973,2.97071Q645.87207,757.33427,635.70508,751.75419Z"/><path class="cls-4" d="M718.32422,754.45341a48.61128,48.61128,0,0,1-16.64942-8.2793l6.29981-15.66015a53.18556,53.18556,0,0,0,32.21973,10.25976q7.7373,0,11.79-2.51953a8.00621,8.00621,0,0,0,4.0498-7.2002,7.292,7.292,0,0,0-2.79-6.12011q-2.792-2.16064-9.99023-3.96l-14.39942-3.24024q-12.24317-2.6997-18.17969-8.82031-5.93994-6.1172-5.94042-15.83984a23.43863,23.43863,0,0,1,4.58984-14.30957,29.641,29.641,0,0,1,12.78027-9.62989,49.00823,49.00823,0,0,1,18.99024-3.41992,57.44862,57.44862,0,0,1,18.08984,2.87988,50.2507,50.2507,0,0,1,15.38965,8.09961l-6.29981,15.29981q-13.68163-9.89649-27.36035-9.89942-7.3828,0-11.51953,2.7002a8.53576,8.53576,0,0,0-4.14062,7.55957,7.62043,7.62043,0,0,0,2.61035,5.94043q2.60742,2.34082,8.37012,3.59961l14.94042,3.41992q13.13673,2.88135,19.25977,9.08984,6.11719,6.21094,6.12012,16.29a22.80949,22.80949,0,0,1-9.90039,19.44043q-9.90089,7.20117-26.82032,7.2002A76.15492,76.15492,0,0,1,718.32422,754.45341Z"/><rect class="cls-2" width="800" height="800"/><path class="cls-4" d="M150.709,29.96017V469.33083A29.96013,29.96013,0,0,0,180.6691,499.291H620.03986A29.96014,29.96014,0,0,0,650,469.33086V29.96017A29.96016,29.96016,0,0,0,620.03989,0H180.66913A29.96015,29.96015,0,0,0,150.709,29.96015Zm45.38556,15.42538H604.61446V158.5249L512.4154,250.724a81.58005,81.58005,0,0,0-81.10486,1.27819l-33.3127-33.3127a81.70744,81.70744,0,1,0-141.31934-1.388l-60.584,60.584ZM469.02261,286.1539a36.31678,36.31678,0,1,1-32.15972,32.15938A36.31684,36.31684,0,0,1,469.02261,286.1539ZM291.50448,174.66434a36.45543,36.45543,0,1,1,.13058,6.00916A36.31685,36.31685,0,0,1,291.50448,174.66434ZM604.61443,453.90547H196.09454V342.07425l93.03788-93.04787a81.64769,81.64769,0,0,0,75.77241.75892l35.31984,35.31985a81.70537,81.70537,0,1,0,144.27511-2.28676l60.11465-60.11463Z"/></g></svg>