<svg id="Black" xmlns="http://www.w3.org/2000/svg" viewBox="0 0 800 800"><defs><style>.cls-1{fill:#7f7f7f;}.cls-2{fill:none;}</style></defs><path class="cls-1" d="M254.47314,628.94494h22.68018V755.84437H254.47314V700.76471h-64.98v55.07966H166.6333V628.94494h22.85986v53.10018h64.98Z"/><path class="cls-1" d="M319.00146,751.70475a38.58306,38.58306,0,0,1-15.75-16.02039q-5.58105-10.43692-5.58007-24.29962,0-13.85877,5.58007-24.20977a38.7341,38.7341,0,0,1,15.75-15.92957q10.16749-5.57808,23.66993-5.58,13.5,0,23.66992,5.58A38.20366,38.20366,0,0,1,382.00146,687.175q5.48877,10.352,5.49024,24.20977,0,13.86318-5.49024,24.29962a38.05985,38.05985,0,0,1-15.66015,16.02039q-10.17114,5.581-23.66992,5.58Q329.17139,757.28479,319.00146,751.70475Zm40.23-19.07993q5.759-7.19819,5.76025-21.24008,0-13.85877-5.76025-21.15023-5.7627-7.289-16.56006-7.29-10.79956,0-16.64991,7.29-5.85131,7.29048-5.85009,21.15023,0,14.04042,5.76025,21.24008,5.7583,7.20111,16.56006,7.20014Q353.46851,739.825,359.23145,732.62482Z"/><path class="cls-1" d="M532.93066,674.57545q7.3799,8.90911,7.38086,27.26933v53.99959h-22.5V702.74516q0-10.07951-3.4209-14.66981-3.4204-4.59078-10.97949-4.59079-9.00293,0-14.04,6.12008-5.042,6.12153-5.04,17.10045v49.13928h-22.5V702.74516q0-10.07951-3.33007-14.66981-3.33252-4.59078-11.07032-4.59079-8.82129,0-13.85937,6.12008-5.042,6.12153-5.04,17.10045v49.13928h-22.5V667.8255h21.96v12.41983a26.31186,26.31186,0,0,1,10.97949-10.89054,33.93607,33.93607,0,0,1,16.02051-3.68943q19.98046,0,26.46,16.55945a30.0678,30.0678,0,0,1,11.87988-12.14932,34.27949,34.27949,0,0,1,17.28028-4.41013Q525.5498,665.66536,532.93066,674.57545Z"/><path class="cls-1" d="M640.38867,715.88471H580.44922q1.0796,12.24307,7.37988,18.17955,6.29736,5.93989,18,5.94038a42.43885,42.43885,0,0,0,26.63965-9.36028l6.48047,15.48035a47.23929,47.23929,0,0,1-15.39063,8.09955,59.15373,59.15373,0,0,1-18.62988,3.06053q-21.60059,0-34.11035-12.24014-12.5127-12.23868-12.50977-33.48022a51.35841,51.35841,0,0,1,5.40039-23.93927,39.27349,39.27349,0,0,1,15.21-16.20007,43.08468,43.08468,0,0,1,22.22949-5.75973q18.17871,0,28.71,11.69913,10.53077,11.704,10.53027,32.22046Zm-53.18945-28.6199q-5.49316,5.76265-6.75,16.56042h40.67969q-.36329-10.97745-5.40039-16.65026-5.04054-5.67038-14.04-5.66988Q592.68554,681.50509,587.19922,687.26481Z"/><rect class="cls-2" y="0.00606" width="800" height="799.99394"/><path d="M240.85608,179.49119V90.84109h-45.45v88.6501h-40.411a5.0402,5.0402,0,0,0-5.039,5.04135V448.98415a5.04019,5.04019,0,0,0,5.039,5.04134h40.411v45.97072h45.45V454.02546H281.277a5.0402,5.0402,0,0,0,5.03906-5.04134h0V184.53254a5.0402,5.0402,0,0,0-5.03906-5.04135h-40.4209Zm0,229.0637h-45.45V224.96178h45.45Z"/><path d="M422.67608,45.37057V0h-45.45V45.37057H336.77254a5.0076,5.0076,0,0,0-5.00647,5.00871V397.40452a5.00759,5.00759,0,0,0,5.00646,5.00872h40.45355v49.011h45.45v-49.011h40.44354a5.00761,5.00761,0,0,0,5.00647-5.00872h0V50.3793a5.00758,5.00758,0,0,0-5.00644-5.00873H422.67608Zm0,311.5721h-45.46V90.84109h45.46Z"/><path d="M604.49608,90.89608V45.30551h-45.45V90.89608H518.6054a5.02043,5.02043,0,0,0-5.01932,5.02158V313.58255a5.02043,5.02043,0,0,0,5.01932,5.02157h40.44067V451.42425h45.45V318.60412h40.44071a5.02043,5.02043,0,0,0,5.01928-5.02157V95.91766a5.02043,5.02043,0,0,0-5.01928-5.02158H604.49608Zm0,182.23753h-45.45V136.37668h45.45Z"/><rect x="377.21608" y="90.84109" width="0.01001" height="266.10158"/></svg>