<svg id="White" xmlns="http://www.w3.org/2000/svg" viewBox="0 0 800 800"><defs><style>.cls-1{fill:none;}.cls-2{fill:#fff;}.cls-3{fill:#7f7f7f;}</style></defs><rect class="cls-1" width="800" height="800"/><path class="cls-2" d="M279.424,500H153.27122a5.104,5.104,0,0,1-5.10405-5.104V142.08041a5.104,5.104,0,0,1,5.10405-5.10405H279.424a5.104,5.104,0,0,1,5.104,5.10405V494.896A5.104,5.104,0,0,1,279.424,500Zm-85.80322-45.45455h45.45364V182.43091H193.62081Z"/><path class="cls-2" d="M643.06312,499.99545H516.91031a5.10406,5.10406,0,0,1-5.104-5.10405V272.48951a5.10406,5.10406,0,0,1,5.104-5.10406H643.06312a5.10406,5.10406,0,0,1,5.10405,5.10406V494.8914A5.104,5.104,0,0,1,643.06312,499.99545ZM557.2599,454.54091h45.45364V312.84H557.2599Z"/><path class="cls-2" d="M461.23949,499.99818H335.08668a5.104,5.104,0,0,1-5.10405-5.104V5.10405A5.104,5.104,0,0,1,335.08668,0H461.23949a5.104,5.104,0,0,1,5.10405,5.10405V494.89413A5.104,5.104,0,0,1,461.23949,499.99818Zm-85.80323-45.45454H420.8899V45.45455H375.43626Z"/><path class="cls-3" d="M224.46386,628.99023H242.644V755.89062h-20.52V672.01074l-33.48,63.36035h-15.48L139.5039,672.91016l.18018,82.98046h-20.52V628.99023h18.35986L181.084,711.9707Z"/><path class="cls-3" d="M333.542,674.71094q8.99853,9.00292,9,27.71972v53.46H321.12207v-13.5a23.49773,23.49773,0,0,1-9.62989,10.98047,28.91333,28.91333,0,0,1-15.21045,3.96,35.318,35.318,0,0,1-16.02-3.60058,28.46558,28.46558,0,0,1-11.33985-9.89942,24.99947,24.99947,0,0,1-4.14014-14.04q0-9.7207,4.9502-15.30079,4.949-5.57665,16.10986-8.09961,11.15919-2.51807,30.78028-2.51953h4.5v-4.14062q0-8.99853-3.87012-12.96-3.873-3.95655-12.87012-3.96a48.43936,48.43936,0,0,0-14.66992,2.42968,74.12485,74.12485,0,0,0-15.02978,6.75l-6.3003-15.47949a77.15338,77.15338,0,0,1,37.62012-10.7998Q324.53882,665.71094,333.542,674.71094Zm-18.08985,60.38965q5.66968-6.02784,5.66993-15.57032V715.751h-3.24024a124.04573,124.04573,0,0,0-18.71972,1.08007q-6.66138,1.0796-9.54,3.7793a9.62324,9.62324,0,0,0-2.87989,7.37988,12.33361,12.33361,0,0,0,3.96,9.4502,14.19251,14.19251,0,0,0,10.07959,3.69043A19.223,19.223,0,0,0,315.45214,735.10059Z"/><path class="cls-3" d="M423.36084,684.43066l-13.14014,1.25977q-22.32129,2.34228-22.31982,22.68066v47.51953h-22.5V667.87109H386.8208v15.4795q6.83862-15.83643,28.25976-17.28028l6.84033-.54Z"/><path class="cls-3" d="M522.54,755.89062h-27.9004L456.83984,715.751v40.13964h-22.5V628.99023h22.5v77.40039l35.46-38.33984h27.35938L480.05957,710.1709Z"/><path class="cls-3" d="M606.78125,715.93066H546.84179q1.0796,12.24316,7.37989,18.17969,6.29736,5.93994,18,5.94043a42.43866,42.43866,0,0,0,26.63964-9.36035l6.48047,15.48047a47.2392,47.2392,0,0,1-15.39062,8.09961,59.15346,59.15346,0,0,1-18.62988,3.06054q-21.6006,0-34.11036-12.24023-12.51268-12.23877-12.50976-33.48047a51.359,51.359,0,0,1,5.40039-23.93945,39.27381,39.27381,0,0,1,15.21-16.2002,43.08453,43.08453,0,0,1,22.22949-5.75976q18.17871,0,28.71,11.69922,10.53076,11.70409,10.53028,32.2207Zm-53.18946-28.62011q-5.49316,5.76268-6.75,16.56054h40.67969q-.36329-10.97754-5.40039-16.65039-5.04052-5.6704-14.04-5.66992Q559.07813,681.55078,553.59179,687.31055Z"/><path class="cls-3" d="M677.16211,739.87109,676.082,756.61035q-5.40089.54052-9.90039.54-18.542,0-27.36035-8.5498Q630,740.05321,630.002,723.13086V684.791H613.082V667.87109H630.002V641.59082h22.5v26.28027h23.21973V684.791H652.502v37.97949q0,17.64258,16.37988,17.63965A66.97319,66.97319,0,0,0,677.16211,739.87109Z"/></svg>