<svg xmlns="http://www.w3.org/2000/svg" viewBox="0 0 800 800"><defs><style>.cls-1{fill:#7f7f7f;}.cls-2{fill:none;}.cls-3{fill:#fff;}.cls-4{fill:#1652f1;}</style></defs><g id="White"><path class="cls-1" d="M50.98438,628.99345h55.43994q20.33862,0,31.67968,10.16992,11.34009,10.17188,11.34034,28.53027,0,18.36036-11.34034,28.62012-11.33936,10.25976-31.67968,10.25977H74.2041v49.32031H50.98438Zm52.56005,59.76074q23.937,0,23.93995-20.87988,0-10.61865-5.93995-15.75-5.94068-5.13135-18-5.13086H74.2041v41.76074Z"/><path class="cls-1" d="M181.03369,751.75419a38.58318,38.58318,0,0,1-15.75-16.02051q-5.581-10.437-5.58008-24.2998,0-13.85889,5.58008-24.21a38.73422,38.73422,0,0,1,15.75-15.92969q10.16748-5.57812,23.66992-5.58008,13.5,0,23.66993,5.58008a38.20384,38.20384,0,0,1,15.66015,15.92969q5.48877,10.352,5.49024,24.21,0,13.86327-5.49024,24.2998a38.06,38.06,0,0,1-15.66015,16.02051q-10.17115,5.581-23.66993,5.58008Q191.20361,757.33427,181.03369,751.75419Zm40.23-19.08008q5.759-7.19825,5.76026-21.24023,0-13.85889-5.76026-21.15039-5.76269-7.28907-16.56006-7.29-10.79955,0-16.6499,7.29-5.85132,7.29052-5.8501,21.15039,0,14.04052,5.76026,21.24023,5.75829,7.20117,16.56006,7.2002Q215.50074,739.87431,221.26367,732.67411Z"/><path class="cls-1" d="M326.02344,684.43388l-13.14014,1.25976q-22.32129,2.3423-22.31982,22.68067v47.51953h-22.5V667.87431H289.4834V683.3538q6.83862-15.83643,28.25976-17.28027l6.84034-.54Z"/><path class="cls-1" d="M398.38232,739.87431l-1.08007,16.73925q-5.40015.54054-9.89991.54-18.54126,0-27.35986-8.5498-8.82129-8.54736-8.82031-25.46973V684.79423H334.30225V667.87431h16.91992V641.594h22.5v26.28028h23.22021v16.91992H373.72217v37.97949q0,17.64258,16.38037,17.63965A66.95521,66.95521,0,0,0,398.38232,739.87431Z"/><path class="cls-1" d="M441.03906,667.87431h23.21973v16.91992H441.03906v71.09961h-22.5V684.79423H401.61914V667.87431h16.91992q0-18.90089,9.80957-28.44043,9.80861-9.53907,30.50977-10.62012l8.82031-.54,1.44043,16.74024-8.46.36035q-10.623.53906-15.12012,4.76953-4.50146,4.23194-4.5,13.58984Z"/><path class="cls-1" d="M492.42773,751.75419a38.57746,38.57746,0,0,1-15.75-16.02051q-5.58105-10.437-5.58007-24.2998,0-13.85889,5.58007-24.21a38.72843,38.72843,0,0,1,15.75-15.92969q10.16748-5.57812,23.66993-5.58008,13.5,0,23.66992,5.58008a38.2067,38.2067,0,0,1,15.66015,15.92969q5.48877,10.352,5.49024,24.21,0,13.86327-5.49024,24.2998a38.06285,38.06285,0,0,1-15.66015,16.02051q-10.17042,5.581-23.66992,5.58008Q502.59766,757.33427,492.42773,751.75419Zm40.23047-19.08008q5.75831-7.19825,5.75977-21.24023,0-13.85889-5.75977-21.15039-5.76268-7.28907-16.56054-7.29-10.8003,0-16.64942,7.29-5.852,7.29052-5.85058,21.15039,0,14.04052,5.75976,21.24023,5.75978,7.20117,16.56055,7.2002Q526.89551,739.87431,532.6582,732.67411Z"/><path class="cls-1" d="M579.457,755.89384V628.99345h22.5V755.89384Z"/><path class="cls-1" d="M623.917,627.014h24.83985V649.1536H623.917Zm1.25977,128.87988V667.87431h22.5v88.01953Z"/><path class="cls-1" d="M687.36621,751.75419a38.5774,38.5774,0,0,1-15.75-16.02051q-5.58105-10.437-5.58008-24.2998,0-13.85889,5.58008-24.21a38.72837,38.72837,0,0,1,15.75-15.92969q10.16748-5.57812,23.66992-5.58008,13.5,0,23.66992,5.58008a38.20667,38.20667,0,0,1,15.66016,15.92969q5.48877,10.352,5.49024,24.21,0,13.86327-5.49024,24.2998a38.06282,38.06282,0,0,1-15.66016,16.02051q-10.1704,5.581-23.66992,5.58008Q697.53613,757.33427,687.36621,751.75419Zm40.23047-19.08008q5.75831-7.19825,5.75977-21.24023,0-13.85889-5.75977-21.15039-5.7627-7.28907-16.56055-7.29-10.80028,0-16.64941,7.29-5.85205,7.29052-5.85059,21.15039,0,14.04052,5.75977,21.24023,5.75976,7.20117,16.56055,7.2002Q721.834,739.87431,727.59668,732.67411Z"/><rect class="cls-2" width="800" height="800"/><path class="cls-3" d="M262.34,141v.01H545.28V141Z"/><path class="cls-3" d="M545.28,95.54V30.09482A30.09481,30.09481,0,0,0,515.18524,0H292.43483A30.09479,30.09479,0,0,0,262.34,30.09477V95.54H180.0948A30.0948,30.0948,0,0,0,150,125.6348h0V469.90517A30.09479,30.09479,0,0,0,180.09478,500H619.90521A30.09479,30.09479,0,0,0,650,469.90517h0V125.6348A30.09482,30.09482,0,0,0,619.90521,95.54ZM307.8,47H499.83V94H307.8ZM604.55,454.54H195.45V318.15H331.68v68.19H468.04V318.15H604.55ZM377.13,340.88V249.96h45.46v90.92Zm227.42-68.19H468.04v-68.2H331.68v68.2H195.45V141h409.1Z"/></g><g id="Blue"><path class="cls-4" d="M50.98438,628.99345h55.43994q20.33862,0,31.67968,10.16992,11.34009,10.17188,11.34034,28.53027,0,18.36036-11.34034,28.62012-11.33936,10.25976-31.67968,10.25977H74.2041v49.32031H50.98438Zm52.56005,59.76074q23.937,0,23.93995-20.87988,0-10.61865-5.93995-15.75-5.94068-5.13135-18-5.13086H74.2041v41.76074Z"/><path class="cls-4" d="M181.03369,751.75419a38.58318,38.58318,0,0,1-15.75-16.02051q-5.581-10.437-5.58008-24.2998,0-13.85889,5.58008-24.21a38.73422,38.73422,0,0,1,15.75-15.92969q10.16748-5.57812,23.66992-5.58008,13.5,0,23.66993,5.58008a38.20384,38.20384,0,0,1,15.66015,15.92969q5.48877,10.352,5.49024,24.21,0,13.86327-5.49024,24.2998a38.06,38.06,0,0,1-15.66015,16.02051q-10.17115,5.581-23.66993,5.58008Q191.20361,757.33427,181.03369,751.75419Zm40.23-19.08008q5.759-7.19825,5.76026-21.24023,0-13.85889-5.76026-21.15039-5.76269-7.28907-16.56006-7.29-10.79955,0-16.6499,7.29-5.85132,7.29052-5.8501,21.15039,0,14.04052,5.76026,21.24023,5.75829,7.20117,16.56006,7.2002Q215.50074,739.87431,221.26367,732.67411Z"/><path class="cls-4" d="M326.02344,684.43388l-13.14014,1.25976q-22.32129,2.3423-22.31982,22.68067v47.51953h-22.5V667.87431H289.4834V683.3538q6.83862-15.83643,28.25976-17.28027l6.84034-.54Z"/><path class="cls-4" d="M398.38232,739.87431l-1.08007,16.73925q-5.40015.54054-9.89991.54-18.54126,0-27.35986-8.5498-8.82129-8.54736-8.82031-25.46973V684.79423H334.30225V667.87431h16.91992V641.594h22.5v26.28028h23.22021v16.91992H373.72217v37.97949q0,17.64258,16.38037,17.63965A66.95521,66.95521,0,0,0,398.38232,739.87431Z"/><path class="cls-4" d="M441.03906,667.87431h23.21973v16.91992H441.03906v71.09961h-22.5V684.79423H401.61914V667.87431h16.91992q0-18.90089,9.80957-28.44043,9.80861-9.53907,30.50977-10.62012l8.82031-.54,1.44043,16.74024-8.46.36035q-10.623.53906-15.12012,4.76953-4.50146,4.23194-4.5,13.58984Z"/><path class="cls-4" d="M492.42773,751.75419a38.57746,38.57746,0,0,1-15.75-16.02051q-5.58105-10.437-5.58007-24.2998,0-13.85889,5.58007-24.21a38.72843,38.72843,0,0,1,15.75-15.92969q10.16748-5.57812,23.66993-5.58008,13.5,0,23.66992,5.58008a38.2067,38.2067,0,0,1,15.66015,15.92969q5.48877,10.352,5.49024,24.21,0,13.86327-5.49024,24.2998a38.06285,38.06285,0,0,1-15.66015,16.02051q-10.17042,5.581-23.66992,5.58008Q502.59766,757.33427,492.42773,751.75419Zm40.23047-19.08008q5.75831-7.19825,5.75977-21.24023,0-13.85889-5.75977-21.15039-5.76268-7.28907-16.56054-7.29-10.8003,0-16.64942,7.29-5.852,7.29052-5.85058,21.15039,0,14.04052,5.75976,21.24023,5.75978,7.20117,16.56055,7.2002Q526.89551,739.87431,532.6582,732.67411Z"/><path class="cls-4" d="M579.457,755.89384V628.99345h22.5V755.89384Z"/><path class="cls-4" d="M623.917,627.014h24.83985V649.1536H623.917Zm1.25977,128.87988V667.87431h22.5v88.01953Z"/><path class="cls-4" d="M687.36621,751.75419a38.5774,38.5774,0,0,1-15.75-16.02051q-5.58105-10.437-5.58008-24.2998,0-13.85889,5.58008-24.21a38.72837,38.72837,0,0,1,15.75-15.92969q10.16748-5.57812,23.66992-5.58008,13.5,0,23.66992,5.58008a38.20667,38.20667,0,0,1,15.66016,15.92969q5.48877,10.352,5.49024,24.21,0,13.86327-5.49024,24.2998a38.06282,38.06282,0,0,1-15.66016,16.02051q-10.1704,5.581-23.66992,5.58008Q697.53613,757.33427,687.36621,751.75419Zm40.23047-19.08008q5.75831-7.19825,5.75977-21.24023,0-13.85889-5.75977-21.15039-5.7627-7.28907-16.56055-7.29-10.80028,0-16.64941,7.29-5.85205,7.29052-5.85059,21.15039,0,14.04052,5.75977,21.24023,5.75976,7.20117,16.56055,7.2002Q721.834,739.87431,727.59668,732.67411Z"/><rect class="cls-2" width="800" height="800"/><path class="cls-4" d="M262.34,141v.01H545.28V141Z"/><path class="cls-4" d="M545.28,95.54V30.09482A30.09481,30.09481,0,0,0,515.18524,0H292.43483A30.09479,30.09479,0,0,0,262.34,30.09477V95.54H180.0948A30.0948,30.0948,0,0,0,150,125.6348h0V469.90517A30.09479,30.09479,0,0,0,180.09478,500H619.90521A30.09479,30.09479,0,0,0,650,469.90517h0V125.6348A30.09482,30.09482,0,0,0,619.90521,95.54ZM307.8,47H499.83V94H307.8ZM604.55,454.54H195.45V318.15H331.68v68.19H468.04V318.15H604.55ZM377.13,340.88V249.96h45.46v90.92Zm227.42-68.19H468.04v-68.2H331.68v68.2H195.45V141h409.1Z"/></g></svg>