<svg id="White" xmlns="http://www.w3.org/2000/svg" viewBox="0 0 800 800"><defs><style>.cls-1{fill:none;}.cls-2{fill:#7f7f7f;}.cls-3{fill:#fff;}</style></defs><rect class="cls-1" width="800" height="800"/><path class="cls-2" d="M85.36475,753.554a63.34168,63.34168,0,0,1-21.59961-11.16015l7.73974-16.91992A63.50787,63.50787,0,0,0,90.855,735.73368a72.26107,72.26107,0,0,0,22.04981,3.24024q13.13745,0,20.25-4.58985a14.50112,14.50112,0,0,0,7.11035-12.87011q0-7.19679-6.57032-10.98047-6.57274-3.7793-21.87011-7.19922-15.84082-3.41748-25.73975-7.9209-9.9016-4.49707-14.93994-11.51953-5.04126-7.01953-5.04-17.82031A34.20864,34.20864,0,0,1,72.2251,646.094a40.31038,40.31038,0,0,1,17.27978-13.7705q11.15845-4.94824,25.74024-4.94922a79.19222,79.19222,0,0,1,25.37988,4.0498,55.21217,55.21217,0,0,1,19.7998,11.06934l-7.73974,16.91992q-16.92187-13.5-37.43994-13.5-12.24316,0-19.3501,4.95019a15.84963,15.84963,0,0,0-7.11035,13.77051A12.6267,12.6267,0,0,0,95.085,675.97392q6.29883,3.96093,21.41992,7.37988,16.0188,3.60351,26.01026,8.00976,9.98949,4.41359,15.2998,11.25,5.30713,6.84375,5.31006,17.28028a33.63438,33.63438,0,0,1-6.03027,19.88965q-6.03223,8.55175-17.46,13.14062-11.43239,4.58935-26.90967,4.58985A92.03277,92.03277,0,0,1,85.36475,753.554Z"/><path class="cls-2" d="M259.78223,715.93388H199.84229q1.08032,12.24316,7.37988,18.17968,6.29883,5.94,18,5.94043a42.439,42.439,0,0,0,26.64013-9.36035l6.48,15.48047a47.2417,47.2417,0,0,1-15.39014,8.09961,59.15348,59.15348,0,0,1-18.62988,3.06055q-21.59987,0-34.10987-12.24024-12.51269-12.23877-12.51025-33.48047a51.365,51.365,0,0,1,5.40039-23.93945,39.27373,39.27373,0,0,1,15.21-16.20019,43.08371,43.08371,0,0,1,22.23-5.75977q18.178,0,28.71,11.69922,10.53,11.7041,10.52979,32.2207Zm-53.18994-28.62012q-5.49245,5.7627-6.75,16.56055h40.68017q-.36328-10.97754-5.40039-16.65039-5.04126-5.67042-14.03955-5.66993Q212.0796,681.554,206.59229,687.31376Z"/><path class="cls-2" d="M330.1626,739.87431l-1.08008,16.73925q-5.40015.54054-9.8999.54-18.54126,0-27.35987-8.5498-8.82129-8.54736-8.82031-25.46973V684.79423H266.08252V667.87431h16.91992V641.594h22.5v26.28028h23.22022v16.91992H305.50244v37.97949q0,17.64258,16.38037,17.63965A66.95537,66.95537,0,0,0,330.1626,739.87431Z"/><path class="cls-2" d="M395.32275,739.87431l-1.08007,16.73925q-5.40015.54054-9.89991.54-18.54126,0-27.35986-8.5498-8.82129-8.54736-8.82031-25.46973V684.79423H331.24268V667.87431H348.1626V641.594h22.5v26.28028h23.22021v16.91992H370.6626v37.97949q0,17.64258,16.38037,17.63965A66.95521,66.95521,0,0,0,395.32275,739.87431Z"/><path class="cls-2" d="M407.20117,627.014H432.041V649.1536H407.20117Zm1.25977,128.87988V667.87431h22.5v88.01953Z"/><path class="cls-2" d="M528.88086,674.71415q7.7373,9.00293,7.73926,27.17969v54h-22.5V703.1536q0-10.25976-3.87012-14.93945-3.87158-4.67871-12.14941-4.68066-9.72071,0-15.57032,6.12011-5.85058,6.12159-5.84961,16.37989v49.86035h-22.5V667.87431h21.96V681.014a30.437,30.437,0,0,1,12.05958-11.33985,36.30586,36.30586,0,0,1,17.10058-3.96Q521.13721,665.71415,528.88086,674.71415Z"/><path class="cls-2" d="M645.15918,667.87431v79.91992q0,20.69678-11.42969,31.31933-11.4331,10.61866-33.75,10.62012a81.83748,81.83748,0,0,1-22.14062-2.96972,62.54846,62.54846,0,0,1-18.54-8.37012l6.30078-15.83985q16.377,9.89649,33.83984,9.89942,23.39649,0,23.39942-23.04V737.89384a27.47371,27.47371,0,0,1-11.51953,11.42969,36.01937,36.01937,0,0,1-17.28028,4.05078,38.12388,38.12388,0,0,1-20.42968-5.49024,37.7014,37.7014,0,0,1-13.9502-15.39062,49.70265,49.70265,0,0,1-5.04-22.85938,51.01343,51.01343,0,0,1,4.9502-22.95019,36.79687,36.79687,0,0,1,13.95019-15.48047,38.62,38.62,0,0,1,20.51953-5.48926,36.01885,36.01885,0,0,1,17.28028,4.04981,27.4959,27.4959,0,0,1,11.51953,11.42968V667.87431Zm-28.34961,61.01953q6.02783-7.01953,6.0293-19.25977,0-12.4204-6.0293-19.44043-6.03369-7.01952-16.83008-7.01953-10.623,0-16.74023,7.01953-6.12159,7.021-6.12012,19.44043,0,12.06153,6.12012,19.16992,6.11718,7.11329,16.74023,7.10938Q610.77979,735.91337,616.80957,728.89384Z"/><path class="cls-2" d="M679.26855,754.45341a48.61114,48.61114,0,0,1-16.64941-8.2793L668.919,730.514a53.18553,53.18553,0,0,0,32.21972,10.25976q7.73731,0,11.79-2.51953a8.0062,8.0062,0,0,0,4.04981-7.2002,7.292,7.292,0,0,0-2.79-6.12011q-2.792-2.16064-9.99024-3.96l-14.39941-3.24024q-12.24316-2.6997-18.17969-8.82031-5.93994-6.1172-5.94043-15.83984a23.43863,23.43863,0,0,1,4.58984-14.30957,29.641,29.641,0,0,1,12.78028-9.62989,49.00817,49.00817,0,0,1,18.99023-3.41992,57.44864,57.44864,0,0,1,18.08985,2.87988,50.25077,50.25077,0,0,1,15.38964,8.09961l-6.2998,15.29981Q715.53712,682.097,701.8584,682.094q-7.38282,0-11.51953,2.7002a8.53577,8.53577,0,0,0-4.14063,7.55957,7.62043,7.62043,0,0,0,2.61035,5.94043q2.60744,2.34082,8.37012,3.59961l14.94043,3.41992q13.13671,2.88135,19.25977,9.08984,6.11718,6.21094,6.12011,16.29a22.80947,22.80947,0,0,1-9.90039,19.44043q-9.90087,7.20117-26.82031,7.2002A76.155,76.155,0,0,1,679.26855,754.45341Z"/><path class="cls-3" d="M650,307.36618V192.63383A5.13383,5.13383,0,0,0,644.86618,187.5h-46.033a207.75484,207.75484,0,0,0-14.16727-33.7504l32.70386-32.702a5.137,5.137,0,0,0,.00009-7.26042l-81.157-81.157a5.1338,5.1338,0,0,0-7.26031,0l-.0001.00009-32.702,32.70386A207.75813,207.75813,0,0,0,462.5,51.16679V5.13383A5.13384,5.13384,0,0,0,457.36618,0H342.63382A5.13382,5.13382,0,0,0,337.5,5.13382V51.25021a200.2646,200.2646,0,0,0-33.75041,14.08386L271.04828,32.63184a5.13383,5.13383,0,0,0-7.26032-.00011l-.00179.00179L182.71,113.78719a5.13382,5.13382,0,0,0,.00178,7.25864l32.62127,32.62035A208.64727,208.64727,0,0,0,201.16577,187.5h-46.032A5.13382,5.13382,0,0,0,150,192.63382V307.36618A5.13382,5.13382,0,0,0,155.13382,312.5h46.11537a200.2645,200.2645,0,0,0,14.08386,33.7504l-32.70134,32.70135a5.13378,5.13378,0,0,0,0,7.26029l.00177.00171L263.78622,467.29a5.13383,5.13383,0,0,0,7.25861-.00171L303.66618,434.667A200.79873,200.79873,0,0,0,337.5,448.66739v46.19879A5.13382,5.13382,0,0,0,342.63382,500H457.36618A5.13382,5.13382,0,0,0,462.5,494.86618V448.74979A208.1765,208.1765,0,0,0,496.33279,434.667l32.62137,32.62137a5.13383,5.13383,0,0,0,7.25858.00174l81.15372-81.07623a5.13383,5.13383,0,0,0,.00341-7.26032l-.00174-.00177-32.70224-32.70132A200.26537,200.26537,0,0,0,598.74976,312.5h46.11639A5.13382,5.13382,0,0,0,650,307.36624Zm-84.66693-36.53284a155.68217,155.68217,0,0,1-3.91745,20.83335A160.80871,160.80871,0,0,1,554.50034,312.5q-.50052,1.2497-1.001,2.5004a153.60063,153.60063,0,0,1-9.9996,19.49972,138.646,138.646,0,0,1-11.91611,17.58322l29.66614,29.66715.83313.83313-29.50034,29.41589-.83313-.83212-14.74915-14.75015-14.83358-14.83359a158.74765,158.74765,0,0,1-17.58423,11.91611,153.09107,153.09107,0,0,1-19.49967,9.91717c-.83313.33264-1.74966.74973-2.58279,1a152.98059,152.98059,0,0,1-20.83334,6.99973,158.38845,158.38845,0,0,1-20.83335,3.91745V458.3334H379.16667V415.33408a158.32158,158.32158,0,0,1-20.83334-3.91745A152.8873,152.8873,0,0,1,337.5,404.417a15.72662,15.72662,0,0,1-2.50041-1,154.07477,154.07477,0,0,1-19.58313-9.91717,158.64193,158.64193,0,0,1-17.58321-11.91611l-30.41687,30.41586-29.41691-29.41589.74972-.7497,14.83357-14.83358,14.83358-14.917a138.53736,138.53736,0,0,1-11.9161-17.58322,142.82184,142.82184,0,0,1-9.91719-19.49972c-.41606-.83414-.74971-1.66727-1.08338-2.5004a160.65791,160.65791,0,0,1-6.91731-20.83334,156.00666,156.00666,0,0,1-3.91643-20.83335H191.66667V229.16667h42.99926a156.00577,156.00577,0,0,1,3.91643-20.83333A160.65792,160.65792,0,0,1,245.49967,187.5a24.2802,24.2802,0,0,1,1.08338-2.58382,152.96285,152.96285,0,0,1,9.91719-19.49971,147.98981,147.98981,0,0,1,11.9161-17.5832l-14.83358-14.83358L238.74919,118.1661l-.74972-.7487,29.41691-29.50032.83313.83313,14.75015,14.74913L297.83325,118.333a147.26451,147.26451,0,0,1,17.58321-11.83268,153.40264,153.40264,0,0,1,19.49972-9.99961c.83416-.33364,1.74967-.66731,2.58382-1.001a164.86876,164.86876,0,0,1,20.83333-6.91629A158.14938,158.14938,0,0,1,379.16667,84.667V41.66667h41.66667V84.667a158.21191,158.21191,0,0,1,20.83335,3.91642A164.98012,164.98012,0,0,1,462.5,95.49968c.83313.33366,1.74966.66732,2.58279,1.001a153.47086,153.47086,0,0,1,19.49973,9.9996A147.36068,147.36068,0,0,1,502.16675,118.333l30.41586-30.41587L562.083,117.4174l-15.58332,15.58228-14.916,14.83357a148.11281,148.11281,0,0,1,11.91611,17.58321,154.13231,154.13231,0,0,1,9.91616,19.58313c.41709.83414.75074,1.66726,1.08442,2.50039a160.80733,160.80733,0,0,1,6.91528,20.83335,155.68634,155.68634,0,0,1,3.91745,20.83333h43.00027v41.66668Z"/><path class="cls-3" d="M399.97852,371.43015A121.43042,121.43042,0,1,1,521.40918,250,121.43041,121.43041,0,0,1,399.97852,371.43015Zm0-197.86084A76.43042,76.43042,0,1,0,476.40918,250,76.43042,76.43042,0,0,0,399.97852,173.56931Z"/></svg>