<svg id="Black" xmlns="http://www.w3.org/2000/svg" viewBox="0 0 800 800"><defs><style>.cls-1{fill:#1652f1;}.cls-2{fill:#7f7f7f;}.cls-3{fill:none;}</style></defs><path class="cls-1" d="M615.68,0H184.32A34.35132,34.35132,0,0,0,150,34.32V465.68A34.35132,34.35132,0,0,0,184.32,500H615.68A34.35132,34.35132,0,0,0,650,465.68V34.32A34.35132,34.35132,0,0,0,615.68,0ZM251.37,282.73V217.27h115.9V101.3h65.46V217.27H548.77v65.46H432.73V398.7H367.27V282.73Z"/><path class="cls-2" d="M210.6416,755.89384V648.07353H169.2417V628.99345h106.02v19.08008H233.86133V755.89384Z"/><path class="cls-2" d="M333.04248,684.43388l-13.14014,1.25976q-22.32129,2.3423-22.31982,22.68067v47.51953h-22.5V667.87431h21.41992V683.3538q6.83862-15.83643,28.25977-17.28027l6.84033-.54Z"/><path class="cls-2" d="M409.002,674.71415q8.99854,9.00293,9,27.71973v53.46H396.582v-13.5a23.49775,23.49775,0,0,1-9.62988,10.98047,28.91348,28.91348,0,0,1-15.21045,3.96,35.31791,35.31791,0,0,1-16.02-3.60059,28.4656,28.4656,0,0,1-11.33984-9.89941,24.99953,24.99953,0,0,1-4.14014-14.04q0-9.7207,4.95019-15.30078,4.949-5.57667,16.10987-8.09961,11.15918-2.51806,30.78027-2.51953h4.5v-4.14063q0-8.99853-3.87012-12.96-3.873-3.95654-12.87011-3.96a48.43938,48.43938,0,0,0-14.66992,2.42969,74.12383,74.12383,0,0,0-15.02979,6.75L343.8418,676.514a77.15325,77.15325,0,0,1,37.62011-10.79981Q399.99878,665.71415,409.002,674.71415ZM390.91211,735.1038q5.66967-6.02784,5.66992-15.57031v-3.7793H393.3418a124.0443,124.0443,0,0,0-18.71973,1.08008q-6.66138,1.07958-9.54,3.77929a9.62325,9.62325,0,0,0-2.87988,7.37989,12.33361,12.33361,0,0,0,3.96,9.45019,14.19247,14.19247,0,0,0,10.07959,3.69043A19.223,19.223,0,0,0,390.91211,735.1038Z"/><path class="cls-2" d="M525.82129,628.99345V755.89384H503.501V741.67411a28.17838,28.17838,0,0,1-11.42969,11.51953,34.51821,34.51821,0,0,1-17.00977,4.14063,36.464,36.464,0,0,1-20.25-5.76074,38.17494,38.17494,0,0,1-13.86035-16.29,56.26385,56.26385,0,0,1-4.95019-24.21q0-13.67725,4.95019-23.93946a36.33565,36.33565,0,0,1,34.11035-21.41992,35.2526,35.2526,0,0,1,16.91993,3.96,27.49173,27.49173,0,0,1,11.33984,11.16016V628.99345Zm-28.16992,103.5q5.84619-7.37843,5.84961-21.05957,0-13.67726-5.84961-20.96973-5.85206-7.29053-16.47071-7.29-10.79881,0-16.73925,7.2002-5.93994,7.20117-5.94043,20.69922,0,13.68164,5.94043,21.24023,5.93994,7.56006,16.55957,7.56055Q491.80126,739.87431,497.65137,732.49345Z"/><path class="cls-2" d="M626.26074,715.93388H566.32129q1.0796,12.24316,7.37988,18.17968,6.29736,5.94,18,5.94043a42.43869,42.43869,0,0,0,26.63965-9.36035l6.48047,15.48047a47.23936,47.23936,0,0,1-15.39063,8.09961,59.15348,59.15348,0,0,1-18.62988,3.06055q-21.60059,0-34.11035-12.24024-12.5127-12.23877-12.50977-33.48047a51.35913,51.35913,0,0,1,5.40039-23.93945,39.27368,39.27368,0,0,1,15.21-16.20019,43.08442,43.08442,0,0,1,22.22949-5.75977q18.17871,0,28.71,11.69922,10.53077,11.7041,10.53027,32.2207Zm-53.18945-28.62012q-5.49316,5.7627-6.75,16.56055H607.001q-.36329-10.97754-5.40039-16.65039-5.04054-5.67042-14.04-5.66993Q578.55761,681.554,573.07129,687.31376Z"/><rect class="cls-3" width="800" height="800"/></svg>