<svg width="12" height="13" viewBox="0 0 12 13" fill="none" xmlns="http://www.w3.org/2000/svg">
<path d="M10.746 8.606H8.028C7.86887 8.606 7.71626 8.66921 7.60374 8.78174C7.49122 8.89426 7.428 9.04687 7.428 9.206C7.428 9.36513 7.49122 9.51774 7.60374 9.63026C7.71626 9.74279 7.86887 9.806 8.028 9.806H9.468C8.80617 10.4976 7.95264 10.9756 7.0171 11.1784C6.08155 11.3813 5.10673 11.2998 4.21787 10.9443C3.32901 10.5889 2.56672 9.97586 2.02895 9.1839C1.49119 8.39195 1.20251 7.45728 1.2 6.5C1.2 6.34087 1.13679 6.18826 1.02426 6.07574C0.911743 5.96321 0.75913 5.9 0.6 5.9C0.440871 5.9 0.288258 5.96321 0.175736 6.07574C0.0632145 6.18826 4.29153e-07 6.34087 4.29153e-07 6.5C0.00317242 7.67168 0.349333 8.81679 0.995762 9.79402C1.64219 10.7712 2.5606 11.5378 3.63765 11.9991C4.71469 12.4605 5.90324 12.5963 7.05661 12.39C8.20998 12.1836 9.2777 11.6441 10.128 10.838V11.9C10.128 12.0591 10.1912 12.2117 10.3037 12.3243C10.4163 12.4368 10.5689 12.5 10.728 12.5C10.8871 12.5 11.0397 12.4368 11.1523 12.3243C11.2648 12.2117 11.328 12.0591 11.328 11.9V9.2C11.3265 9.04498 11.2651 8.89655 11.1566 8.78582C11.0481 8.67509 10.901 8.61064 10.746 8.606ZM6 0.5C4.46183 0.504387 2.98409 1.09935 1.872 2.162V1.1C1.872 0.94087 1.80879 0.788258 1.69626 0.675736C1.58374 0.563214 1.43113 0.5 1.272 0.5C1.11287 0.5 0.960258 0.563214 0.847736 0.675736C0.735215 0.788258 0.672 0.94087 0.672 1.1V3.8C0.672 3.95913 0.735215 4.11174 0.847736 4.22426C0.960258 4.33679 1.11287 4.4 1.272 4.4H3.972C4.13113 4.4 4.28374 4.33679 4.39626 4.22426C4.50879 4.11174 4.572 3.95913 4.572 3.8C4.572 3.64087 4.50879 3.48826 4.39626 3.37574C4.28374 3.26321 4.13113 3.2 3.972 3.2H2.532C3.19348 2.50872 4.04645 2.0309 4.98144 1.82786C5.91642 1.62483 6.89075 1.70585 7.77937 2.06052C8.66798 2.41519 9.43032 3.02733 9.96854 3.81836C10.5068 4.6094 10.7963 5.54323 10.8 6.5C10.8 6.65913 10.8632 6.81174 10.9757 6.92426C11.0883 7.03679 11.2409 7.1 11.4 7.1C11.5591 7.1 11.7117 7.03679 11.8243 6.92426C11.9368 6.81174 12 6.65913 12 6.5C12 5.71207 11.8448 4.93185 11.5433 4.2039C11.2417 3.47595 10.7998 2.81451 10.2426 2.25736C9.68549 1.70021 9.02406 1.25825 8.2961 0.956723C7.56815 0.655195 6.78793 0.5 6 0.5Z" fill="black"/>
<g clip-path="url(#clip0_4_76)">
<path d="M6.32428 6.12213H5.32428C5.19167 6.12213 5.06449 6.06945 4.97073 5.97568C4.87696 5.88192 4.82428 5.75474 4.82428 5.62213C4.82428 5.48952 4.87696 5.36235 4.97073 5.26858C5.06449 5.17481 5.19167 5.12213 5.32428 5.12213H6.57428C6.64058 5.12213 6.70417 5.14847 6.75106 5.19535C6.79794 5.24224 6.82428 5.30583 6.82428 5.37213C6.82428 5.43844 6.85062 5.50202 6.8975 5.54891C6.94439 5.59579 7.00798 5.62213 7.07428 5.62213C7.14058 5.62213 7.20417 5.59579 7.25106 5.54891C7.29794 5.50202 7.32428 5.43844 7.32428 5.37213C7.32428 5.17322 7.24526 4.98245 7.10461 4.8418C6.96396 4.70115 6.77319 4.62213 6.57428 4.62213H6.07428V4.12213C6.07428 4.05583 6.04794 3.99224 6.00106 3.94535C5.95417 3.89847 5.89058 3.87213 5.82428 3.87213C5.75798 3.87213 5.69439 3.89847 5.6475 3.94535C5.60062 3.99224 5.57428 4.05583 5.57428 4.12213V4.62213H5.32428C5.05906 4.62213 4.80471 4.72749 4.61717 4.91502C4.42964 5.10256 4.32428 5.35691 4.32428 5.62213C4.32428 5.88735 4.42964 6.1417 4.61717 6.32924C4.80471 6.51677 5.05906 6.62213 5.32428 6.62213H6.32428C6.45689 6.62213 6.58406 6.67481 6.67783 6.76858C6.7716 6.86235 6.82428 6.98952 6.82428 7.12213C6.82428 7.25474 6.7716 7.38192 6.67783 7.47568C6.58406 7.56945 6.45689 7.62213 6.32428 7.62213H5.07428C5.00798 7.62213 4.94439 7.59579 4.8975 7.54891C4.85062 7.50202 4.82428 7.43844 4.82428 7.37213C4.82428 7.30583 4.79794 7.24224 4.75106 7.19535C4.70417 7.14847 4.64058 7.12213 4.57428 7.12213C4.50798 7.12213 4.44439 7.14847 4.3975 7.19535C4.35062 7.24224 4.32428 7.30583 4.32428 7.37213C4.32428 7.57104 4.4033 7.76181 4.54395 7.90246C4.6846 8.04311 4.87537 8.12213 5.07428 8.12213H5.57428V8.62213C5.57428 8.68844 5.60062 8.75202 5.6475 8.79891C5.69439 8.84579 5.75798 8.87213 5.82428 8.87213C5.89058 8.87213 5.95417 8.84579 6.00106 8.79891C6.04794 8.75202 6.07428 8.68844 6.07428 8.62213V8.12213H6.32428C6.5895 8.12213 6.84385 8.01677 7.03139 7.82924C7.21892 7.6417 7.32428 7.38735 7.32428 7.12213C7.32428 6.85691 7.21892 6.60256 7.03139 6.41502C6.84385 6.22749 6.5895 6.12213 6.32428 6.12213Z" fill="black"/>
</g>
<defs>
<clipPath id="clip0_4_76">
<rect width="6" height="6" fill="white" transform="translate(2.82428 3.37213)"/>
</clipPath>
</defs>
</svg>
