<svg width="12" height="12" viewBox="0 0 12 12" fill="none" xmlns="http://www.w3.org/2000/svg">
<path d="M10.585 1.03C10.2266 0.968266 9.86369 0.93649 9.50001 0.935C8.25919 0.933982 7.04425 1.28979 6.00001 1.96C4.95309 1.29859 3.73834 0.951515 2.50001 0.96C2.13633 0.96149 1.77341 0.993266 1.41501 1.055C1.29762 1.07524 1.1913 1.13673 1.11522 1.2284C1.03913 1.32006 0.99828 1.43588 1.00001 1.555V7.555C0.998941 7.62847 1.01407 7.70127 1.04434 7.76822C1.0746 7.83517 1.11924 7.89464 1.1751 7.94237C1.23095 7.99011 1.29664 8.02495 1.36749 8.04442C1.43834 8.06389 1.51261 8.0675 1.58501 8.055C2.30152 7.93094 3.03561 7.95153 3.74404 8.11554C4.45248 8.27955 5.12092 8.58368 5.71001 9.01L5.77001 9.045H5.82501C5.88046 9.06811 5.93994 9.08 6.00001 9.08C6.06008 9.08 6.11956 9.06811 6.17501 9.045H6.23001L6.29001 9.01C6.87499 8.57415 7.54152 8.26017 8.25009 8.08668C8.95865 7.91319 9.69484 7.88371 10.415 8C10.4874 8.0125 10.5617 8.00889 10.6325 7.98942C10.7034 7.96995 10.7691 7.93511 10.8249 7.88737C10.8808 7.83964 10.9254 7.78017 10.9557 7.71322C10.9859 7.64627 11.0011 7.57347 11 7.5V1.5C10.9948 1.38608 10.9508 1.27736 10.8753 1.19187C10.7999 1.10638 10.6974 1.04927 10.585 1.03ZM5.50001 7.675C4.57495 7.18834 3.54527 6.93436 2.50001 6.935C2.33501 6.935 2.17001 6.935 2.00001 6.935V1.935C2.16654 1.9254 2.33348 1.9254 2.50001 1.935C3.5667 1.93382 4.61012 2.24685 5.50001 2.835V7.675ZM10 6.955C9.83001 6.955 9.66501 6.955 9.50001 6.955C8.45475 6.95436 7.42507 7.20834 6.50001 7.695V2.835C7.3899 2.24685 8.43332 1.93382 9.50001 1.935C9.66654 1.9254 9.83348 1.9254 10 1.935V6.955ZM10.585 9.03C10.2266 8.96827 9.86369 8.93649 9.50001 8.935C8.25919 8.93398 7.04425 9.28979 6.00001 9.96C4.95577 9.28979 3.74083 8.93398 2.50001 8.935C2.13633 8.93649 1.77341 8.96827 1.41501 9.03C1.34993 9.04033 1.28752 9.06342 1.23139 9.09795C1.17526 9.13248 1.12651 9.17777 1.08795 9.2312C1.04938 9.28464 1.02175 9.34517 1.00666 9.40932C0.991573 9.47347 0.989312 9.53997 1.00001 9.605C1.02542 9.73484 1.10126 9.84932 1.21091 9.92336C1.32056 9.9974 1.45508 10.025 1.58501 10C2.30152 9.87594 3.03561 9.89653 3.74404 10.0605C4.45248 10.2246 5.12092 10.5287 5.71001 10.955C5.79469 11.0153 5.89606 11.0477 6.00001 11.0477C6.10396 11.0477 6.20533 11.0153 6.29001 10.955C6.8791 10.5287 7.54755 10.2246 8.25598 10.0605C8.96441 9.89653 9.6985 9.87594 10.415 10C10.5449 10.025 10.6795 9.9974 10.7891 9.92336C10.8988 9.84932 10.9746 9.73484 11 9.605C11.0107 9.53997 11.0085 9.47347 10.9934 9.40932C10.9783 9.34517 10.9506 9.28464 10.9121 9.2312C10.8735 9.17777 10.8248 9.13248 10.7686 9.09795C10.7125 9.06342 10.6501 9.04033 10.585 9.03Z" fill="black"/>
</svg>
