<svg width="12" height="12" viewBox="0 0 12 12" fill="none" xmlns="http://www.w3.org/2000/svg">
<path d="M2 6C2 6.13261 2.05268 6.25979 2.14645 6.35355C2.24021 6.44732 2.36739 6.5 2.5 6.5H6.295L5.145 7.645C5.09814 7.69148 5.06094 7.74678 5.03555 7.80771C5.01017 7.86864 4.9971 7.93399 4.9971 8C4.9971 8.06601 5.01017 8.13136 5.03555 8.19229C5.06094 8.25322 5.09814 8.30852 5.145 8.355C5.19148 8.40186 5.24678 8.43906 5.30771 8.46445C5.36864 8.48983 5.43399 8.5029 5.5 8.5029C5.56601 8.5029 5.63136 8.48983 5.69229 8.46445C5.75322 8.43906 5.80852 8.40186 5.855 8.355L7.855 6.355C7.90052 6.30745 7.9362 6.25138 7.96 6.19C8.01001 6.06827 8.01001 5.93173 7.96 5.81C7.9362 5.74862 7.90052 5.69255 7.855 5.645L5.855 3.645C5.80838 3.59838 5.75304 3.5614 5.69212 3.53617C5.63121 3.51094 5.56593 3.49795 5.5 3.49795C5.43407 3.49795 5.36879 3.51094 5.30788 3.53617C5.24696 3.5614 5.19162 3.59838 5.145 3.645C5.09838 3.69162 5.0614 3.74696 5.03617 3.80788C5.01094 3.86879 4.99795 3.93407 4.99795 4C4.99795 4.06593 5.01094 4.13121 5.03617 4.19212C5.0614 4.25304 5.09838 4.30838 5.145 4.355L6.295 5.5H2.5C2.36739 5.5 2.24021 5.55268 2.14645 5.64645C2.05268 5.74021 2 5.86739 2 6ZM8.5 1H3.5C3.10218 1 2.72064 1.15804 2.43934 1.43934C2.15804 1.72064 2 2.10218 2 2.5V4C2 4.13261 2.05268 4.25979 2.14645 4.35355C2.24021 4.44732 2.36739 4.5 2.5 4.5C2.63261 4.5 2.75979 4.44732 2.85355 4.35355C2.94732 4.25979 3 4.13261 3 4V2.5C3 2.36739 3.05268 2.24021 3.14645 2.14645C3.24021 2.05268 3.36739 2 3.5 2H8.5C8.63261 2 8.75979 2.05268 8.85355 2.14645C8.94732 2.24021 9 2.36739 9 2.5V9.5C9 9.63261 8.94732 9.75979 8.85355 9.85355C8.75979 9.94732 8.63261 10 8.5 10H3.5C3.36739 10 3.24021 9.94732 3.14645 9.85355C3.05268 9.75979 3 9.63261 3 9.5V8C3 7.86739 2.94732 7.74021 2.85355 7.64645C2.75979 7.55268 2.63261 7.5 2.5 7.5C2.36739 7.5 2.24021 7.55268 2.14645 7.64645C2.05268 7.74021 2 7.86739 2 8V9.5C2 9.89782 2.15804 10.2794 2.43934 10.5607C2.72064 10.842 3.10218 11 3.5 11H8.5C8.89782 11 9.27936 10.842 9.56066 10.5607C9.84196 10.2794 10 9.89782 10 9.5V2.5C10 2.10218 9.84196 1.72064 9.56066 1.43934C9.27936 1.15804 8.89782 1 8.5 1Z" fill="#EB5767"/>
</svg>
