<svg width="12" height="13" viewBox="0 0 12 13" fill="none" xmlns="http://www.w3.org/2000/svg">
<path d="M9 7.09V5.5C8.99928 4.79156 8.74788 4.10623 8.29031 3.56539C7.83274 3.02454 7.19853 2.66307 6.5 2.545V2C6.5 1.86739 6.44732 1.74021 6.35355 1.64645C6.25979 1.55268 6.13261 1.5 6 1.5C5.86739 1.5 5.74021 1.55268 5.64645 1.64645C5.55268 1.74021 5.5 1.86739 5.5 2V2.545C4.80147 2.66307 4.16726 3.02454 3.70969 3.56539C3.25212 4.10623 3.00072 4.79156 3 5.5V7.09C2.70823 7.19316 2.4555 7.38404 2.27647 7.63647C2.09744 7.8889 2.00087 8.19053 2 8.5V9.5C2 9.63261 2.05268 9.75979 2.14645 9.85355C2.24021 9.94732 2.36739 10 2.5 10H4.07C4.18514 10.4237 4.4365 10.7977 4.7853 11.0644C5.1341 11.331 5.56095 11.4755 6 11.4755C6.43905 11.4755 6.8659 11.331 7.2147 11.0644C7.5635 10.7977 7.81486 10.4237 7.93 10H9.5C9.63261 10 9.75979 9.94732 9.85355 9.85355C9.94732 9.75979 10 9.63261 10 9.5V8.5C9.99913 8.19053 9.90256 7.8889 9.72353 7.63647C9.5445 7.38404 9.29177 7.19316 9 7.09ZM4 5.5C4 4.96957 4.21071 4.46086 4.58579 4.08579C4.96086 3.71071 5.46957 3.5 6 3.5C6.53043 3.5 7.03914 3.71071 7.41421 4.08579C7.78929 4.46086 8 4.96957 8 5.5V7H4V5.5ZM6 10.5C5.82549 10.4989 5.65429 10.4522 5.50342 10.3645C5.35254 10.2768 5.22726 10.1511 5.14 10H6.86C6.77274 10.1511 6.64746 10.2768 6.49658 10.3645C6.34571 10.4522 6.17451 10.4989 6 10.5ZM9 9H3V8.5C3 8.36739 3.05268 8.24021 3.14645 8.14645C3.24021 8.05268 3.36739 8 3.5 8H8.5C8.63261 8 8.75979 8.05268 8.85355 8.14645C8.94732 8.24021 9 8.36739 9 8.5V9Z" fill="black"/>
</svg>
