<svg width="10" height="13" viewBox="0 0 10 13" fill="none" xmlns="http://www.w3.org/2000/svg">
<path d="M9.76875 1.48932C9.69614 1.43292 9.61129 1.39286 9.52043 1.37208C9.42958 1.35131 9.33504 1.35035 9.24375 1.36929C8.5759 1.50369 7.88646 1.50541 7.21789 1.37432C6.54933 1.24323 5.91578 0.982113 5.35625 0.607047C5.25163 0.537349 5.12733 0.5 5 0.5C4.87267 0.5 4.74837 0.537349 4.64375 0.607047C4.08422 0.982113 3.45067 1.24323 2.78211 1.37432C2.11354 1.50541 1.42411 1.50369 0.756253 1.36929C0.664965 1.35035 0.570419 1.35131 0.479566 1.37208C0.388713 1.39286 0.303863 1.43292 0.231253 1.48932C0.158741 1.54581 0.100329 1.61718 0.0603113 1.6982C0.0202934 1.77921 -0.000313869 1.8678 3.61343e-06 1.95747V6.42887C-0.000552034 7.28939 0.212987 8.13758 0.622837 8.90282C1.03269 9.66806 1.62699 10.3282 2.35625 10.8282L4.6375 12.3887C4.74335 12.4611 4.87006 12.5 5 12.5C5.12994 12.5 5.25665 12.4611 5.3625 12.3887L7.64375 10.8282C8.37301 10.3282 8.96731 9.66806 9.37716 8.90282C9.78701 8.13758 10.0006 7.28939 10 6.42887V1.95747C10.0003 1.8678 9.97971 1.77921 9.93969 1.6982C9.89967 1.61718 9.84126 1.54581 9.76875 1.48932ZM8.75 6.42887C8.75048 7.09793 8.58455 7.75743 8.26603 8.35248C7.94751 8.94753 7.4856 9.46093 6.91875 9.84994L5 11.1644L3.08125 9.84994C2.5144 9.46093 2.05249 8.94753 1.73397 8.35248C1.41545 7.75743 1.24952 7.09793 1.25 6.42887V2.64769C2.56027 2.75538 3.87253 2.46344 5 1.81342C6.12747 2.46344 7.43973 2.75538 8.75 2.64769V6.42887ZM5.9625 5.05444L4.28125 6.67495L3.725 6.13478C3.60731 6.02176 3.44769 5.95827 3.28125 5.95827C3.11481 5.95827 2.95519 6.02176 2.8375 6.13478C2.71981 6.24779 2.65369 6.40108 2.65369 6.56091C2.65369 6.72074 2.71981 6.87403 2.8375 6.98704L3.8375 7.94734C3.8956 8.0036 3.96473 8.04825 4.04089 8.07872C4.11705 8.10919 4.19874 8.12488 4.28125 8.12488C4.36376 8.12488 4.44545 8.10919 4.52161 8.07872C4.59777 8.04825 4.6669 8.0036 4.725 7.94734L6.875 5.9007C6.99269 5.78769 7.05881 5.6344 7.05881 5.47457C7.05881 5.31474 6.99269 5.16145 6.875 5.04844C6.75731 4.93542 6.59769 4.87193 6.43125 4.87193C6.26481 4.87193 6.10519 4.93542 5.9875 5.04844L5.9625 5.05444Z" fill="black"/>
</svg>
