<svg width="12" height="13" viewBox="0 0 12 13" fill="none" xmlns="http://www.w3.org/2000/svg">
<path d="M6.5 8.5H3.5C3.3674 8.5 3.24022 8.55268 3.14645 8.64645C3.05268 8.74022 3 8.8674 3 9C3 9.13261 3.05268 9.25979 3.14645 9.35356C3.24022 9.44733 3.3674 9.5 3.5 9.5H6.5C6.63261 9.5 6.75979 9.44733 6.85356 9.35356C6.94733 9.25979 7 9.13261 7 9C7 8.8674 6.94733 8.74022 6.85356 8.64645C6.75979 8.55268 6.63261 8.5 6.5 8.5ZM4.5 5.5H5.5C5.63261 5.5 5.75979 5.44732 5.85356 5.35356C5.94733 5.25979 6 5.13261 6 5C6 4.8674 5.94733 4.74022 5.85356 4.64645C5.75979 4.55268 5.63261 4.5 5.5 4.5H4.5C4.3674 4.5 4.24022 4.55268 4.14645 4.64645C4.05268 4.74022 4 4.8674 4 5C4 5.13261 4.05268 5.25979 4.14645 5.35356C4.24022 5.44732 4.3674 5.5 4.5 5.5ZM10.5 6.5H9V2C9.00035 1.9119 8.97742 1.82527 8.93351 1.74888C8.88961 1.67249 8.82631 1.60906 8.75 1.565C8.67399 1.52112 8.58777 1.49802 8.5 1.49802C8.41224 1.49802 8.32601 1.52112 8.25 1.565L6.75 2.425L5.25 1.565C5.17399 1.52112 5.08777 1.49802 5 1.49802C4.91224 1.49802 4.82601 1.52112 4.75 1.565L3.25 2.425L1.75 1.565C1.67399 1.52112 1.58777 1.49802 1.5 1.49802C1.41224 1.49802 1.32601 1.52112 1.25 1.565C1.1737 1.60906 1.11039 1.67249 1.06649 1.74888C1.02259 1.82527 0.999654 1.9119 1 2V10C1 10.3978 1.15804 10.7794 1.43934 11.0607C1.72065 11.342 2.10218 11.5 2.5 11.5H9.5C9.89783 11.5 10.2794 11.342 10.5607 11.0607C10.842 10.7794 11 10.3978 11 10V7C11 6.8674 10.9473 6.74022 10.8536 6.64645C10.7598 6.55268 10.6326 6.5 10.5 6.5ZM2.5 10.5C2.3674 10.5 2.24022 10.4473 2.14645 10.3536C2.05268 10.2598 2 10.1326 2 10V2.865L3 3.435C3.07717 3.47531 3.16294 3.49636 3.25 3.49636C3.33706 3.49636 3.42284 3.47531 3.5 3.435L5 2.575L6.5 3.435C6.57717 3.47531 6.66294 3.49636 6.75 3.49636C6.83706 3.49636 6.92283 3.47531 7 3.435L8 2.865V10C8.00136 10.1706 8.03179 10.3397 8.09 10.5H2.5ZM10 10C10 10.1326 9.94733 10.2598 9.85356 10.3536C9.75979 10.4473 9.63261 10.5 9.5 10.5C9.3674 10.5 9.24022 10.4473 9.14645 10.3536C9.05268 10.2598 9 10.1326 9 10V7.5H10V10ZM6.5 6.5H3.5C3.3674 6.5 3.24022 6.55268 3.14645 6.64645C3.05268 6.74022 3 6.8674 3 7C3 7.13261 3.05268 7.25979 3.14645 7.35356C3.24022 7.44733 3.3674 7.5 3.5 7.5H6.5C6.63261 7.5 6.75979 7.44733 6.85356 7.35356C6.94733 7.25979 7 7.13261 7 7C7 6.8674 6.94733 6.74022 6.85356 6.64645C6.75979 6.55268 6.63261 6.5 6.5 6.5Z" fill="black"/>
</svg>
