<?xml version="1.0" encoding="UTF-8"?><svg id="a" xmlns="http://www.w3.org/2000/svg" viewBox="0 0 800 800"><defs><style>.b{fill:none;}.c{fill:#7f7f7f;}</style></defs><g><path class="c" d="M127.66895,755.89384l-12.78027-29.7002H53.14893l-12.78027,29.7002H16.96875l57.41992-126.90039h18.8999l57.42041,126.90039h-23.04004Zm-66.95996-47.7002h46.43994l-23.22021-54-23.21973,54Z"/><path class="c" d="M236.92676,674.71415c5.1582,6.00195,7.74023,15.06055,7.74023,27.17969v54h-22.5v-52.74023c0-6.83984-1.29102-11.81836-3.87012-14.93945-2.58203-3.11914-6.63184-4.68066-12.1499-4.68066-6.47998,0-11.67188,2.04199-15.57031,6.12012-3.90088,4.08105-5.84961,9.54004-5.84961,16.37988v49.86035h-22.5v-88.01953h21.95996v13.13965c2.99805-4.91895,7.02002-8.69922,12.06006-11.33984,5.03955-2.63867,10.73779-3.95996,17.09961-3.95996,10.55811,0,18.41943,3.00098,23.58008,9Z"/><path class="c" d="M332.86523,674.71415c5.99902,6.00195,9,15.24023,9,27.71973v53.45996h-21.41992v-13.5c-2.04199,4.67969-5.25098,8.3418-9.62988,10.98047-4.38232,2.6377-9.4502,3.95996-15.21045,3.95996-5.88086,0-11.22168-1.20117-16.02002-3.60059-4.80078-2.39844-8.58057-5.69824-11.33984-9.89941-2.76172-4.19922-4.14014-8.87988-4.14014-14.04004,0-6.48047,1.64844-11.5791,4.9502-15.30078,3.29932-3.71777,8.66797-6.41797,16.10986-8.09961,7.43945-1.67871,17.69922-2.51953,30.78027-2.51953h4.5v-4.14062c0-5.99902-1.29102-10.31934-3.87012-12.95996-2.58203-2.6377-6.87109-3.95996-12.87012-3.95996-4.67969,0-9.5708,.81055-14.66992,2.42969-5.10205,1.62012-10.11084,3.87012-15.02979,6.75l-6.30029-15.47949c4.91895-3.11914,10.85938-5.69824,17.82031-7.74023,6.95801-2.03906,13.55908-3.05957,19.7998-3.05957,12.35791,0,21.53809,3.00098,27.54004,9Zm-18.08984,60.38965c3.77979-4.01855,5.66992-9.20801,5.66992-15.57031v-3.7793h-3.24023c-8.04102,0-14.28174,.35938-18.71973,1.08008-4.44092,.71973-7.62207,1.97949-9.54004,3.7793-1.9209,1.7998-2.87988,4.26074-2.87988,7.37988,0,3.8418,1.31885,6.99219,3.95996,9.4502,2.6377,2.46094,5.99902,3.69043,10.07959,3.69043,5.99951,0,10.89014-2.00879,14.67041-6.03027Z"/><path class="c" d="M364.72412,755.89384v-126.90039h22.5v126.90039h-22.5Z"/><path class="c" d="M472.18359,668.05399h22.14062l-52.91992,120.24023h-22.67969l16.01953-35.82031-36.7207-84.41992h23.75977l24.83984,62.09961,25.56055-62.09961Z"/><path class="c" d="M560.73828,739.87431l-1.08008,16.73926c-3.60059,.36035-6.90234,.54004-9.90039,.54004-12.36133,0-21.48145-2.84863-27.36035-8.5498-5.88086-5.69824-8.81934-14.18945-8.81934-25.46973v-38.33984h-16.91992v-16.91992h16.91992v-26.28027h22.5v26.28027h23.21973v16.91992h-23.21973v37.97949c0,11.76172,5.45898,17.63965,16.37988,17.63965,2.6377,0,5.39941-.17969,8.28027-.53906Z"/><path class="c" d="M572.61621,627.01396h24.83984v22.13965h-24.83984v-22.13965Zm1.25977,128.87988v-88.01953h22.5v88.01953h-22.5Z"/><path class="c" d="M635.70508,751.75419c-6.78027-3.71875-11.96973-9-15.56934-15.84082-3.60059-6.83984-5.40039-14.81836-5.40039-23.93945,0-9.11816,1.89062-17.19043,5.66992-24.20996,3.78027-7.02051,9.14941-12.44824,16.11035-16.29004,6.95801-3.83887,14.99902-5.75977,24.12012-5.75977,6.23828,0,12.33008,.98926,18.26953,2.96973,5.94043,1.97949,10.70996,4.65137,14.31055,8.00977l-6.48047,15.83984c-3.7207-2.99805-7.64941-5.27832-11.79004-6.83984-4.13965-1.55762-8.25195-2.33984-12.33008-2.33984-7.80176,0-13.85938,2.42969-18.17969,7.29004s-6.48047,11.85156-6.48047,20.96973c0,9,2.16016,15.93066,6.48047,20.79004,4.32031,4.86035,10.37793,7.29004,18.17969,7.29004,4.07812,0,8.19043-.7793,12.33008-2.33984,4.14062-1.55762,8.06934-3.83887,11.79004-6.83984l6.48047,15.66016c-3.8418,3.48145-8.76172,6.20996-14.76074,8.18945-6.00098,1.98047-12.23926,2.9707-18.71973,2.9707-9.24219,0-17.25195-1.85938-24.03027-5.58008Z"/><path class="c" d="M718.32422,754.45341c-6.54199-1.91797-12.09082-4.67969-16.64941-8.2793l6.2998-15.66016c9.35938,6.83984,20.09766,10.25977,32.21973,10.25977,5.1582,0,9.08984-.83789,11.79004-2.51953,2.7002-1.67969,4.0498-4.07812,4.0498-7.2002,0-2.63867-.93066-4.67969-2.79004-6.12012-1.86133-1.44043-5.19141-2.75879-9.99023-3.95996l-14.39941-3.24023c-8.16211-1.7998-14.21973-4.73926-18.17969-8.82031-3.95996-4.07812-5.94043-9.35938-5.94043-15.83984,0-5.39941,1.53027-10.16992,4.58984-14.30957,3.06055-4.13965,7.31836-7.34961,12.78027-9.62988,5.45898-2.27832,11.79004-3.41992,18.99023-3.41992,6.2373,0,12.26758,.96191,18.08984,2.87988,5.81934,1.9209,10.94922,4.62109,15.38965,8.09961l-6.2998,15.2998c-9.12109-6.59766-18.24219-9.89941-27.36035-9.89941-4.92188,0-8.76074,.89941-11.51953,2.7002-2.76172,1.7998-4.14062,4.31934-4.14062,7.55957,0,2.40234,.86914,4.38184,2.61035,5.94043,1.73828,1.56055,4.52832,2.76172,8.37012,3.59961l14.94043,3.41992c8.75781,1.9209,15.17871,4.9502,19.25977,9.08984,4.07812,4.14062,6.12012,9.57129,6.12012,16.29004,0,8.16211-3.30176,14.6416-9.90039,19.44043-6.60059,4.80078-15.54199,7.2002-26.82031,7.2002-7.80176,0-14.9707-.96191-21.50977-2.88086Z"/></g><rect class="b" width="800" height="800"/><path d="M150.70898,29.96017V469.33083c-.00001,16.54654,13.41359,29.96017,29.96012,29.96017h439.37075c16.54654,0,29.96014-13.41363,29.96014-29.96014V29.96017C650,13.41364,636.5864,.00001,620.03989,0H180.66913c-16.54653,0-29.96015,13.41361-29.96015,29.96015v.00002Zm45.38555,15.42539h408.51993v113.13935l-92.19907,92.19908c-25.34618-13.99686-56.21232-13.51043-81.10486,1.27818l-33.3127-33.3127c23.03822-38.80174,10.2594-88.93295-28.54236-111.97118-38.80174-23.03823-88.93294-10.25939-111.97118,28.54235-14.97424,25.22011-15.28178,56.53145-.8058,82.04081l-60.58397,60.58395V45.38555Zm272.92807,240.76834c19.9387-2.17736,37.86731,12.22105,40.04467,32.15975,2.17733,19.9387-12.22108,37.86731-32.15978,40.04467s-37.86731-12.22105-40.04464-32.15975c-.28618-2.62064-.28618-5.26465,.00003-7.88529,1.86171-16.93034,15.22935-30.29786,32.15972-32.15938Zm-177.51813-111.48956c1.30922-20.01447,18.59548-35.17808,38.60994-33.86885,20.01447,1.30921,35.17808,18.59547,33.86887,38.60994-1.1508,17.59276-14.77071,31.81773-32.29687,33.73167-20.02445,2.09531-37.95605-12.43914-40.05136-32.46359-.20886-1.99605-.25254-4.00592-.13058-6.00917Zm313.10995,279.24113H196.09454v-111.83122l93.03788-93.04787c23.60361,12.66792,51.91981,12.95152,75.77241,.75892l35.31984,35.31986c-20.54535,40.17614-4.63145,89.40061,35.54468,109.94593,40.1761,20.54535,89.40058,4.63145,109.94593-35.54465,12.36343-24.17649,11.9079-52.91555-1.2155-76.68804l60.11465-60.11464v231.20171Z"/></svg>