<?xml version="1.0" encoding="UTF-8"?><svg id="a" xmlns="http://www.w3.org/2000/svg" viewBox="0 0 800 800"><defs><style>.b{fill:none;}.c{fill:#7f7f7f;}</style></defs><g><path class="c" d="M254.47314,628.94494h22.68018v126.89943h-22.68018v-55.07966h-64.97998v55.07966h-22.85986v-126.89943h22.85986v53.10018h64.97998v-53.10018Z"/><path class="c" d="M319.00146,751.70475c-6.78076-3.71872-12.03174-9.0595-15.75-16.02039-3.7207-6.95796-5.58008-15.0575-5.58008-24.29962,0-9.23919,1.85938-17.30846,5.58008-24.20978,3.71826-6.89936,8.96924-12.20889,15.75-15.92957,6.77832-3.71872,14.66992-5.58004,23.66992-5.58004s16.88916,1.86131,23.66992,5.58004c6.77832,3.72067,11.99854,9.03021,15.66016,15.92957,3.65918,6.90131,5.49023,14.97059,5.49023,24.20978,0,9.24212-1.83105,17.34167-5.49023,24.29962-3.66162,6.96088-8.88184,12.30166-15.66016,16.02039-6.78076,3.72067-14.66992,5.58004-23.66992,5.58004s-16.8916-1.85936-23.66992-5.58004Zm40.22998-19.07993c3.83936-4.79879,5.76025-11.87979,5.76025-21.24007,0-9.23919-1.9209-16.28992-5.76025-21.15023-3.8418-4.85934-9.35986-7.28998-16.56006-7.28998-7.19971,0-12.75195,2.43065-16.6499,7.28998-3.90088,4.86031-5.8501,11.91104-5.8501,21.15023,0,9.36028,1.91846,16.44128,5.76025,21.24007,3.83887,4.80074,9.35986,7.20014,16.56006,7.20014,7.31787,0,12.89795-2.3994,16.73975-7.20014Z"/><path class="c" d="M532.93066,674.57545c4.91992,5.93941,7.38086,15.02918,7.38086,27.26932v53.99959h-22.5v-53.09921c0-6.71968-1.14258-11.61026-3.4209-14.66981-2.28027-3.06052-5.93945-4.59079-10.97949-4.59079-6.00195,0-10.68164,2.04198-14.04004,6.12007-3.36133,4.08102-5.04004,9.78215-5.04004,17.10046v49.13928h-22.5v-53.09921c0-6.71968-1.11133-11.61026-3.33008-14.66981-2.22168-3.06052-5.91211-4.59079-11.07031-4.59079-5.88086,0-10.50195,2.04198-13.85938,6.12007-3.36133,4.08102-5.04004,9.78215-5.04004,17.10046v49.13928h-22.5v-88.01886h21.95996v12.41983c2.6377-4.79879,6.2998-8.42962,10.97949-10.89054,4.68066-2.45799,10.01855-3.68943,16.02051-3.68943,13.32031,0,22.13965,5.52047,26.45996,16.55944,2.75879-5.15816,6.71875-9.20794,11.87988-12.14932,5.1582-2.93943,10.91797-4.41012,17.28027-4.41012,9.95898,0,17.39746,2.9697,22.31934,8.91009Z"/><path class="c" d="M640.38867,715.88471h-59.93945c.71973,8.16205,3.17773,14.21962,7.37988,18.17955,4.19824,3.95993,10.19824,5.94038,18,5.94038,9.71973,0,18.59863-3.11912,26.63965-9.36028l6.48047,15.48035c-4.08105,3.36033-9.21094,6.0605-15.39062,8.09955-6.18164,2.03905-12.3916,3.06052-18.62988,3.06052-14.40039,0-25.77051-4.07809-34.11035-12.24014-8.3418-8.15912-12.50977-19.31919-12.50977-33.48022,0-8.99993,1.7998-16.97839,5.40039-23.93927,3.59961-6.95796,8.66797-12.3583,15.20996-16.20007,6.53906-3.83884,13.9502-5.75972,22.22949-5.75972,12.11914,0,21.69043,3.90036,28.70996,11.69913,7.02051,7.80268,10.53027,18.5399,10.53027,32.22046v6.29976Zm-53.18945-28.6199c-3.66211,3.84177-5.91211,9.36028-6.75,16.56042h40.67969c-.24219-7.3183-2.04199-12.87002-5.40039-16.65026-3.36035-3.78024-8.04103-5.66988-14.04004-5.66988-6.00195,0-10.83105,1.92088-14.48926,5.75972Z"/></g><rect class="b" y=".00606" width="800" height="799.99394"/><g><path d="M240.85608,179.49119V90.84109h-45.45v88.6501h-40.411c-2.78362,.00067-5.03965,2.25775-5.039,5.04134V448.98415c-.00065,2.78361,2.25538,5.04067,5.039,5.04134h40.411v45.97072h45.45v-45.97075h40.42091c2.78363-.00064,5.0397-2.25773,5.03906-5.04134h0V184.53254c.00064-2.78361-2.25542-5.0407-5.03906-5.04134h-40.42091Zm0,229.06369h-45.45V224.96178h45.45v183.59311Z"/><path d="M422.67608,45.37057V0h-45.45V45.37057h-40.45354c-2.76562,.00063-5.0071,2.24311-5.00647,5.00871V397.40452c-.00064,2.7656,2.24083,5.00808,5.00645,5.00872h40.45355v49.01098h45.45v-49.01098h40.44354c2.76562-.00064,5.00711-2.24312,5.00647-5.00872h0V50.3793c.00064-2.7656-2.24081-5.00809-5.00644-5.00873h-40.44357Zm0,311.5721h-45.46001V90.84109h45.46001V356.94267Z"/><path d="M604.49608,90.89608V45.30551h-45.45001v45.59057h-40.44067c-2.77274,.00063-5.01996,2.24888-5.01932,5.02158v217.66489c-.00064,2.77271,2.24658,5.02093,5.01932,5.02157h40.44067v132.82013h45.45001v-132.82013h40.4407c2.77271-.00064,5.01993-2.24888,5.01929-5.02157V95.91766c.00064-2.7727-2.24658-5.02094-5.01929-5.02158h-40.4407Zm0,182.23753h-45.45001V136.37668h45.45001v136.75693Z"/><rect x="377.21608" y="90.84109" width=".01001" height="266.10158"/></g></svg>