<?xml version="1.0" encoding="UTF-8"?><svg id="a" xmlns="http://www.w3.org/2000/svg" viewBox="0 0 800 800"><defs><style>.b{fill:none;}.c{fill:#7f7f7f;}</style></defs><rect class="b" width="800" height="800"/><g><path d="M279.42403,500h-126.15281c-2.81889,0-5.10405-2.28516-5.10405-5.10405V142.08041c0-2.81889,2.28516-5.10405,5.10405-5.10405h126.15281c2.81889,0,5.10405,2.28516,5.10405,5.10405V494.89595c0,2.81889-2.28516,5.10405-5.10405,5.10405Zm-85.80322-45.45455h45.45364V182.43091h-45.45364V454.54545Z"/><path d="M643.06312,499.99545h-126.15281c-2.81889,0-5.10405-2.28516-5.10405-5.10405v-222.4019c0-2.81889,2.28516-5.10405,5.10405-5.10405h126.15281c2.81889,0,5.10405,2.28516,5.10405,5.10405v222.4019c0,2.81889-2.28516,5.10405-5.10405,5.10405Zm-85.80322-45.45455h45.45364v-141.70091h-45.45364v141.70091Z"/><path d="M461.23949,499.99818h-126.15281c-2.81889,0-5.10405-2.28516-5.10405-5.10405V5.10405c0-2.81889,2.28516-5.10405,5.10405-5.10405h126.15281c2.81889,0,5.10405,2.28516,5.10405,5.10405V494.89413c0,2.81889-2.28516,5.10405-5.10405,5.10405Zm-85.80322-45.45455h45.45364V45.45455h-45.45364V454.54364Z"/></g><g><path class="c" d="M224.46386,628.99023h18.18018v126.90039h-20.52002v-83.87988l-33.47998,63.36035h-15.47998l-33.66016-62.46094,.18018,82.98047h-20.52002v-126.90039h18.35986l43.56006,82.98047,43.37988-82.98047Z"/><path class="c" d="M333.54199,674.71094c5.99902,6.00195,9,15.24023,9,27.71973v53.45996h-21.41992v-13.5c-2.04199,4.67969-5.25098,8.3418-9.62988,10.98047-4.38232,2.6377-9.4502,3.95996-15.21045,3.95996-5.88086,0-11.22168-1.20117-16.02002-3.60059-4.80078-2.39844-8.58057-5.69824-11.33984-9.89941-2.76172-4.19922-4.14014-8.87988-4.14014-14.04004,0-6.48047,1.64844-11.5791,4.9502-15.30078,3.29932-3.71777,8.66797-6.41797,16.10986-8.09961,7.43945-1.67871,17.69922-2.51953,30.78027-2.51953h4.5v-4.14062c0-5.99902-1.29102-10.31934-3.87012-12.95996-2.58203-2.6377-6.87109-3.95996-12.87012-3.95996-4.67969,0-9.5708,.81055-14.66992,2.42969-5.10205,1.62012-10.11084,3.87012-15.02979,6.75l-6.30029-15.47949c4.91895-3.11914,10.85938-5.69824,17.82031-7.74023,6.95801-2.03906,13.55908-3.05957,19.7998-3.05957,12.35791,0,21.53809,3.00098,27.54004,9Zm-18.08984,60.38965c3.77979-4.01855,5.66992-9.20801,5.66992-15.57031v-3.7793h-3.24023c-8.04102,0-14.28174,.35938-18.71973,1.08008-4.44092,.71973-7.62207,1.97949-9.54004,3.7793-1.9209,1.7998-2.87988,4.26074-2.87988,7.37988,0,3.8418,1.31885,6.99219,3.95996,9.4502,2.6377,2.46094,5.99902,3.69043,10.07959,3.69043,5.99951,0,10.89014-2.00879,14.67041-6.03027Z"/><path class="c" d="M423.36084,684.43066l-13.14014,1.25977c-14.88086,1.56152-22.31982,9.12109-22.31982,22.68066v47.51953h-22.5v-88.01953h21.41992v15.47949c4.55908-10.55762,13.97803-16.31836,28.25977-17.28027l6.84033-.54004,1.43994,18.90039Z"/><path class="c" d="M522.54004,755.89062h-27.90039l-37.7998-40.13965v40.13965h-22.5v-126.90039h22.5v77.40039l35.45996-38.33984h27.35938l-39.59961,42.12012,42.48047,45.71973Z"/><path class="c" d="M606.78125,715.93066h-59.93945c.71973,8.16211,3.17773,14.21973,7.37988,18.17969,4.19824,3.95996,10.19824,5.94043,18,5.94043,9.71973,0,18.59863-3.11914,26.63965-9.36035l6.48047,15.48047c-4.08105,3.36035-9.21094,6.06055-15.39062,8.09961-6.18164,2.03906-12.3916,3.06055-18.62988,3.06055-14.40039,0-25.77051-4.07812-34.11035-12.24023-8.3418-8.15918-12.50977-19.31934-12.50977-33.48047,0-9,1.7998-16.97852,5.40039-23.93945,3.59961-6.95801,8.66797-12.3584,15.20996-16.2002,6.53906-3.83887,13.9502-5.75977,22.22949-5.75977,12.11914,0,21.69043,3.90039,28.70996,11.69922,7.02051,7.80273,10.53027,18.54004,10.53027,32.2207v6.2998Zm-53.18945-28.62012c-3.66211,3.8418-5.91211,9.36035-6.75,16.56055h40.67969c-.24219-7.31836-2.04199-12.87012-5.40039-16.65039-3.36035-3.78027-8.04102-5.66992-14.04004-5.66992-6.00195,0-10.83105,1.9209-14.48926,5.75977Z"/><path class="c" d="M677.16211,739.87109l-1.08008,16.73926c-3.60059,.36035-6.90234,.54004-9.90039,.54004-12.36133,0-21.48145-2.84863-27.36035-8.5498-5.88086-5.69824-8.81934-14.18945-8.81934-25.46973v-38.33984h-16.91992v-16.91992h16.91992v-26.28027h22.5v26.28027h23.21973v16.91992h-23.21973v37.97949c0,11.76172,5.45898,17.63965,16.37988,17.63965,2.6377,0,5.39941-.17969,8.28027-.53906Z"/></g></svg>