<?xml version="1.0" encoding="UTF-8"?><svg id="a" xmlns="http://www.w3.org/2000/svg" viewBox="0 0 800 800"><defs><style>.b{fill:none;}.c{fill:#7f7f7f;}</style></defs><g><path class="c" d="M50.98438,628.99345h55.43994c13.55908,0,24.12012,3.39258,31.67969,10.16992,7.56006,6.78125,11.34033,16.29004,11.34033,28.53027s-3.78027,21.78027-11.34033,28.62012c-7.55957,6.83984-18.12061,10.25977-31.67969,10.25977h-32.22021v49.32031h-23.21973v-126.90039Zm52.56006,59.76074c15.95801,0,23.93994-6.95801,23.93994-20.87988,0-7.0791-1.97998-12.33008-5.93994-15.75-3.96045-3.4209-9.96191-5.13086-18-5.13086h-29.34033v41.76074h29.34033Z"/><path class="c" d="M181.03369,751.75419c-6.78076-3.71875-12.03174-9.05957-15.75-16.02051-3.7207-6.95801-5.58008-15.05762-5.58008-24.2998,0-9.23926,1.85938-17.30859,5.58008-24.20996,3.71826-6.89941,8.96924-12.20898,15.75-15.92969,6.77832-3.71875,14.66992-5.58008,23.66992-5.58008s16.88916,1.86133,23.66992,5.58008c6.77832,3.7207,11.99854,9.03027,15.66016,15.92969,3.65918,6.90137,5.49023,14.9707,5.49023,24.20996,0,9.24219-1.83105,17.3418-5.49023,24.2998-3.66162,6.96094-8.88184,12.30176-15.66016,16.02051-6.78076,3.7207-14.66992,5.58008-23.66992,5.58008s-16.8916-1.85938-23.66992-5.58008Zm40.22998-19.08008c3.83936-4.79883,5.76025-11.87988,5.76025-21.24023,0-9.23926-1.9209-16.29004-5.76025-21.15039-3.8418-4.85938-9.35986-7.29004-16.56006-7.29004-7.19971,0-12.75195,2.43066-16.6499,7.29004-3.90088,4.86035-5.8501,11.91113-5.8501,21.15039,0,9.36035,1.91846,16.44141,5.76025,21.24023,3.83887,4.80078,9.35986,7.2002,16.56006,7.2002,7.31787,0,12.89795-2.39941,16.73975-7.2002Z"/><path class="c" d="M326.02344,684.43388l-13.14014,1.25977c-14.88086,1.56152-22.31982,9.12109-22.31982,22.68066v47.51953h-22.5v-88.01953h21.41992v15.47949c4.55908-10.55762,13.97803-16.31836,28.25977-17.28027l6.84033-.54004,1.43994,18.90039Z"/><path class="c" d="M398.38232,739.87431l-1.08008,16.73926c-3.6001,.36035-6.90186,.54004-9.8999,.54004-12.36084,0-21.48193-2.84863-27.35986-8.5498-5.88086-5.69824-8.82031-14.18945-8.82031-25.46973v-38.33984h-16.91992v-16.91992h16.91992v-26.28027h22.5v26.28027h23.22021v16.91992h-23.22021v37.97949c0,11.76172,5.45947,17.63965,16.38037,17.63965,2.6377,0,5.3999-.17969,8.27979-.53906Z"/><path class="c" d="M441.03906,667.87431h23.21973v16.91992h-23.21973v71.09961h-22.5v-71.09961h-16.91992v-16.91992h16.91992c0-12.60059,3.26758-22.07812,9.80957-28.44043,6.53906-6.35938,16.70898-9.90039,30.50977-10.62012l8.82031-.54004,1.44043,16.74023-8.45996,.36035c-7.08203,.35938-12.12207,1.95117-15.12012,4.76953-3.00098,2.82129-4.5,7.35156-4.5,13.58984v4.14062Z"/><path class="c" d="M492.42773,751.75419c-6.78125-3.71875-12.03223-9.05957-15.75-16.02051-3.7207-6.95801-5.58008-15.05762-5.58008-24.2998,0-9.23926,1.85938-17.30859,5.58008-24.20996,3.71777-6.89941,8.96875-12.20898,15.75-15.92969,6.77832-3.71875,14.66992-5.58008,23.66992-5.58008s16.88965,1.86133,23.66992,5.58008c6.77832,3.7207,11.99805,9.03027,15.66016,15.92969,3.65918,6.90137,5.49023,14.9707,5.49023,24.20996,0,9.24219-1.83105,17.3418-5.49023,24.2998-3.66211,6.96094-8.88184,12.30176-15.66016,16.02051-6.78027,3.7207-14.66992,5.58008-23.66992,5.58008s-16.8916-1.85938-23.66992-5.58008Zm40.23047-19.08008c3.83887-4.79883,5.75977-11.87988,5.75977-21.24023,0-9.23926-1.9209-16.29004-5.75977-21.15039-3.8418-4.85938-9.36035-7.29004-16.56055-7.29004s-12.75195,2.43066-16.64941,7.29004c-3.90137,4.86035-5.85059,11.91113-5.85059,21.15039,0,9.36035,1.91797,16.44141,5.75977,21.24023,3.83984,4.80078,9.36035,7.2002,16.56055,7.2002,7.31836,0,12.89844-2.39941,16.74023-7.2002Z"/><path class="c" d="M579.45703,755.89384v-126.90039h22.5v126.90039h-22.5Z"/><path class="c" d="M623.91699,627.01396h24.83984v22.13965h-24.83984v-22.13965Zm1.25977,128.87988v-88.01953h22.5v88.01953h-22.5Z"/><path class="c" d="M687.36621,751.75419c-6.78125-3.71875-12.03223-9.05957-15.75-16.02051-3.7207-6.95801-5.58008-15.05762-5.58008-24.2998,0-9.23926,1.85938-17.30859,5.58008-24.20996,3.71777-6.89941,8.96875-12.20898,15.75-15.92969,6.77832-3.71875,14.66992-5.58008,23.66992-5.58008s16.88965,1.86133,23.66992,5.58008c6.77832,3.7207,11.99805,9.03027,15.66016,15.92969,3.65918,6.90137,5.49023,14.9707,5.49023,24.20996,0,9.24219-1.83105,17.3418-5.49023,24.2998-3.66211,6.96094-8.88184,12.30176-15.66016,16.02051-6.78027,3.7207-14.66992,5.58008-23.66992,5.58008s-16.8916-1.85938-23.66992-5.58008Zm40.23047-19.08008c3.83887-4.79883,5.75977-11.87988,5.75977-21.24023,0-9.23926-1.9209-16.29004-5.75977-21.15039-3.8418-4.85938-9.36035-7.29004-16.56055-7.29004s-12.75195,2.43066-16.64941,7.29004c-3.90137,4.86035-5.85059,11.91113-5.85059,21.15039,0,9.36035,1.91797,16.44141,5.75977,21.24023,3.83984,4.80078,9.36035,7.2002,16.56055,7.2002,7.31836,0,12.89844-2.39941,16.74023-7.2002Z"/></g><rect class="b" width="800" height="800"/><g><path d="M262.34,141v.00999h282.94v-.00999H262.34Z"/><path d="M545.28,95.54V30.09482C545.28,13.47393,531.80612,.00002,515.18524,0h-222.75041c-16.6209-.00002-30.09482,13.47387-30.09483,30.09477V95.54h-82.2452c-16.6209,0-30.0948,13.4739-30.0948,30.0948h0V469.90517c0,16.62091,13.47388,30.09482,30.09478,30.09482h439.81043c16.62091,0,30.09479-13.47391,30.09479-30.09482h0V125.6348c0-16.6209-13.47391-30.0948-30.09479-30.0948h-74.62521Zm-237.48-48.54h192.02998v47h-192.02998V47Zm296.74998,407.54H195.45v-136.38998h136.22999v68.19h136.36002v-68.19h136.50998v136.38998Zm-227.41998-113.66v-90.92h45.45999v90.92h-45.45999Zm227.41998-68.19h-136.50998v-68.2h-136.36002v68.2H195.45V141h409.10002l-.00003,131.68999Z"/></g></svg>