<svg width="23" height="23" viewBox="0 0 23 23" fill="none" xmlns="http://www.w3.org/2000/svg">
<path d="M14.7 8.29999L10.08 12.93L8.29997 11.1501C8.20358 11.0365 8.08434 10.9445 7.95 10.8801C7.81895 10.8165 7.67557 10.7824 7.52995 10.7801C7.38005 10.7732 7.23037 10.7969 7.09001 10.85C6.954 10.9086 6.8289 10.9897 6.72002 11.09C6.61968 11.1989 6.53854 11.324 6.48003 11.46C6.42693 11.6004 6.40303 11.7502 6.40996 11.9001C6.41542 12.0464 6.45296 12.1898 6.51994 12.32C6.5775 12.4584 6.67067 12.5792 6.78996 12.67L9.31999 15.21C9.42161 15.31 9.54007 15.3913 9.66997 15.45C9.80022 15.5018 9.93994 15.5257 10.08 15.5201C10.2192 15.5202 10.3572 15.4928 10.4859 15.4396C10.6146 15.3864 10.7315 15.3084 10.83 15.21L16.22 9.83002C16.3205 9.73089 16.3989 9.61163 16.45 9.48004C16.5101 9.34821 16.5407 9.20486 16.54 9.06C16.5393 8.9185 16.5087 8.77884 16.45 8.65008C16.3989 8.51849 16.3205 8.39911 16.22 8.29999C16.0174 8.10066 15.7443 7.98934 15.46 7.99005C15.3192 7.98916 15.1795 8.01608 15.0491 8.06927C14.9187 8.12247 14.8 8.20084 14.7 8.29999ZM11.7699 0.990049C9.63483 0.985881 7.54656 1.61578 5.76994 2.79999C3.98913 3.98427 2.59762 5.66808 1.76994 7.64007C0.955689 9.60739 0.743414 11.772 1.15996 13.86C1.59157 15.9535 2.6358 17.8714 4.15996 19.3701C5.66357 20.8779 7.58147 21.9046 9.66997 22.32C11.759 22.7328 13.9235 22.517 15.8899 21.7C17.8636 20.8795 19.5461 19.4862 20.72 17.7C21.9116 15.9263 22.5454 13.8368 22.54 11.7C22.5405 10.2861 22.2619 8.88598 21.72 7.58002C21.1781 6.27064 20.3828 5.08121 19.3799 4.08002C18.382 3.0804 17.1958 2.28853 15.8899 1.75006C14.5802 1.22631 13.1804 0.964682 11.7699 0.98004V0.990049ZM11.7699 20.3701C10.0679 20.3727 8.40378 19.8678 6.99004 18.92C5.56912 17.9745 4.46199 16.6273 3.80998 15.05C3.15381 13.4689 2.98324 11.7283 3.31999 10.05C3.64715 8.37677 4.46932 6.84048 5.67998 5.64007C6.88187 4.4314 8.41763 3.60958 10.09 3.28009C11.7685 2.94637 13.5082 3.11686 15.09 3.77008C16.6652 4.43141 18.0062 5.54943 18.94 6.98004C19.891 8.39653 20.3992 10.0639 20.3999 11.7701C20.3972 14.0552 19.4872 16.2456 17.87 17.86C17.0682 18.6588 16.1166 19.2917 15.0699 19.7223C14.0232 20.153 12.9018 20.3732 11.7699 20.3701Z" fill="white"/>
</svg>
