<?xml version="1.0" standalone="no"?>
<!DOCTYPE svg PUBLIC "-//W3C//DTD SVG 20010904//EN"
 "http://www.w3.org/TR/2001/REC-SVG-20010904/DTD/svg10.dtd">
<svg version="1.0" xmlns="http://www.w3.org/2000/svg"
 width="267.000000pt" height="267.000000pt" viewBox="0 0 267.000000 267.000000"
 preserveAspectRatio="xMidYMid meet">

<g transform="translate(0.000000,267.000000) scale(0.100000,-0.100000)"
fill="#000000" stroke="none">
<path d="M1130 2654 c-321 -65 -556 -187 -751 -390 -372 -388 -479 -935 -279
-1429 202 -500 698 -835 1235 -835 352 0 713 153 956 406 372 388 479 935 279
1429 -204 505 -704 839 -1246 834 -71 -1 -158 -8 -194 -15z m-534 -1003 c17
-10 42 -36 55 -57 20 -33 24 -52 24 -119 0 -60 -4 -88 -17 -108 -10 -14 -18
-33 -18 -41 0 -41 -153 -122 -215 -113 -24 4 -36 -2 -58 -27 -16 -17 -31 -43
-34 -58 -3 -16 -9 -28 -14 -28 -5 0 -9 -9 -9 -21 0 -11 -5 -17 -10 -14 -6 3
-13 -1 -16 -10 -11 -27 -52 20 -71 82 -17 54 -14 83 17 173 27 77 34 84 118
125 67 32 82 43 82 62 0 16 6 23 20 23 12 0 20 7 20 16 0 9 11 25 25 36 14 11
24 25 23 32 -3 12 31 66 42 66 3 0 19 -9 36 -19z m314 -146 c4 -82 8 -99 20
-96 98 25 182 -2 228 -72 34 -52 38 -144 7 -195 -43 -71 -141 -108 -218 -83
-45 15 -102 78 -116 128 -12 42 -15 406 -4 417 4 4 23 6 43 4 l35 -3 5 -100z
m882 8 l3 -98 61 3 c96 5 158 -27 195 -100 46 -90 9 -202 -83 -249 -78 -40
-173 -13 -228 63 l-30 41 0 219 0 218 40 0 39 0 3 -97z m648 7 c0 -87 1 -91
25 -100 35 -13 35 -61 0 -84 -24 -16 -25 -20 -27 -149 l-3 -132 -37 -3 -38 -3
0 130 c0 104 -3 133 -16 145 -8 9 -20 16 -25 16 -5 0 -9 18 -9 40 0 29 4 40
15 40 23 0 35 42 35 121 l0 69 40 0 40 0 0 -90z m-214 15 c7 -29 -10 -55 -36
-55 -26 0 -43 26 -36 55 5 20 13 25 36 25 23 0 31 -5 36 -25z m-11 -295 l0
-185 -35 0 -35 0 -3 175 c-1 96 0 180 3 188 3 8 17 12 37 10 l33 -3 0 -185z
m-865 62 c5 -109 6 -115 33 -138 41 -35 95 -33 133 7 28 29 29 34 32 140 l4
110 36 -3 37 -3 0 -216 0 -216 -28 -42 c-19 -29 -43 -49 -73 -63 -57 -25 -74
-19 -74 27 0 30 5 38 35 52 36 17 71 73 61 99 -4 11 -11 11 -31 4 -37 -14
-100 -12 -138 4 -43 17 -93 76 -106 123 -12 43 -15 216 -4 227 4 4 23 6 43 4
l35 -3 5 -113z"/>
<path d="M939 1301 c-38 -39 -39 -87 -3 -130 21 -26 33 -31 68 -31 57 0 96 39
96 96 -1 42 -13 64 -47 82 -39 21 -82 14 -114 -17z"/>
<path d="M1833 1315 c-34 -24 -47 -76 -29 -118 8 -20 23 -40 34 -46 30 -16 84
-13 110 4 44 32 45 121 1 158 -26 21 -87 22 -116 2z"/>
</g>
</svg>
