<?xml version="1.0" standalone="no"?><!DOCTYPE svg PUBLIC "-//W3C//DTD SVG 1.1//EN" "http://www.w3.org/Graphics/SVG/1.1/DTD/svg11.dtd"><svg t="1573546601188" class="icon" viewBox="0 0 1024 1024" version="1.1" xmlns="http://www.w3.org/2000/svg" p-id="10679" xmlns:xlink="http://www.w3.org/1999/xlink" width="200" height="200"><defs><style type="text/css"></style></defs><path d="M38.253714 990.427429l479.085715-477.988572L38.253714 33.609143C26.441143 52.589714 18.285714 83.456 18.285714 127.890286v768.219428c0 44.434286 8.155429 75.264 19.968 94.354286z" fill="#00D1FF" p-id="10680"></path><path d="M719.725714 714.678857l-157.001143-157.769143L96.329143 1024h4.534857c39.899429 0 74.386286-14.518857 129.755429-44.470857l489.069714-264.850286z" fill="#F7364A" p-id="10681"></path><path d="M778.642286 341.028571l-170.569143 171.446858 170.569143 170.496 103.460571-56.246858c38.107429-20.845714 96.182857-58.953143 96.182857-114.249142 0-56.246857-58.075429-94.354286-96.182857-115.2L778.605714 340.992z" fill="#FFCB02" p-id="10682"></path><path d="M96.329143 0l466.395428 467.090286 156.964572-157.805715L230.619429 44.434286C175.250286 14.518857 140.763429 0 100.864 0h-4.534857z" fill="#00F076" p-id="10683"></path></svg>